<svg xmlns="http://www.w3.org/2000/svg" xmlns:xlink="http://www.w3.org/1999/xlink" viewBox="0 0 685.33 665.5"><defs><style>.cls-1{fill:url(#linear-gradient);}.cls-2{fill:#717070;}.cls-2,.cls-3{opacity:0.9;}.cls-3{fill:#a8a7a7;}.cls-4{fill:#4d4c4c;}.cls-4,.cls-7{opacity:0.62;}.cls-5{fill:#353535;}.cls-6{fill:#f1e627;}.cls-7,.cls-8{fill:#6e6e6d;}.cls-9{opacity:0.6;}.cls-10{fill:#474747;}.cls-11{fill:#161616;}.cls-12{fill:#2b2b2b;}.cls-13{fill:#fff;}.cls-14{fill:url(#linear-gradient-2);}.cls-15{fill:url(#linear-gradient-3);}.cls-16{fill:url(#linear-gradient-4);}.cls-17{fill:url(#linear-gradient-5);}</style><linearGradient id="linear-gradient" x1="342.67" y1="649.67" x2="342.67" y2="387.67" gradientUnits="userSpaceOnUse"><stop offset="0" stop-color="#fff" stop-opacity="0"/><stop offset="1" stop-color="#fff" stop-opacity="0.5"/></linearGradient><linearGradient id="linear-gradient-2" x1="479.17" y1="-82.19" x2="152.09" y2="484.32" gradientUnits="userSpaceOnUse"><stop offset="0.83" stop-color="#f8fcff" stop-opacity="0"/><stop offset="0.84" stop-color="#e0f3fc" stop-opacity="0.1"/><stop offset="0.87" stop-color="#9ddaf5" stop-opacity="0.37"/><stop offset="0.9" stop-color="#65c5ee" stop-opacity="0.59"/><stop offset="0.93" stop-color="#39b4e9" stop-opacity="0.77"/><stop offset="0.95" stop-color="#1aa9e6" stop-opacity="0.9"/><stop offset="0.98" stop-color="#07a2e4" stop-opacity="0.97"/><stop offset="0.99" stop-color="#009fe3"/></linearGradient><linearGradient id="linear-gradient-3" x1="603.52" y1="-41.62" x2="97.32" y2="414.16" gradientUnits="userSpaceOnUse"><stop offset="0.67" stop-color="#312783" stop-opacity="0"/><stop offset="1" stop-color="#6e387d"/></linearGradient><linearGradient id="linear-gradient-4" x1="48.91" y1="10.91" x2="601.32" y2="369.65" gradientUnits="userSpaceOnUse"><stop offset="0.69" stop-color="#0c1725" stop-opacity="0"/><stop offset="1" stop-color="#2d3b8f"/></linearGradient><linearGradient id="linear-gradient-5" x1="179.65" y1="-83.4" x2="547.94" y2="462.61" gradientUnits="userSpaceOnUse"><stop offset="0.8" stop-color="#312783" stop-opacity="0"/><stop offset="1" stop-color="#e6007e"/></linearGradient></defs><g id="Layer_12" data-name="Layer 12"><g id="bottomchip"><polygon class="cls-1" points="0 480.33 344 649.67 685.33 480.33 340 387.67 0 480.33"/><polygon class="cls-2" points="344 665.5 344 649.67 685.33 480.33 685.33 493.75 344 665.5"/><polygon class="cls-3" points="0 480.33 0 492.75 344 665.5 344 649.67 0 480.33"/><g id="Layer_13" data-name="Layer 13"><g id="Layer_13-2" data-name="Layer 13"><polygon class="cls-4" points="395.08 557.88 395.08 551.46 407.94 545.9 407.94 551.89 395.08 557.88"/><polygon class="cls-5" points="395.08 551.46 390.42 549.72 390.42 555.86 395.08 557.88 395.08 551.46"/><polygon class="cls-6" points="403.1 544.38 390.42 549.72 395.08 551.46 407.94 545.9 403.1 544.38"/><polygon class="cls-4" points="377.55 565.3 377.55 558.87 390.42 553.32 390.42 559.3 377.55 565.3"/><polygon class="cls-5" points="377.55 558.87 372.9 557.13 372.9 563.26 377.55 565.3 377.55 558.87"/><polygon class="cls-7" points="385.57 551.8 372.9 557.13 377.55 558.87 390.42 553.32 385.57 551.8"/><polygon class="cls-4" points="360.03 573.13 360.03 566.68 372.9 561.13 372.9 567.13 360.03 573.13"/><polygon class="cls-5" points="360.03 566.68 355.38 564.95 355.38 571.09 360.03 573.13 360.03 566.68"/><polygon class="cls-7" points="368.05 559.63 355.38 564.95 360.03 566.68 372.9 561.13 368.05 559.63"/><polygon class="cls-4" points="368.79 577.62 368.79 571.18 381.66 565.63 381.66 571.63 368.79 577.62"/><polygon class="cls-5" points="368.79 571.18 364.14 569.45 364.14 575.59 368.79 577.62 368.79 571.18"/><polygon class="cls-8" points="376.81 564.12 364.14 569.45 368.79 571.18 381.66 565.63 376.81 564.12"/></g></g><g id="Layer_15" data-name="Layer 15"><polygon class="cls-9" points="56.1 520.92 56 510.86 254.34 608.33 254.34 620.47 56.1 520.92"/></g></g><g id="topchip"><polygon class="cls-10" points="148.5 471 340 414.5 535.5 471 342 549 148.5 471"/><polygon class="cls-11" points="342 561 342 549 535.5 471 535.5 481.75 342 561"/><polygon class="cls-12" points="148.5 471 148.5 481.75 342 561 342 549 148.5 471"/></g><g id="glow"><polygon class="cls-13" points="340 414.5 148.5 471 342 549 535.5 471 340 414.5"/></g><g id="light"><polygon id="g5" class="cls-14" points="148.5 471 56 0 641 0 535.5 471 342 549 148.5 471"/><polygon id="g4" class="cls-15" points="148.5 471 56 0 641 0 535.5 471 342 549 148.5 471"/><polygon id="g1" class="cls-16" points="148.5 471 56 0 641 0 535.5 471 342 549 148.5 471"/><polygon id="g2" class="cls-17" points="148.5 471 56 0 641 0 535.5 471 342 549 148.5 471"/></g></g><g id="Particles"><rect id="p9" class="cls-13" x="189.79" y="466.56" width="8.88" height="8.88"/><rect id="p8" class="cls-13" x="215.93" y="466.56" width="8.88" height="8.88"/><rect id="p7" class="cls-13" x="245.45" y="466.56" width="8.88" height="8.88"/><rect id="p6" class="cls-13" x="273.91" y="466.56" width="8.88" height="8.88"/><rect id="p5" class="cls-13" x="313.59" y="471" width="8.88" height="8.88"/><rect id="p4" class="cls-13" x="357.99" y="471" width="8.88" height="8.88"/><rect id="p3" class="cls-13" x="397.07" y="471" width="8.88" height="8.88"/><rect id="p2" class="cls-13" x="442.06" y="469.42" width="8.88" height="8.88"/><rect id="p1" class="cls-13" x="479.56" y="469.42" width="8.88" height="8.88"/></g></svg>