<svg id="bfafbad3-013b-477a-bb3a-3c10b53187bf" data-name="ewzo0gE3CV51" xmlns="http://www.w3.org/2000/svg" viewBox="0 0 253.1982 36.0117"><defs><style>.b3b9fbf7-2202-44be-a597-5a8556dd8808{isolation:isolate;}.fab39de9-ec34-4687-a4a1-b63cabbe512a{fill:#2707e6;}.acba85dd-a224-4b8b-84ab-2c748c504213{fill:#050505;}</style></defs><g class="b3b9fbf7-2202-44be-a597-5a8556dd8808"><g class="b3b9fbf7-2202-44be-a597-5a8556dd8808"><path class="fab39de9-ec34-4687-a4a1-b63cabbe512a" d="M2.1533,4.2627h4.336V15.8936A24.13,24.13,0,0,0,6.65,19.4824a3.4731,3.4731,0,0,0,1.3257,2.1162,4.612,4.612,0,0,0,2.8637.7989,4.37,4.37,0,0,0,2.7832-.7539A2.982,2.982,0,0,0,14.751,19.79a24.1666,24.1666,0,0,0,.19-3.6474V4.2627h4.3359V15.542a28.9821,28.9821,0,0,1-.3515,5.4639,6.0476,6.0476,0,0,1-1.2964,2.6953,6.5506,6.5506,0,0,1-2.5269,1.7509,11.0117,11.0117,0,0,1-4.1308.6514,11.9138,11.9138,0,0,1-4.6655-.71,6.6735,6.6735,0,0,1-2.5123-1.8457A5.9189,5.9189,0,0,1,2.5781,21.167a26.0813,26.0813,0,0,1-.4248-5.4492Z" transform="translate(-2.1533 -3.8965)"/><path class="fab39de9-ec34-4687-a4a1-b63cabbe512a" d="M21.665,25.7373l7.3389-11.206-6.65-10.2686h5.0684l4.3066,6.8994,4.2188-6.8994h5.0244l-6.68,10.43,7.3389,11.0449H36.4014l-4.7608-7.4268-4.7754,7.4268Z" transform="translate(-2.1533 -3.8965)"/><path class="fab39de9-ec34-4687-a4a1-b63cabbe512a" d="M43.9746,25.7373V4.4385h4.3359V22.1191H59.0918v3.6182Z" transform="translate(-2.1533 -3.8965)"/></g><g class="b3b9fbf7-2202-44be-a597-5a8556dd8808"><path class="acba85dd-a224-4b8b-84ab-2c748c504213" d="M62.2119,25.7373V4.2627H76.9336V7.8955H66.5479v5.083h8.9648v3.6328H66.5479v9.126Z" transform="translate(-2.1533 -3.8965)"/><path class="acba85dd-a224-4b8b-84ab-2c748c504213" d="M79.6289,15.1318A13.6577,13.6577,0,0,1,80.61,9.624,10.1037,10.1037,0,0,1,82.61,6.68a8.3593,8.3593,0,0,1,2.7758-1.9336,11.79,11.79,0,0,1,4.6289-.85A10.0828,10.0828,0,0,1,97.61,6.8408q2.8491,2.9443,2.8491,8.1885,0,5.2-2.8272,8.1377a10.0044,10.0044,0,0,1-7.5586,2.9365,10.1033,10.1033,0,0,1-7.6171-2.9228Q79.6289,20.26,79.6289,15.1318Zm4.4678-.1464a8.043,8.043,0,0,0,1.6846,5.5292,5.7912,5.7912,0,0,0,8.5327.0157q1.6626-1.8692,1.6626-5.6035,0-3.6915-1.6187-5.5079a5.9977,5.9977,0,0,0-8.6206.0215Q84.0968,11.28,84.0967,14.9854Z" transform="translate(-2.1533 -3.8965)"/><path class="acba85dd-a224-4b8b-84ab-2c748c504213" d="M103.8135,4.2627h4.3359V15.8936a24.13,24.13,0,0,0,.1611,3.5888,3.474,3.474,0,0,0,1.3257,2.1162,4.6125,4.6125,0,0,0,2.8638.7989,4.37,4.37,0,0,0,2.7832-.7539,2.9814,2.9814,0,0,0,1.1279-1.8536,24.15,24.15,0,0,0,.1905-3.6474V4.2627h4.3359V15.542a28.98,28.98,0,0,1-.3516,5.4639,6.0475,6.0475,0,0,1-1.2963,2.6953,6.5506,6.5506,0,0,1-2.5269,1.7509,11.0122,11.0122,0,0,1-4.1309.6514,11.9144,11.9144,0,0,1-4.6655-.71,6.6724,6.6724,0,0,1-2.5122-1.8457,5.9189,5.9189,0,0,1-1.2158-2.3809,26.0813,26.0813,0,0,1-.4248-5.4492Z" transform="translate(-2.1533 -3.8965)"/><path class="acba85dd-a224-4b8b-84ab-2c748c504213" d="M125.5518,25.7373V4.2627h4.2187L138.56,18.6035V4.2627h4.0283V25.7373h-4.3506L129.58,11.7334V25.7373Z" transform="translate(-2.1533 -3.8965)"/><path class="acba85dd-a224-4b8b-84ab-2c748c504213" d="M147.1582,4.2627h7.9248a15.4719,15.4719,0,0,1,4.0869.41A7.18,7.18,0,0,1,162.4072,6.65,9.3827,9.3827,0,0,1,164.458,10.13a15.8437,15.8437,0,0,1,.7031,5.0752,14.1149,14.1149,0,0,1-.6591,4.57,9.4688,9.4688,0,0,1-2.3,3.7939,7.6211,7.6211,0,0,1-3.0468,1.7139,13.12,13.12,0,0,1-3.8379.4541h-8.1592Zm4.3359,3.6328V22.1191h3.2373a11.8162,11.8162,0,0,0,2.6221-.205,4.0011,4.0011,0,0,0,1.75-.8936,4.5443,4.5443,0,0,0,1.1358-2.0723,14.0157,14.0157,0,0,0,.4394-3.9336,12.8316,12.8316,0,0,0-.4394-3.8232,4.9148,4.9148,0,0,0-1.23-2.08,4.127,4.127,0,0,0-2.0068-1.0107,19.66,19.66,0,0,0-3.56-.2051Z" transform="translate(-2.1533 -3.8965)"/><path class="acba85dd-a224-4b8b-84ab-2c748c504213" d="M188.2031,25.7373h-4.7168l-1.875-4.8779h-8.584l-1.7724,4.8779h-4.6L175.02,4.2627h4.585ZM180.22,17.2412l-2.959-7.9687-2.9,7.9687Z" transform="translate(-2.1533 -3.8965)"/><path class="acba85dd-a224-4b8b-84ab-2c748c504213" d="M193.11,25.7373V7.8955h-6.3721V4.2627h17.0654V7.8955h-6.3574V25.7373Z" transform="translate(-2.1533 -3.8965)"/><path class="acba85dd-a224-4b8b-84ab-2c748c504213" d="M206.47,25.7373V4.2627h4.336V25.7373Z" transform="translate(-2.1533 -3.8965)"/><path class="acba85dd-a224-4b8b-84ab-2c748c504213" d="M214.0576,15.1318a13.6577,13.6577,0,0,1,.9815-5.5078,10.0877,10.0877,0,0,1,2-2.9443,8.3468,8.3468,0,0,1,2.7754-1.9336,11.7891,11.7891,0,0,1,4.6289-.85,10.0853,10.0853,0,0,1,7.5957,2.9443q2.8476,2.9443,2.8486,8.1885,0,5.2-2.8272,8.1377a11.291,11.291,0,0,1-15.1757.0137Q214.0576,20.26,214.0576,15.1318Zm4.4678-.1464a8.043,8.043,0,0,0,1.6846,5.5292,5.7907,5.7907,0,0,0,8.5322.0157q1.6626-1.8692,1.6631-5.6035,0-3.6915-1.6182-5.5079a5.9983,5.9983,0,0,0-8.6211.0215Q218.5255,11.28,218.5254,14.9854Z" transform="translate(-2.1533 -3.8965)"/><path class="acba85dd-a224-4b8b-84ab-2c748c504213" d="M238.3154,25.7373V4.2627h4.2188l8.789,14.3408V4.2627h4.0284V25.7373H251.001l-8.6572-14.0039V25.7373Z" transform="translate(-2.1533 -3.8965)"/></g><g class="b3b9fbf7-2202-44be-a597-5a8556dd8808"><path class="fab39de9-ec34-4687-a4a1-b63cabbe512a" d="M67.1289,29.7158h2.0234v5.4278a11.2314,11.2314,0,0,0,.0752,1.6748,1.6214,1.6214,0,0,0,.6187.9873,2.1513,2.1513,0,0,0,1.3364.373,2.0407,2.0407,0,0,0,1.2988-.3516,1.3936,1.3936,0,0,0,.5264-.8652,11.2928,11.2928,0,0,0,.0889-1.7021v-5.544H75.12V34.98a13.5356,13.5356,0,0,1-.164,2.55,2.821,2.821,0,0,1-.605,1.2578,3.0611,3.0611,0,0,1-1.1792.8174,5.1449,5.1449,0,0,1-1.9278.3037,5.5561,5.5561,0,0,1-2.1772-.3311,3.1248,3.1248,0,0,1-1.1724-.8613,2.7659,2.7659,0,0,1-.5674-1.1113,12.1622,12.1622,0,0,1-.1982-2.543Z" transform="translate(-2.1533 -3.8965)"/><path class="fab39de9-ec34-4687-a4a1-b63cabbe512a" d="M83.8428,39.7373H81.9219V36.0322a5.7273,5.7273,0,0,0-.1231-1.5215,1.07,1.07,0,0,0-.4-.5361,1.1405,1.1405,0,0,0-.6665-.1914,1.5381,1.5381,0,0,0-.8955.2734,1.381,1.381,0,0,0-.5434.7247,6.251,6.251,0,0,0-.147,1.6679v3.2881H77.2256v-7.26H79.01v1.0664a2.9769,2.9769,0,0,1,3.5547-1.0019,1.95,1.95,0,0,1,.7963.585,2.1189,2.1189,0,0,1,.376.8066,5.9887,5.9887,0,0,1,.106,1.292Z" transform="translate(-2.1533 -3.8965)"/><path class="fab39de9-ec34-4687-a4a1-b63cabbe512a" d="M85.791,31.4932V29.7158h1.9209v1.7774Zm0,8.2441v-7.26h1.9209v7.26Z" transform="translate(-2.1533 -3.8965)"/><path class="fab39de9-ec34-4687-a4a1-b63cabbe512a" d="M88.84,32.4775h1.0665v-.5468a3.6338,3.6338,0,0,1,.1948-1.3672,1.5364,1.5364,0,0,1,.7177-.7344,2.75,2.75,0,0,1,1.3228-.2842,5.3475,5.3475,0,0,1,1.6064.2461l-.26,1.34a3.7719,3.7719,0,0,0-.8819-.1094.79.79,0,0,0-.5981.1943,1.133,1.133,0,0,0-.1812.749v.5127h1.4356v1.5108H91.8271v5.749H89.9063v-5.749H88.84Z" transform="translate(-2.1533 -3.8965)"/><path class="fab39de9-ec34-4687-a4a1-b63cabbe512a" d="M94.3428,31.4932V29.7158h1.9209v1.7774Zm0,8.2441v-7.26h1.9209v7.26Z" transform="translate(-2.1533 -3.8965)"/><path class="fab39de9-ec34-4687-a4a1-b63cabbe512a" d="M102.4365,37.4268l1.9141.3212a3.1354,3.1354,0,0,1-1.1655,1.6026,3.4219,3.4219,0,0,1-1.9927.5508A3.2474,3.2474,0,0,1,98.39,38.6641a4.1586,4.1586,0,0,1-.7177-2.502,4.01,4.01,0,0,1,.9433-2.8271,3.1089,3.1089,0,0,1,2.3858-1.0215,3.2208,3.2208,0,0,1,2.5566,1.07,4.7313,4.7313,0,0,1,.8955,3.2773H99.6406a1.9459,1.9459,0,0,0,.4649,1.33,1.4551,1.4551,0,0,0,1.1074.4746,1.176,1.176,0,0,0,.7588-.2461A1.5219,1.5219,0,0,0,102.4365,37.4268Zm.1094-1.9414a1.8478,1.8478,0,0,0-.4307-1.2676,1.3191,1.3191,0,0,0-.998-.4346,1.3329,1.3329,0,0,0-1.0391.458,1.7733,1.7733,0,0,0-.4033,1.2442Z" transform="translate(-2.1533 -3.8965)"/><path class="fab39de9-ec34-4687-a4a1-b63cabbe512a" d="M112.6768,39.7373h-1.7842V38.6709a2.8745,2.8745,0,0,1-1.0493.9258,2.69,2.69,0,0,1-1.22.3047,2.7659,2.7659,0,0,1-2.143-1.0078,4.1044,4.1044,0,0,1-.8921-2.8135,4.0515,4.0515,0,0,1,.8682-2.8057,2.8291,2.8291,0,0,1,2.1943-.9609,2.7171,2.7171,0,0,1,2.1055,1.0117V29.7158h1.9209ZM107.55,35.95a3.3234,3.3234,0,0,0,.3213,1.6816,1.4523,1.4523,0,0,0,1.2988.752,1.412,1.412,0,0,0,1.128-.5645,2.6,2.6,0,0,0,.4648-1.6845,2.8511,2.8511,0,0,0-.4512-1.8018,1.4829,1.4829,0,0,0-2.3-.0059A2.4533,2.4533,0,0,0,107.55,35.95Z" transform="translate(-2.1533 -3.8965)"/><path class="fab39de9-ec34-4687-a4a1-b63cabbe512a" d="M126.9912,39.7373H124.79l-.875-2.2764h-4.0058l-.8272,2.2764h-2.1465l3.9034-10.0215h2.14Zm-3.7256-3.9648-1.3808-3.7188-1.3535,3.7188Z" transform="translate(-2.1533 -3.8965)"/><path class="fab39de9-ec34-4687-a4a1-b63cabbe512a" d="M134.3809,34.624l-1.8936.3418a1.369,1.369,0,0,0-.4346-.8545,1.307,1.307,0,0,0-.8779-.2871,1.4377,1.4377,0,0,0-1.1455.4951,2.547,2.547,0,0,0-.4268,1.6582,2.9329,2.9329,0,0,0,.4346,1.8252,1.4242,1.4242,0,0,0,1.165.5332,1.2927,1.2927,0,0,0,.8956-.3115,1.868,1.868,0,0,0,.4921-1.0693l1.8868.3213a3.3462,3.3462,0,0,1-1.128,1.9619,3.49,3.49,0,0,1-2.2353.6631,3.3229,3.3229,0,0,1-2.54-1.0049,3.896,3.896,0,0,1-.9467-2.7822,3.904,3.904,0,0,1,.95-2.7989,3.3741,3.3741,0,0,1,2.57-1.0019,3.5093,3.5093,0,0,1,2.1084.57A3.1659,3.1659,0,0,1,134.3809,34.624Z" transform="translate(-2.1533 -3.8965)"/><path class="fab39de9-ec34-4687-a4a1-b63cabbe512a" d="M142.167,34.624l-1.8936.3418a1.3821,1.3821,0,0,0-.4336-.8545,1.315,1.315,0,0,0-.8789-.2871,1.4342,1.4342,0,0,0-1.1445.4951,2.5412,2.5412,0,0,0-.4277,1.6582,2.94,2.94,0,0,0,.4336,1.8252,1.4261,1.4261,0,0,0,1.166.5332,1.2908,1.2908,0,0,0,.8955-.3115,1.868,1.868,0,0,0,.4922-1.0693l1.8867.3213a3.3466,3.3466,0,0,1-1.1279,1.9619,3.49,3.49,0,0,1-2.2354.6631,3.3259,3.3259,0,0,1-2.54-1.0049,3.8976,3.8976,0,0,1-.9463-2.7822,3.9062,3.9062,0,0,1,.95-2.7989,3.3731,3.3731,0,0,1,2.57-1.0019,3.5126,3.5126,0,0,1,2.1094.57A3.1637,3.1637,0,0,1,142.167,34.624Z" transform="translate(-2.1533 -3.8965)"/><path class="fab39de9-ec34-4687-a4a1-b63cabbe512a" d="M147.8271,37.4268l1.9141.3212a3.1334,3.1334,0,0,1-1.166,1.6026,3.4179,3.4179,0,0,1-1.9922.5508,3.2471,3.2471,0,0,1-2.8027-1.2373,4.1586,4.1586,0,0,1-.7178-2.502,4.01,4.01,0,0,1,.9434-2.8271,3.1079,3.1079,0,0,1,2.3857-1.0215,3.22,3.22,0,0,1,2.5566,1.07,4.7338,4.7338,0,0,1,.8956,3.2773h-4.8125a1.9429,1.9429,0,0,0,.4648,1.33,1.4551,1.4551,0,0,0,1.1074.4746,1.176,1.176,0,0,0,.7588-.2461A1.518,1.518,0,0,0,147.8271,37.4268Zm.1094-1.9414a1.8478,1.8478,0,0,0-.4306-1.2676,1.3856,1.3856,0,0,0-2.0371.0234,1.77,1.77,0,0,0-.4034,1.2442Z" transform="translate(-2.1533 -3.8965)"/><path class="fab39de9-ec34-4687-a4a1-b63cabbe512a" d="M151.4092,39.7373V29.7158H153.33V39.7373Z" transform="translate(-2.1533 -3.8965)"/><path class="fab39de9-ec34-4687-a4a1-b63cabbe512a" d="M159.5029,37.4268l1.9141.3212a3.1334,3.1334,0,0,1-1.166,1.6026,3.4181,3.4181,0,0,1-1.9922.5508,3.2471,3.2471,0,0,1-2.8027-1.2373,4.1579,4.1579,0,0,1-.7178-2.502,4.01,4.01,0,0,1,.9433-2.8271,3.1081,3.1081,0,0,1,2.3858-1.0215,3.22,3.22,0,0,1,2.5566,1.07,4.7338,4.7338,0,0,1,.8955,3.2773H156.707a1.9483,1.9483,0,0,0,.4649,1.33,1.4536,1.4536,0,0,0,1.1074.4746,1.176,1.176,0,0,0,.7588-.2461A1.5186,1.5186,0,0,0,159.5029,37.4268Zm.1094-1.9414a1.8478,1.8478,0,0,0-.4307-1.2676,1.32,1.32,0,0,0-.998-.4346,1.3335,1.3335,0,0,0-1.0391.458,1.7709,1.7709,0,0,0-.4033,1.2442Z" transform="translate(-2.1533 -3.8965)"/><path class="fab39de9-ec34-4687-a4a1-b63cabbe512a" d="M164.9238,39.7373h-1.9209v-7.26h1.7842V33.51a3.1122,3.1122,0,0,1,.8242-.9639,1.51,1.51,0,0,1,.83-.2324,2.4406,2.4406,0,0,1,1.2647.3623l-.5948,1.6748a1.6806,1.6806,0,0,0-.9023-.3145,1.0648,1.0648,0,0,0-.6836.2227,1.5176,1.5176,0,0,0-.4414.8027,11.4631,11.4631,0,0,0-.16,2.4336Z" transform="translate(-2.1533 -3.8965)"/><path class="fab39de9-ec34-4687-a4a1-b63cabbe512a" d="M169.9688,34.6924l-1.7432-.3145a2.7151,2.7151,0,0,1,1.0117-1.5586,3.705,3.705,0,0,1,2.1328-.5058,4.5888,4.5888,0,0,1,1.9141.3047,1.9026,1.9026,0,0,1,.8847.7714,3.9477,3.9477,0,0,1,.2569,1.72l-.02,2.2422a7.8744,7.8744,0,0,0,.0918,1.4111,4.1485,4.1485,0,0,0,.3457.9746h-1.9c-.05-.1279-.1113-.3164-.1846-.5674-.0322-.1142-.0547-.1894-.0683-.2256a3.4483,3.4483,0,0,1-1.0528.7178,3.0214,3.0214,0,0,1-1.1963.2393,2.4788,2.4788,0,0,1-1.7675-.6084,2.0245,2.0245,0,0,1-.6456-1.5381,2.0659,2.0659,0,0,1,.294-1.0977,1.9347,1.9347,0,0,1,.8242-.7383,6.4921,6.4921,0,0,1,1.5274-.4472A10.5471,10.5471,0,0,0,172.5391,35v-.1914a.996.996,0,0,0-.2735-.79,1.6456,1.6456,0,0,0-1.0322-.2354,1.3718,1.3718,0,0,0-.8.2022A1.3954,1.3954,0,0,0,169.9688,34.6924Zm2.57,1.5586q-.3691.123-1.169.2939a3.5316,3.5316,0,0,0-1.0459.335.8.8,0,0,0-.376.6767.9445.9445,0,0,0,.3008.6973,1.0488,1.0488,0,0,0,.7656.294,1.6656,1.6656,0,0,0,.9913-.3418,1.2031,1.2031,0,0,0,.458-.6358,3.811,3.811,0,0,0,.0752-.9365Z" transform="translate(-2.1533 -3.8965)"/><path class="fab39de9-ec34-4687-a4a1-b63cabbe512a" d="M179.6484,32.4775v1.5313h-1.3125v2.9258a7.4147,7.4147,0,0,0,.0371,1.0351.419.419,0,0,0,.1719.2432.54.54,0,0,0,.3242.0957,2.4814,2.4814,0,0,0,.7725-.1846l.1641,1.49a3.8165,3.8165,0,0,1-1.5176.2871,2.4235,2.4235,0,0,1-.9365-.1739,1.371,1.371,0,0,1-.6114-.4511,1.7716,1.7716,0,0,1-.27-.7491,9.3205,9.3205,0,0,1-.0615-1.3535v-3.165h-.8818V32.4775h.8818V31.0352l1.9277-1.1211v2.5634Z" transform="translate(-2.1533 -3.8965)"/><path class="fab39de9-ec34-4687-a4a1-b63cabbe512a" d="M180.9814,31.4932V29.7158h1.9209v1.7774Zm0,8.2441v-7.26h1.9209v7.26Z" transform="translate(-2.1533 -3.8965)"/><path class="fab39de9-ec34-4687-a4a1-b63cabbe512a" d="M184.4268,36.0049a3.9279,3.9279,0,0,1,.4716-1.8526,3.2369,3.2369,0,0,1,1.337-1.3671,3.9624,3.9624,0,0,1,1.9306-.4717,3.6223,3.6223,0,0,1,2.7,1.07,3.6934,3.6934,0,0,1,1.0527,2.7031,3.74,3.74,0,0,1-1.0625,2.73,3.594,3.594,0,0,1-2.6767,1.084,4.2132,4.2132,0,0,1-1.9033-.4512,3.0973,3.0973,0,0,1-1.378-1.3223A4.4121,4.4121,0,0,1,184.4268,36.0049Zm1.9687.1025a2.4058,2.4058,0,0,0,.5127,1.6543,1.6766,1.6766,0,0,0,2.5264,0,2.4413,2.4413,0,0,0,.5088-1.6679,2.3974,2.3974,0,0,0-.5088-1.6407,1.6766,1.6766,0,0,0-2.5264,0A2.4058,2.4058,0,0,0,186.3955,36.1074Z" transform="translate(-2.1533 -3.8965)"/><path class="fab39de9-ec34-4687-a4a1-b63cabbe512a" d="M200.0264,39.7373h-1.9209V36.0322a5.7273,5.7273,0,0,0-.1231-1.5215,1.0647,1.0647,0,0,0-.4-.5361,1.137,1.137,0,0,0-.666-.1914,1.5381,1.5381,0,0,0-.8955.2734,1.3819,1.3819,0,0,0-.5439.7247,6.2787,6.2787,0,0,0-.1465,1.6679v3.2881h-1.9209v-7.26h1.7842v1.0664a2.9768,2.9768,0,0,1,3.5546-1.0019,1.9579,1.9579,0,0,1,.7969.585,2.1171,2.1171,0,0,1,.375.8066,5.9508,5.9508,0,0,1,.1065,1.292Z" transform="translate(-2.1533 -3.8965)"/></g></g></svg>