<svg xmlns="http://www.w3.org/2000/svg" viewBox="0 0 108.1338 25.6138"><defs><style>.e7feb363-5813-47f5-aabf-89293add1bad{fill:#1d1d1b;}</style></defs><g id="fccbba8b-e315-437a-a5a9-b522cc9404d4" data-name="Layer 1"><path class="e7feb363-5813-47f5-aabf-89293add1bad" d="M3.8438,13.5381v1.8281H3.65a2.3757,2.3757,0,0,0-.5713-1.1719,1.2848,1.2848,0,0,0-.8877-.31.98.98,0,0,0-.6621.2168.6288.6288,0,0,0-.252.48.8727.8727,0,0,0,.1875.5625,2.0861,2.0861,0,0,0,.7383.51l.8555.416A1.7387,1.7387,0,0,1,4.248,17.5986,1.4462,1.4462,0,0,1,3.6943,18.78a1.92,1.92,0,0,1-1.2392.4482,4.2623,4.2623,0,0,1-1.125-.1758,1.1451,1.1451,0,0,0-.3164-.0585.233.233,0,0,0-.211.1523H.6094V17.23H.8027a2.1807,2.1807,0,0,0,.627,1.2363,1.5109,1.5109,0,0,0,1.0371.4165.9288.9288,0,0,0,.6592-.2373.7547.7547,0,0,0,.2549-.5718.9089.9089,0,0,0-.2842-.68,4.9627,4.9627,0,0,0-1.1338-.6973A3.3614,3.3614,0,0,1,.85,15.9346a1.32,1.32,0,0,1-.2637-.8438A1.4885,1.4885,0,0,1,1.04,13.9834a1.6069,1.6069,0,0,1,1.1748-.4453,2.7591,2.7591,0,0,1,.7676.1348,1.8169,1.8169,0,0,0,.3985.0878.2326.2326,0,0,0,.1464-.041.5618.5618,0,0,0,.1231-.1816Z" transform="translate(-0.5859 -1.8457)"/><path class="e7feb363-5813-47f5-aabf-89293add1bad" d="M4.6582,14.23l1.6523-.668h.2227v1.2539a3.0415,3.0415,0,0,1,.835-.9931,1.5457,1.5457,0,0,1,.8818-.2842,1.6982,1.6982,0,0,1,1.3477.6328,2.991,2.991,0,0,1,.6621,2.0156,3.3558,3.3558,0,0,1-.7969,2.2969,2.1083,2.1083,0,0,1-1.6524.7446,2.0679,2.0679,0,0,1-.75-.123,1.757,1.757,0,0,1-.5273-.3516v1.6348a2.1774,2.1774,0,0,0,.0674.7.5007.5007,0,0,0,.2344.2373,1.44,1.44,0,0,0,.6064.0879V21.63H4.6289v-.2168h.1465a1.0636,1.0636,0,0,0,.5508-.1231.4212.4212,0,0,0,.1728-.208,2.4954,2.4954,0,0,0,.0615-.7295V15.2783a2.7659,2.7659,0,0,0-.0468-.6621.3984.3984,0,0,0-.1494-.2109.4854.4854,0,0,0-.2784-.07,1.0594,1.0594,0,0,0-.3574.082Zm1.875.9316V17.165a4.3024,4.3024,0,0,0,.0527.8555,1.0989,1.0989,0,0,0,.4014.5982,1.242,1.242,0,0,0,.8057.2578,1.1543,1.1543,0,0,0,.9492-.4576,2.6427,2.6427,0,0,0,.4746-1.6816,2.9285,2.9285,0,0,0-.5391-1.8926,1.1212,1.1212,0,0,0-.8906-.457,1.2132,1.2132,0,0,0-.5566.1406A3.2656,3.2656,0,0,0,6.5332,15.1611Z" transform="translate(-0.5859 -1.8457)"/><path class="e7feb363-5813-47f5-aabf-89293add1bad" d="M11.9473,15.7178a2.7571,2.7571,0,0,0,.58,1.875,1.7693,1.7693,0,0,0,1.377.68,1.493,1.493,0,0,0,.917-.29,2.14,2.14,0,0,0,.6533-.9931l.1817.1171a2.7976,2.7976,0,0,1-.7149,1.4624,1.9087,1.9087,0,0,1-1.4824.6592,2.1636,2.1636,0,0,1-1.6553-.7534,2.8839,2.8839,0,0,1-.6885-2.0244,3.061,3.061,0,0,1,.7061-2.1475,2.3029,2.3029,0,0,1,1.7725-.7705,1.9814,1.9814,0,0,1,1.4824.5948,2.18,2.18,0,0,1,.58,1.5908Zm0-.34h2.4843a2.2958,2.2958,0,0,0-.123-.7265,1.1641,1.1641,0,0,0-.4365-.5157,1.1007,1.1007,0,0,0-.6065-.1875,1.2087,1.2087,0,0,0-.87.378A1.6391,1.6391,0,0,0,11.9473,15.3779Z" transform="translate(-0.5859 -1.8457)"/><path class="e7feb363-5813-47f5-aabf-89293add1bad" d="M17.2734,15.7178a2.7572,2.7572,0,0,0,.58,1.875,1.7691,1.7691,0,0,0,1.377.68,1.4932,1.4932,0,0,0,.917-.29,2.141,2.141,0,0,0,.6533-.9931l.1816.1171a2.7967,2.7967,0,0,1-.7148,1.4624,1.9089,1.9089,0,0,1-1.4824.6592,2.1634,2.1634,0,0,1-1.6553-.7534,2.8839,2.8839,0,0,1-.6885-2.0244,3.061,3.061,0,0,1,.7061-2.1475,2.3029,2.3029,0,0,1,1.7724-.7705,1.9812,1.9812,0,0,1,1.4824.5948,2.18,2.18,0,0,1,.58,1.5908Zm0-.34h2.4844a2.2958,2.2958,0,0,0-.123-.7265,1.1637,1.1637,0,0,0-.4366-.5157,1.1,1.1,0,0,0-.6064-.1875,1.2085,1.2085,0,0,0-.87.378A1.64,1.64,0,0,0,17.2734,15.3779Z" transform="translate(-0.5859 -1.8457)"/><path class="e7feb363-5813-47f5-aabf-89293add1bad" d="M25.4883,18.46a2.7035,2.7035,0,0,1-.7676.5893,1.8544,1.8544,0,0,1-.8086.1787,2,2,0,0,1-1.5351-.7358,2.7313,2.7313,0,0,1-.6563-1.89,3.4159,3.4159,0,0,1,.7266-2.1123,2.2461,2.2461,0,0,1,1.8691-.958,1.61,1.61,0,0,1,1.1719.4512v-.99a8.0965,8.0965,0,0,0-.044-1.1309.4929.4929,0,0,0-.1377-.2871.3594.3594,0,0,0-.2343-.0762,1.2346,1.2346,0,0,0-.4043.0938l-.0762-.2051,1.6-.6563h.2637v6.2051a8.3055,8.3055,0,0,0,.0439,1.1514.5108.5108,0,0,0,.1406.29.3382.3382,0,0,0,.2256.0821,1.2747,1.2747,0,0,0,.4219-.1l.0645.2055-1.5938.6621h-.27Zm0-.41V15.2842a1.8707,1.8707,0,0,0-.211-.7266,1.2158,1.2158,0,0,0-.4658-.4951,1.1307,1.1307,0,0,0-.5654-.167,1.1988,1.1988,0,0,0-.92.4629A2.63,2.63,0,0,0,22.793,16.14a2.798,2.798,0,0,0,.5156,1.8135,1.4789,1.4789,0,0,0,1.1484.63A1.4271,1.4271,0,0,0,25.4883,18.05Z" transform="translate(-0.5859 -1.8457)"/><path class="e7feb363-5813-47f5-aabf-89293add1bad" d="M32.4023,13.6963v3.2519a8.16,8.16,0,0,0,.044,1.14.5108.5108,0,0,0,.1406.29.3382.3382,0,0,0,.2256.0821,1.0434,1.0434,0,0,0,.41-.1l.082.2055-1.6055.6621h-.2637V18.0908a4.8835,4.8835,0,0,1-1.0546.9439,1.6109,1.6109,0,0,1-.7676.1933,1.2266,1.2266,0,0,1-.7822-.2607,1.3474,1.3474,0,0,1-.46-.6714,4.057,4.057,0,0,1-.1289-1.16V14.7393a1.1828,1.1828,0,0,0-.082-.5274.5467.5467,0,0,0-.2432-.2256,1.429,1.429,0,0,0-.583-.0732v-.2168h1.8808v3.5918a1.3419,1.3419,0,0,0,.2608.9844.9093.9093,0,0,0,.63.2343,1.3128,1.3128,0,0,0,.5713-.1582,3.09,3.09,0,0,0,.7587-.6035v-3.041a.8616.8616,0,0,0-.1669-.6182,1.0825,1.0825,0,0,0-.6944-.1728v-.2168Z" transform="translate(-0.5859 -1.8457)"/><path class="e7feb363-5813-47f5-aabf-89293add1bad" d="M33.3105,14.23l1.6524-.668h.2226v1.2539a3.0483,3.0483,0,0,1,.8345-.9931,1.5487,1.5487,0,0,1,.8828-.2842,1.6982,1.6982,0,0,1,1.3477.6328,2.991,2.991,0,0,1,.6621,2.0156,3.3553,3.3553,0,0,1-.7969,2.2969,2.1082,2.1082,0,0,1-1.6523.7446,2.0671,2.0671,0,0,1-.75-.123,1.7635,1.7635,0,0,1-.5279-.3516v1.6348a2.1774,2.1774,0,0,0,.0674.7.5.5,0,0,0,.2339.2373,1.4463,1.4463,0,0,0,.6074.0879V21.63H33.2813v-.2168h.1464a1.0632,1.0632,0,0,0,.5508-.1231.4213.4213,0,0,0,.1729-.208,2.4954,2.4954,0,0,0,.0615-.7295V15.2783a2.7583,2.7583,0,0,0-.0469-.6621.3974.3974,0,0,0-.1494-.2109.485.485,0,0,0-.2783-.07,1.0589,1.0589,0,0,0-.3574.082Zm1.875.9316V17.165a4.2917,4.2917,0,0,0,.0528.8555,1.098,1.098,0,0,0,.4009.5982,1.2445,1.2445,0,0,0,.8066.2578,1.1543,1.1543,0,0,0,.9492-.4576,2.6427,2.6427,0,0,0,.4746-1.6816,2.9291,2.9291,0,0,0-.539-1.8926,1.1214,1.1214,0,0,0-.8907-.457,1.2132,1.2132,0,0,0-.5566.1406A3.2812,3.2812,0,0,0,35.1855,15.1611Z" transform="translate(-0.5859 -1.8457)"/><path class="e7feb363-5813-47f5-aabf-89293add1bad" d="M42.54,13.89h6.3222V14.37H42.54Zm0,1.91h6.3222V16.28H42.54Z" transform="translate(-0.5859 -1.8457)"/></g><g id="b150d53d-8ce5-456e-a829-00fc68ddf537" data-name="Layer 2"><path class="e7feb363-5813-47f5-aabf-89293add1bad" d="M61.0767,2.8418V4.6055h1.2539v.41H61.0767V8.4961a1.1688,1.1688,0,0,0,.1494.7031.4746.4746,0,0,0,.3838.1817.6712.6712,0,0,0,.375-.12.7719.7719,0,0,0,.2812-.3544h.2285a1.8383,1.8383,0,0,1-.58.8642,1.2515,1.2515,0,0,1-.7735.29,1.04,1.04,0,0,1-.5273-.1494.9031.9031,0,0,1-.3809-.4277,2.2463,2.2463,0,0,1-.123-.8584V5.0156h-.85V4.8223a2.2261,2.2261,0,0,0,.6591-.4366,3.47,3.47,0,0,0,.6006-.7294,6.5538,6.5538,0,0,0,.375-.8145Z" transform="translate(-0.5859 -1.8457)"/><path class="e7feb363-5813-47f5-aabf-89293add1bad" d="M62.522,6.8418h1.3125v.1265a.43.43,0,0,0-.2383.0649.19.19,0,0,0-.0566.147.7291.7291,0,0,0,.0585.2563l.67,1.8013.6738-1.4663L64.7642,7.31a.55.55,0,0,0-.2159-.2837.6281.6281,0,0,0-.28-.0581V6.8418h1.49v.1265a.6326.6326,0,0,0-.3486.0888.21.21,0,0,0-.0684.1743.3852.3852,0,0,0,.0274.14L66.08,9.1694l.6592-1.7329a.8974.8974,0,0,0,.0683-.2939.1442.1442,0,0,0-.0664-.1162.4854.4854,0,0,0-.2617-.0581V6.8418h.9883v.1265a.5637.5637,0,0,0-.4375.4033l-1.0459,2.6968h-.14l-.7832-2-.9121,2H64.022L63.0171,7.4365A.96.96,0,0,0,62.8228,7.1a.66.66,0,0,0-.3008-.1313Z" transform="translate(-0.5859 -1.8457)"/><path class="e7feb363-5813-47f5-aabf-89293add1bad" d="M68.8315,6.75V9.2651a1.1528,1.1528,0,0,0,.043.3912.2969.2969,0,0,0,.126.1455.68.68,0,0,0,.3057.0478v.1231H67.7856V9.85a.7078.7078,0,0,0,.3077-.0444.3072.3072,0,0,0,.125-.147,1.1194,1.1194,0,0,0,.0459-.3931V8.0586a4.43,4.43,0,0,0-.03-.66.2652.2652,0,0,0-.0762-.1518.2069.2069,0,0,0-.14-.043.6846.6846,0,0,0-.2325.0513l-.0478-.1231.9434-.3828Zm-.2832-1.6372a.3435.3435,0,0,1,.3448.3452.3375.3375,0,0,1-.1006.2461.33.33,0,0,1-.2442.1026.347.347,0,1,1,0-.6939Z" transform="translate(-0.5859 -1.8457)"/><path class="e7feb363-5813-47f5-aabf-89293add1bad" d="M70.605,5.813V6.8418h.7314v.2393H70.605v2.03a.6867.6867,0,0,0,.0869.41.2775.2775,0,0,0,.2246.1059.3979.3979,0,0,0,.2188-.07.4551.4551,0,0,0,.164-.207h.1328a1.0737,1.0737,0,0,1-.3379.5039.73.73,0,0,1-.4511.1694.6045.6045,0,0,1-.3086-.0874.5271.5271,0,0,1-.2217-.249,1.3127,1.3127,0,0,1-.0713-.501V7.0811h-.4961V6.9683a1.3141,1.3141,0,0,0,.3848-.2544,2.015,2.015,0,0,0,.35-.4258,3.6792,3.6792,0,0,0,.2187-.4751Z" transform="translate(-0.5859 -1.8457)"/><path class="e7feb363-5813-47f5-aabf-89293add1bad" d="M72.56,5.1123v2.29a2.6248,2.6248,0,0,1,.6015-.5351A.9425.9425,0,0,1,73.605,6.75a.7323.7323,0,0,1,.459.147.8731.8731,0,0,1,.2832.4614,3.2981,3.2981,0,0,1,.0644.8V9.2651a1.144,1.144,0,0,0,.0488.4068.2633.2633,0,0,0,.1153.13.6585.6585,0,0,0,.3008.0478v.1231H73.3394V9.85h.0712a.5152.5152,0,0,0,.3038-.0664.3518.3518,0,0,0,.12-.1968,2.6756,2.6756,0,0,0,.0107-.3213V8.1577a2.6533,2.6533,0,0,0-.0537-.6733.4565.4565,0,0,0-.1689-.2412.4819.4819,0,0,0-.28-.08.7946.7946,0,0,0-.3486.0889,1.6382,1.6382,0,0,0-.4336.3588V9.2651a1.3139,1.3139,0,0,0,.0351.4.296.296,0,0,0,.1338.1319.7637.7637,0,0,0,.3369.0527v.1231H71.5132V9.85a.688.688,0,0,0,.3281-.0649.243.243,0,0,0,.1094-.13,1.1835,1.1835,0,0,0,.041-.39V6.4316a4.6533,4.6533,0,0,0-.0254-.66.293.293,0,0,0-.0781-.1675.2139.2139,0,0,0-.1426-.0444.8372.8372,0,0,0-.2324.0546l-.0469-.12.9356-.3828Z" transform="translate(-0.5859 -1.8457)"/><path class="e7feb363-5813-47f5-aabf-89293add1bad" d="M76.6714,6.75a1.3883,1.3883,0,0,1,1.1416.54,1.6566,1.6566,0,0,1,.3662,1.06,1.9922,1.9922,0,0,1-.2021.8511,1.4331,1.4331,0,0,1-1.3428.8682,1.3266,1.3266,0,0,1-1.125-.564,1.75,1.75,0,0,1-.3516-1.0664,1.8864,1.8864,0,0,1,.2129-.856,1.4568,1.4568,0,0,1,.5625-.6289A1.4415,1.4415,0,0,1,76.6714,6.75Zm-.1055.2222a.717.717,0,0,0-.3642.1074.7567.7567,0,0,0-.2959.3779,1.817,1.817,0,0,0-.1133.6939A2.4137,2.4137,0,0,0,76.0649,9.33a.8084.8084,0,0,0,.7159.4956.6678.6678,0,0,0,.5468-.2735,1.5538,1.5538,0,0,0,.2149-.94A2.1425,2.1425,0,0,0,77.1841,7.3.74.74,0,0,0,76.5659,6.9717Z" transform="translate(-0.5859 -1.8457)"/><path class="e7feb363-5813-47f5-aabf-89293add1bad" d="M81.3843,6.8418v1.897a4.6388,4.6388,0,0,0,.0263.6645.2918.2918,0,0,0,.0821.17.1965.1965,0,0,0,.1318.0478.6041.6041,0,0,0,.2383-.0581l.0488.12-.9375.3863h-.1533V9.4053a2.8429,2.8429,0,0,1-.6152.55.94.94,0,0,1-.4483.1128.7153.7153,0,0,1-.456-.1524.7874.7874,0,0,1-.2686-.3911,2.3856,2.3856,0,0,1-.0742-.6768V7.45a.6823.6823,0,0,0-.0488-.3076.3178.3178,0,0,0-.1416-.1319.8389.8389,0,0,0-.34-.0424V6.8418h1.0967V8.937a.7825.7825,0,0,0,.1523.5742.5312.5312,0,0,0,.3672.1367.7656.7656,0,0,0,.334-.0922,1.8038,1.8038,0,0,0,.4424-.3521V7.43a.4988.4988,0,0,0-.0977-.36.6276.6276,0,0,0-.4052-.101V6.8418Z" transform="translate(-0.5859 -1.8457)"/><path class="e7feb363-5813-47f5-aabf-89293add1bad" d="M83.0493,5.813V6.8418h.7315v.2393h-.7315v2.03a.6867.6867,0,0,0,.0869.41.2775.2775,0,0,0,.2246.1059.3977.3977,0,0,0,.2188-.07.456.456,0,0,0,.1641-.207h.1328a1.0744,1.0744,0,0,1-.3379.5039.73.73,0,0,1-.4512.1694.6045.6045,0,0,1-.3086-.0874.5276.5276,0,0,1-.2217-.249,1.3147,1.3147,0,0,1-.0713-.501V7.0811H81.99V6.9683a1.3128,1.3128,0,0,0,.3848-.2544,2.0089,2.0089,0,0,0,.35-.4258,3.6759,3.6759,0,0,0,.2188-.4751Z" transform="translate(-0.5859 -1.8457)"/><path class="e7feb363-5813-47f5-aabf-89293add1bad" d="M90.7456,7.7754l.1934.041-.68,2.1563H84.1069V9.7559h.2989a.799.799,0,0,0,.7207-.3282,1.892,1.892,0,0,0,.123-.8672V3.4336a1.64,1.64,0,0,0-.1641-.9316.8606.8606,0,0,0-.68-.2579h-.2989V2.0273h3.5977v.2168a2.1957,2.1957,0,0,0-.8877.1172.7171.7171,0,0,0-.3486.3106,2.5561,2.5561,0,0,0-.0938.8965V8.5605a1.6239,1.6239,0,0,0,.0938.668.4187.4187,0,0,0,.2168.1817,3.8062,3.8062,0,0,0,.914.0586h.58a4.2039,4.2039,0,0,0,1.2832-.1348,1.6705,1.6705,0,0,0,.6738-.4776A3.91,3.91,0,0,0,90.7456,7.7754Z" transform="translate(-0.5859 -1.8457)"/><path class="e7feb363-5813-47f5-aabf-89293add1bad" d="M91.4019,9.9727V9.7559h.2988a.7893.7893,0,0,0,.7148-.3223,1.8358,1.8358,0,0,0,.1289-.8672V3.4336a1.6407,1.6407,0,0,0-.164-.9316.8609.8609,0,0,0-.68-.2579h-.2988V2.0273h3.2343a7.0639,7.0639,0,0,1,2.71.4043A3.2245,3.2245,0,0,1,98.84,3.7793a4.1569,4.1569,0,0,1,.5655,2.18,3.9755,3.9755,0,0,1-1.0079,2.7715,4.4332,4.4332,0,0,1-3.4453,1.2422Zm2.2675-.5743a5.983,5.983,0,0,0,1.2481.1641,2.9629,2.9629,0,0,0,2.2558-.9551,3.6317,3.6317,0,0,0,.8965-2.59,3.6273,3.6273,0,0,0-.8965-2.5957,3.0264,3.0264,0,0,0-2.3027-.9492,4.975,4.975,0,0,0-1.2012.17Z" transform="translate(-0.5859 -1.8457)"/><path class="e7feb363-5813-47f5-aabf-89293add1bad" d="M107.228,1.8457l.2051,2.5078h-.2051a3.4292,3.4292,0,0,0-.8027-1.4121,2.513,2.513,0,0,0-1.8223-.6855,2.5918,2.5918,0,0,0-2.3086,1.2011,4.3157,4.3157,0,0,0-.6621,2.4141,4.8259,4.8259,0,0,0,.4395,2.0742,3.0841,3.0841,0,0,0,1.1513,1.374,2.7632,2.7632,0,0,0,1.462.4366,3.2263,3.2263,0,0,0,.85-.1114,3.3894,3.3894,0,0,0,.791-.3281V7.02a2.1252,2.1252,0,0,0-.0908-.7822.6131.6131,0,0,0-.2813-.2812,1.6256,1.6256,0,0,0-.6709-.0967V5.6367h3.0762v.2227h-.1465a.6538.6538,0,0,0-.627.3047,2.0585,2.0585,0,0,0-.1171.8554V9.4512a5.955,5.955,0,0,1-1.33.5332,5.82,5.82,0,0,1-1.459.17,4.2359,4.2359,0,0,1-3.498-1.4766,3.9433,3.9433,0,0,1-.8965-2.5547,4.27,4.27,0,0,1,.5039-2.01,4.3019,4.3019,0,0,1,1.6406-1.7578,4.0174,4.0174,0,0,1,2.0625-.51,4.0606,4.0606,0,0,1,.7881.07,7.2027,7.2027,0,0,1,1.0049.3106,1.6213,1.6213,0,0,0,.4394.123.2347.2347,0,0,0,.19-.1025.784.784,0,0,0,.0966-.4014Z" transform="translate(-0.5859 -1.8457)"/><path class="e7feb363-5813-47f5-aabf-89293add1bad" d="M64.6294,20.147v1.7636h1.2539v.41H64.6294v3.4805a1.169,1.169,0,0,0,.1494.7031.4745.4745,0,0,0,.3838.1816.6711.6711,0,0,0,.375-.12.7721.7721,0,0,0,.2812-.3545h.2286a1.8394,1.8394,0,0,1-.58.8643,1.2519,1.2519,0,0,1-.7735.29,1.04,1.04,0,0,1-.5273-.1494.9037.9037,0,0,1-.3809-.4277,2.2467,2.2467,0,0,1-.123-.8584V22.3208h-.85v-.1934a2.224,2.224,0,0,0,.6592-.4365,3.471,3.471,0,0,0,.6006-.7295,6.5735,6.5735,0,0,0,.375-.8144Z" transform="translate(-0.5859 -1.8457)"/><path class="e7feb363-5813-47f5-aabf-89293add1bad" d="M66.0747,24.147h1.3125v.1269a.4273.4273,0,0,0-.2383.0645.19.19,0,0,0-.0566.1474.7249.7249,0,0,0,.0586.2559l.67,1.8018.6738-1.4668-.1777-.461a.5547.5547,0,0,0-.2158-.2842.64.64,0,0,0-.28-.0576V24.147h1.49v.1269a.63.63,0,0,0-.3486.0889.2083.2083,0,0,0-.0684.1738.3853.3853,0,0,0,.0274.1406l.7109,1.7979.6592-1.7334a.8953.8953,0,0,0,.0684-.2939.1452.1452,0,0,0-.0664-.1163.4833.4833,0,0,0-.2618-.0576V24.147H71.02v.1269a.5635.5635,0,0,0-.4375.4033l-1.0459,2.6963h-.14l-.7832-1.999-.9121,1.999h-.127L66.57,24.7417a.9633.9633,0,0,0-.1943-.3369.6554.6554,0,0,0-.3008-.1309Z" transform="translate(-0.5859 -1.8457)"/><path class="e7feb363-5813-47f5-aabf-89293add1bad" d="M72.3843,24.0552v2.5156a1.1509,1.1509,0,0,0,.0429.3906.2949.2949,0,0,0,.126.1455.6716.6716,0,0,0,.3057.0479v.123H71.3384v-.123a.7168.7168,0,0,0,.3076-.044.3106.3106,0,0,0,.125-.1474,1.1156,1.1156,0,0,0,.0459-.3926v-1.207a4.4075,4.4075,0,0,0-.03-.6592.2655.2655,0,0,0-.0762-.1524.2093.2093,0,0,0-.14-.0429.6879.6879,0,0,0-.2324.0517l-.0479-.123.9434-.3828Zm-.2832-1.6377a.3473.3473,0,0,1,.2441.5918.33.33,0,0,1-.2441.1025.348.348,0,0,1-.2481-.5937A.34.34,0,0,1,72.1011,22.4175Z" transform="translate(-0.5859 -1.8457)"/><path class="e7feb363-5813-47f5-aabf-89293add1bad" d="M74.1577,23.1187V24.147h.7315v.2392h-.7315v2.03a.685.685,0,0,0,.0869.41.2768.2768,0,0,0,.2246.1064.3944.3944,0,0,0,.2188-.07.4533.4533,0,0,0,.1641-.207h.1328a1.0719,1.0719,0,0,1-.3379.5039.7315.7315,0,0,1-.4512.17.6052.6052,0,0,1-.3086-.0879.5253.5253,0,0,1-.2217-.249,1.3147,1.3147,0,0,1-.0713-.501V24.3862h-.4961v-.1123a1.3233,1.3233,0,0,0,.3848-.2549,2.0083,2.0083,0,0,0,.35-.4257,3.6735,3.6735,0,0,0,.2188-.4746Z" transform="translate(-0.5859 -1.8457)"/><path class="e7feb363-5813-47f5-aabf-89293add1bad" d="M76.1128,22.4175v2.29a2.6352,2.6352,0,0,1,.6016-.5351.94.94,0,0,1,.4433-.1172.7348.7348,0,0,1,.459.1465.8735.8735,0,0,1,.2832.4619,3.2857,3.2857,0,0,1,.0645.8v1.1074a1.1392,1.1392,0,0,0,.0488.4063.26.26,0,0,0,.1152.13.65.65,0,0,0,.3008.0479v.123H76.8921v-.123h.0713a.5151.5151,0,0,0,.3037-.0664.3525.3525,0,0,0,.12-.1963,2.683,2.683,0,0,0,.0107-.3213V25.4634a2.6609,2.6609,0,0,0-.0537-.6738.4586.4586,0,0,0-.1689-.2413.4862.4862,0,0,0-.28-.08.8017.8017,0,0,0-.3486.0888,1.6444,1.6444,0,0,0-.4336.3594v1.6543a1.31,1.31,0,0,0,.0351.3994.2923.2923,0,0,0,.1338.1319.7639.7639,0,0,0,.337.0527v.123H75.0659v-.123a.693.693,0,0,0,.3281-.0645.246.246,0,0,0,.1094-.13,1.1837,1.1837,0,0,0,.041-.39v-2.834a4.652,4.652,0,0,0-.0254-.6592.2955.2955,0,0,0-.0781-.1679.2163.2163,0,0,0-.1426-.044.8209.8209,0,0,0-.2324.0547l-.0469-.12.9356-.3828Z" transform="translate(-0.5859 -1.8457)"/><path class="e7feb363-5813-47f5-aabf-89293add1bad" d="M85.353,25.0806l.1934.041-.68,2.1562H78.7144V27.061h.2988a.7988.7988,0,0,0,.7207-.3281,1.8923,1.8923,0,0,0,.123-.8672V20.7388a1.6411,1.6411,0,0,0-.164-.9317.8611.8611,0,0,0-.68-.2578h-.2988v-.2168H82.312v.2168a2.1957,2.1957,0,0,0-.8877.1172.7166.7166,0,0,0-.3486.3106,2.5558,2.5558,0,0,0-.0938.8964v4.9922a1.6242,1.6242,0,0,0,.0938.668.4185.4185,0,0,0,.2168.1816,3.8,3.8,0,0,0,.914.0586h.58a4.2047,4.2047,0,0,0,1.2832-.1347,1.6725,1.6725,0,0,0,.6739-.4776A3.9128,3.9128,0,0,0,85.353,25.0806Z" transform="translate(-0.5859 -1.8457)"/><path class="e7feb363-5813-47f5-aabf-89293add1bad" d="M86.0093,27.2778V27.061h.2988a.7892.7892,0,0,0,.7148-.3222,1.8354,1.8354,0,0,0,.129-.8672V20.7388a1.64,1.64,0,0,0-.1641-.9317.8611.8611,0,0,0-.68-.2578h-.2988v-.2168h3.2344a7.0633,7.0633,0,0,1,2.71.4043,3.2242,3.2242,0,0,1,1.4942,1.3477,4.1576,4.1576,0,0,1,.5654,2.18,3.9756,3.9756,0,0,1-1.0078,2.7714A4.433,4.433,0,0,1,89.56,27.2778Zm2.2676-.5742a5.9821,5.9821,0,0,0,1.248.1641,2.9631,2.9631,0,0,0,2.2559-.9551,3.6321,3.6321,0,0,0,.8964-2.59,3.6277,3.6277,0,0,0-.8964-2.5957,3.0265,3.0265,0,0,0-2.3028-.9493,4.9748,4.9748,0,0,0-1.2011.17Z" transform="translate(-0.5859 -1.8457)"/><path class="e7feb363-5813-47f5-aabf-89293add1bad" d="M101.8354,19.1509l.2051,2.5078h-.2051a3.4292,3.4292,0,0,0-.8027-1.4121A2.5129,2.5129,0,0,0,99.21,19.561a2.5914,2.5914,0,0,0-2.3085,1.2012,4.3149,4.3149,0,0,0-.6622,2.4141,4.8259,4.8259,0,0,0,.4395,2.0742,3.0849,3.0849,0,0,0,1.1514,1.374,2.7634,2.7634,0,0,0,1.4619.4365,3.23,3.23,0,0,0,.85-.1113,3.3894,3.3894,0,0,0,.791-.3281V24.3247a2.1248,2.1248,0,0,0-.0908-.7822.6133.6133,0,0,0-.2813-.2813,1.6276,1.6276,0,0,0-.6709-.0966v-.2227h3.0762v.2227H102.82a.6538.6538,0,0,0-.6269.3046,2.0569,2.0569,0,0,0-.1172.8555v2.4316a5.9536,5.9536,0,0,1-1.33.5333,5.8246,5.8246,0,0,1-1.459.17,4.236,4.236,0,0,1-3.498-1.4766,3.9434,3.9434,0,0,1-.8965-2.5547,4.4784,4.4784,0,0,1,2.1445-3.7676,4.0188,4.0188,0,0,1,2.0625-.51,4.0606,4.0606,0,0,1,.7881.07,7.2132,7.2132,0,0,1,1.0049.3105,1.6189,1.6189,0,0,0,.4394.1231.2344.2344,0,0,0,.1905-.1026.7841.7841,0,0,0,.0967-.4013Z" transform="translate(-0.5859 -1.8457)"/><rect class="e7feb363-5813-47f5-aabf-89293add1bad" x="56.7232" y="13.1426" width="51.4106" height="0.3135"/></g></svg>