<?xml version="1.0" encoding="utf-8"?>
<!-- Generator: Adobe Illustrator 28.2.0, SVG Export Plug-In . SVG Version: 6.00 Build 0)  -->
<svg version="1.1" id="Logo" xmlns="http://www.w3.org/2000/svg" xmlns:xlink="http://www.w3.org/1999/xlink" x="0px" y="0px"
	 viewBox="0 0 56.5 56.6" style="enable-background:new 0 0 56.5 56.6;" xml:space="preserve">
<style type="text/css">
	.st0{fill:#ABD3F1;}
	.st1{fill:#963594;}
	.st2{fill:#5B1D57;}
	.st3{fill:url(#SVGID_1_);}
	.st4{fill:url(#SVGID_00000048481874498131512440000016886292026473293748_);}
	.st5{fill:url(#SVGID_00000171704365673186271800000012691873800266027963_);}
</style>
<path class="st0" d="M56.5,28.3c0,15.6-12.7,28.3-28.5,28.3V0C43.8,0,56.5,12.7,56.5,28.3z"/>
<path class="st1" d="M0,28.3C0,12.7,12.6,0,28,0v56.6C12.6,56.6,0,43.9,0,28.3z"/>
<path class="st2" d="M28.1,50.3c-12.1,0-22-9.8-22-22s9.8-22,22-22V50.3z"/>
<linearGradient id="SVGID_1_" gradientUnits="userSpaceOnUse" x1="39" y1="6.3" x2="39" y2="50.2" gradientTransform="matrix(1 0 0 -1 0 56.6)">
	<stop  offset="0" style="stop-color:#9FCEEF"/>
	<stop  offset="1" style="stop-color:#53B2E5"/>
</linearGradient>
<path class="st3" d="M50,28.3c0,12.1-9.8,22-22,22V6.4C40.2,6.4,50,16.2,50,28.3z"/>
<linearGradient id="SVGID_00000103235840709700814920000002533854416810626232_" gradientUnits="userSpaceOnUse" x1="21.2" y1="50.2" x2="21.2" y2="6.3" gradientTransform="matrix(1 0 0 -1 0 56.6)">
	<stop  offset="0" style="stop-color:#C2E8F8"/>
	<stop  offset="1" style="stop-color:#24ABE2"/>
</linearGradient>
<path style="fill:url(#SVGID_00000103235840709700814920000002533854416810626232_);" d="M28,50.3c-7.5,0-13.6-9.8-13.6-22
	S20.5,6.4,28,6.4V50.3z"/>
<radialGradient id="SVGID_00000180330216112717667450000016332072113242827942_" cx="30.7477" cy="33.4429" r="13.1784" gradientTransform="matrix(1 0 0 -1 0 56.6)" gradientUnits="userSpaceOnUse">
	<stop  offset="0.1399" style="stop-color:#FFFFFF"/>
	<stop  offset="1" style="stop-color:#FFF200"/>
</radialGradient>
<path style="fill:url(#SVGID_00000180330216112717667450000016332072113242827942_);" d="M28.3,13c-0.4,0-0.7,0.1-1,0.2
	c-5,0.6-9,7.2-9,15.2c0,8.4,4.4,15.3,9.8,15.3l0,0c0.1,0-0.1,0,0,0c8.5,0,15.5-6.9,15.5-15.3S36.7,13,28.3,13z"/>
</svg>
