<svg xmlns="http://www.w3.org/2000/svg" viewBox="0 0 963 233.9086"><defs><style>.b3b4bdab-3c22-48f9-9f46-e5b506978bd5,.f0b6816e-7ea6-4f50-b9e1-b6291fe5e805{fill:none;stroke-miterlimit:10;stroke-width:2px;}.b3b4bdab-3c22-48f9-9f46-e5b506978bd5{stroke:#848484;}.f0b6816e-7ea6-4f50-b9e1-b6291fe5e805{stroke:#001cea;}.a0aa87aa-4101-4f6c-8d29-367aec332677{fill:#001cea;}.f487662f-b45a-429b-ac02-d4b7ac3c2cff{fill:#fff;}</style></defs><g id="bdd19db9-d736-488f-b8ee-9fd576edf98b" data-name="Layer 3"><line class="b3b4bdab-3c22-48f9-9f46-e5b506978bd5" x1="803.875" y1="209.3656" x2="803.875" y2="233.9086"/><line class="f0b6816e-7ea6-4f50-b9e1-b6291fe5e805" x1="803.875" y1="109.0961" x2="803.875" y2="139.764"/><line class="f0b6816e-7ea6-4f50-b9e1-b6291fe5e805" x1="162.0625" y1="207.7953" x2="162.0625" y2="233.9086"/><line class="f0b6816e-7ea6-4f50-b9e1-b6291fe5e805" x1="481.4203" y1="0.0023" x2="481.5051" y2="37.4164"/><line class="f0b6816e-7ea6-4f50-b9e1-b6291fe5e805" x1="162.0625" y1="109.0961" x2="162.0625" y2="138.1937"/><rect class="a0aa87aa-4101-4f6c-8d29-367aec332677" y="16.8617" width="963" height="92.2344" rx="20"/><path class="f487662f-b45a-429b-ac02-d4b7ac3c2cff" d="M378.9014,64.3363a5.3861,5.3861,0,0,1,1.2529-3.6787,4.3637,4.3637,0,0,1,3.47-1.4336,4.4128,4.4128,0,0,1,3.4883,1.4287,5.3589,5.3589,0,0,1,1.2617,3.6836v.1943a5.3666,5.3666,0,0,1-1.2568,3.6875,4.96,4.96,0,0,1-6.958,0,5.3623,5.3623,0,0,1-1.2578-3.6875Zm2.7.19a4.3584,4.3584,0,0,0,.4824,2.2,1.8545,1.8545,0,0,0,3.0937-.0048,4.3191,4.3191,0,0,0,.4873-2.1953v-.1944a4.2761,4.2761,0,0,0-.4921-2.1767,1.6625,1.6625,0,0,0-1.5489-.8438,1.6426,1.6426,0,0,0-1.5351.8486,4.3133,4.3133,0,0,0-.4873,2.1719Z"/><path class="f487662f-b45a-429b-ac02-d4b7ac3c2cff" d="M392.5205,59.41l.1211,1.4385a3.661,3.661,0,0,1,1.2344-1.1972,3.2024,3.2024,0,0,1,1.6416-.4268,3.0187,3.0187,0,0,1,2.375.956,4.4092,4.4092,0,0,1,.8535,2.9961v6.2715h-2.7178V63.1713a2.0417,2.0417,0,0,0-.4082-1.4366,1.6418,1.6418,0,0,0-1.2344-.4238,2.0874,2.0874,0,0,0-.9648.2188,2.0089,2.0089,0,0,0-.7148.6181v7.3h-2.709V59.41Z"/><path class="f487662f-b45a-429b-ac02-d4b7ac3c2cff" d="M405.2119,69.6429a4.517,4.517,0,0,1-3.4687-1.3925,4.9735,4.9735,0,0,1-1.2989-3.5342v-.3711a5.49,5.49,0,0,1,1.2286-3.6826,4.5833,4.5833,0,0,1,6.4531-.2139,4.7141,4.7141,0,0,1,1.122,3.3115v1.4756h-5.9931l-.0186.0557a2.6051,2.6051,0,0,0,.6631,1.626,2.0739,2.0739,0,0,0,1.6006.6376,5.2275,5.2275,0,0,0,1.4932-.1806,6.876,6.876,0,0,0,1.2988-.5713l.7334,1.6748a5.0146,5.0146,0,0,1-1.6045.834A6.9568,6.9568,0,0,1,405.2119,69.6429Zm-.24-8.332a1.4082,1.4082,0,0,0-1.1875.5762,2.99,2.99,0,0,0-.5391,1.5117l.0283.0469h3.3213v-.2422a2.1746,2.1746,0,0,0-.4033-1.377A1.4543,1.4543,0,0,0,404.9717,61.3109Z"/><path class="f487662f-b45a-429b-ac02-d4b7ac3c2cff" d="M418.2939,66.5345h-4.7412l-.9189,2.9131h-2.7363L414.5459,55.94h2.7734l4.6289,13.5078h-2.7363Zm-4.0732-2.124h3.4053l-1.67-5.3066h-.0567Z"/><path class="f487662f-b45a-429b-ac02-d4b7ac3c2cff" d="M425.92,64.5492v4.8984h-2.709V55.94h5.3809a5.3171,5.3171,0,0,1,3.6641,1.1875,4.3162,4.3162,0,0,1,0,6.2442,5.3475,5.3475,0,0,1-3.6641,1.1777Zm0-2.0879h2.6719a2.2562,2.2562,0,0,0,1.7168-.6162,2.1987,2.1987,0,0,0,.584-1.5733,2.2971,2.2971,0,0,0-.58-1.6093,2.2159,2.2159,0,0,0-1.7207-.6348H425.92Z"/><path class="f487662f-b45a-429b-ac02-d4b7ac3c2cff" d="M438.4619,69.4476h-2.709V55.94h2.709Z"/><path class="f487662f-b45a-429b-ac02-d4b7ac3c2cff" d="M448.77,69.4476h-2.709V55.94h2.709Z"/><path class="f487662f-b45a-429b-ac02-d4b7ac3c2cff" d="M453.76,59.41l.1113,1.3272a3.38,3.38,0,0,1,1.2109-1.1182,3.4832,3.4832,0,0,1,1.6836-.3945,3.0727,3.0727,0,0,1,1.6524.4268,2.6389,2.6389,0,0,1,1.039,1.289,3.49,3.49,0,0,1,1.2051-1.2617,3.2765,3.2765,0,0,1,1.7442-.4541,2.8923,2.8923,0,0,1,2.3427,1.0254,4.7843,4.7843,0,0,1,.8584,3.1221v6.0761h-2.709v-6.1a2.5475,2.5475,0,0,0-.3711-1.59,1.3517,1.3517,0,0,0-1.1035-.4473,1.8933,1.8933,0,0,0-.998.2559,1.8577,1.8577,0,0,0-.6719.7119c0,.1172.0029.2187.0088.3017s.0088.169.0088.2559v6.6113h-2.6992v-6.1a2.5583,2.5583,0,0,0-.3711-1.5762,1.3452,1.3452,0,0,0-1.1133-.4609,2.09,2.09,0,0,0-.96.21,1.8479,1.8479,0,0,0-.6826.59v7.3369h-2.6992V59.41Z"/><path class="f487662f-b45a-429b-ac02-d4b7ac3c2cff" d="M476.74,64.7074a5.7669,5.7669,0,0,1-1.0293,3.58,3.4087,3.4087,0,0,1-2.8769,1.3554,3.2068,3.2068,0,0,1-1.4-.2929,2.8781,2.8781,0,0,1-1.0488-.8575V73.307h-2.6993V59.41h2.44l.1582,1.1875a3.2187,3.2187,0,0,1,1.0713-1.0156,2.9008,2.9008,0,0,1,1.4619-.3574,3.3432,3.3432,0,0,1,2.8945,1.456,6.5115,6.5115,0,0,1,1.0293,3.8321Zm-2.7089-.209a4.8844,4.8844,0,0,0-.4727-2.3047,1.546,1.546,0,0,0-1.4473-.8828,2.045,2.045,0,0,0-1.0439.251,1.8,1.8,0,0,0-.6826.7158V66.682a1.6754,1.6754,0,0,0,.6826.65,2.295,2.295,0,0,0,1.0615.2226,1.5581,1.5581,0,0,0,1.4434-.7714,4.08,4.08,0,0,0,.459-2.09Z"/><path class="f487662f-b45a-429b-ac02-d4b7ac3c2cff" d="M481.2578,69.4476h-2.709V54.975h2.709Z"/><path class="f487662f-b45a-429b-ac02-d4b7ac3c2cff" d="M487.9287,69.6429A4.517,4.517,0,0,1,484.46,68.25a4.9735,4.9735,0,0,1-1.2989-3.5342v-.3711a5.4909,5.4909,0,0,1,1.2285-3.6826,4.5834,4.5834,0,0,1,6.4532-.2139,4.7141,4.7141,0,0,1,1.122,3.3115v1.4756h-5.9931l-.0186.0557a2.6051,2.6051,0,0,0,.6631,1.626,2.0739,2.0739,0,0,0,1.6006.6376,5.2275,5.2275,0,0,0,1.4932-.1806,6.876,6.876,0,0,0,1.2988-.5713l.7334,1.6748a5.0146,5.0146,0,0,1-1.6045.834A6.9568,6.9568,0,0,1,487.9287,69.6429Zm-.24-8.332a1.4082,1.4082,0,0,0-1.1875.5762,2.99,2.99,0,0,0-.5391,1.5117l.0283.0469h3.3213v-.2422a2.1746,2.1746,0,0,0-.4033-1.377A1.4543,1.4543,0,0,0,487.6885,61.3109Z"/><path class="f487662f-b45a-429b-ac02-d4b7ac3c2cff" d="M496.0557,59.41l.1113,1.3272a3.38,3.38,0,0,1,1.2109-1.1182,3.4832,3.4832,0,0,1,1.6836-.3945,3.0727,3.0727,0,0,1,1.6524.4268,2.6389,2.6389,0,0,1,1.039,1.289,3.49,3.49,0,0,1,1.2051-1.2617,3.2764,3.2764,0,0,1,1.7441-.4541,2.8924,2.8924,0,0,1,2.3428,1.0254,4.7843,4.7843,0,0,1,.8584,3.1221v6.0761h-2.709v-6.1a2.5475,2.5475,0,0,0-.3711-1.59,1.3517,1.3517,0,0,0-1.1035-.4473,1.8933,1.8933,0,0,0-.998.2559,1.8577,1.8577,0,0,0-.6719.7119c0,.1172.0029.2187.0088.3017s.0088.169.0088.2559v6.6113h-2.6992v-6.1a2.5583,2.5583,0,0,0-.3711-1.5762,1.3452,1.3452,0,0,0-1.1133-.4609,2.09,2.09,0,0,0-.96.21,1.8479,1.8479,0,0,0-.6826.59v7.3369H493.542V59.41Z"/><path class="f487662f-b45a-429b-ac02-d4b7ac3c2cff" d="M514.4248,69.6429a4.517,4.517,0,0,1-3.4687-1.3925,4.9731,4.9731,0,0,1-1.2989-3.5342v-.3711a5.4909,5.4909,0,0,1,1.2285-3.6826,4.5834,4.5834,0,0,1,6.4532-.2139,4.7141,4.7141,0,0,1,1.122,3.3115v1.4756h-5.9931l-.0186.0557a2.6051,2.6051,0,0,0,.6631,1.626,2.0739,2.0739,0,0,0,1.6006.6376,5.228,5.228,0,0,0,1.4932-.1806,6.876,6.876,0,0,0,1.2988-.5713l.7334,1.6748a5.0146,5.0146,0,0,1-1.6045.834A6.9568,6.9568,0,0,1,514.4248,69.6429Zm-.24-8.332a1.4082,1.4082,0,0,0-1.1875.5762,2.99,2.99,0,0,0-.5391,1.5117l.0283.0469h3.3213v-.2422a2.1746,2.1746,0,0,0-.4033-1.377A1.4543,1.4543,0,0,0,514.1846,61.3109Z"/><path class="f487662f-b45a-429b-ac02-d4b7ac3c2cff" d="M522.5146,59.41l.1211,1.4385a3.6619,3.6619,0,0,1,1.2344-1.1972,3.2027,3.2027,0,0,1,1.6416-.4268,3.0184,3.0184,0,0,1,2.375.956,4.4087,4.4087,0,0,1,.8535,2.9961v6.2715h-2.7177V63.1713a2.0421,2.0421,0,0,0-.4082-1.4366,1.642,1.642,0,0,0-1.2344-.4238,2.0878,2.0878,0,0,0-.9649.2188,2.0106,2.0106,0,0,0-.7148.6181v7.3h-2.709V59.41Z"/><path class="f487662f-b45a-429b-ac02-d4b7ac3c2cff" d="M533.9814,56.9515V59.41h1.6895v1.9014h-1.6895v5.1123a1.18,1.18,0,0,0,.2422.835.8572.8572,0,0,0,.6485.25,2.4925,2.4925,0,0,0,.3672-.0225,3.3179,3.3179,0,0,0,.3574-.0791l.2314,1.957a5.2637,5.2637,0,0,1-.7978.209,4.7541,4.7541,0,0,1-.8438.07,2.8855,2.8855,0,0,1-2.1572-.77,3.3743,3.3743,0,0,1-.7568-2.44V61.3109h-1.4649V59.41h1.4649v-2.458Z"/><path class="f487662f-b45a-429b-ac02-d4b7ac3c2cff" d="M543.2871,69.4476a5.7437,5.7437,0,0,1-.2549-.7236,5.0737,5.0737,0,0,1-.1533-.7793,3.7357,3.7357,0,0,1-1.0986,1.2158,2.7486,2.7486,0,0,1-1.628.4824,3.3888,3.3888,0,0,1-2.4316-.8125,2.91,2.91,0,0,1-.8535-2.2129,2.6464,2.6464,0,0,1,1.1367-2.2861A5.6773,5.6773,0,0,1,541.32,63.52h1.5127v-.7988a1.5623,1.5623,0,0,0-.38-1.1221,1.7746,1.7746,0,0,0-2.1386-.0791,1.13,1.13,0,0,0-.3575.8867l-2.6162-.01-.0088-.0556a2.5482,2.5482,0,0,1,1.1035-2.1944,4.8118,4.8118,0,0,1,3.07-.9228,4.4815,4.4815,0,0,1,2.9228.9141,3.1643,3.1643,0,0,1,1.1221,2.6025v4.1465a7.8184,7.8184,0,0,0,.1074,1.3262,6.6067,6.6067,0,0,0,.3379,1.2343Zm-2.4766-1.8086a2.323,2.323,0,0,0,1.2715-.3535,1.8293,1.8293,0,0,0,.751-.8164V65.05H541.32a1.8064,1.8064,0,0,0-1.3076.4316,1.3993,1.3993,0,0,0-.4453,1.044,1.0417,1.0417,0,0,0,.334.8066A1.2934,1.2934,0,0,0,540.8105,67.639Z"/><path class="f487662f-b45a-429b-ac02-d4b7ac3c2cff" d="M550.82,56.9515V59.41h1.69v1.9014h-1.69v5.1123a1.18,1.18,0,0,0,.2422.835.8571.8571,0,0,0,.6484.25,2.4906,2.4906,0,0,0,.3672-.0225,3.3127,3.3127,0,0,0,.3574-.0791l.2315,1.957a5.2648,5.2648,0,0,1-.7979.209,4.753,4.753,0,0,1-.8437.07,2.8853,2.8853,0,0,1-2.1572-.77,3.3743,3.3743,0,0,1-.7569-2.44V61.3109h-1.4648V59.41h1.4648v-2.458Z"/><path class="f487662f-b45a-429b-ac02-d4b7ac3c2cff" d="M557.082,57.0062h-2.709V54.975h2.709Zm0,12.4414h-2.709V59.41h2.709Z"/><path class="f487662f-b45a-429b-ac02-d4b7ac3c2cff" d="M558.8906,64.3363a5.3862,5.3862,0,0,1,1.253-3.6787,4.3635,4.3635,0,0,1,3.47-1.4336,4.413,4.413,0,0,1,3.4883,1.4287,5.3589,5.3589,0,0,1,1.2617,3.6836v.1943a5.3666,5.3666,0,0,1-1.2569,3.6875,4.96,4.96,0,0,1-6.958,0,5.3628,5.3628,0,0,1-1.2578-3.6875Zm2.7.19a4.36,4.36,0,0,0,.4824,2.2,1.8546,1.8546,0,0,0,3.0938-.0048,4.3191,4.3191,0,0,0,.4873-2.1953v-.1944a4.2761,4.2761,0,0,0-.4922-2.1767,1.6623,1.6623,0,0,0-1.5488-.8438,1.6428,1.6428,0,0,0-1.5352.8486,4.3133,4.3133,0,0,0-.4873,2.1719Z"/><path class="f487662f-b45a-429b-ac02-d4b7ac3c2cff" d="M572.51,59.41l.1211,1.4385a3.6607,3.6607,0,0,1,1.2343-1.1972,3.2027,3.2027,0,0,1,1.6416-.4268,3.0184,3.0184,0,0,1,2.375.956,4.4087,4.4087,0,0,1,.8536,2.9961v6.2715h-2.7178V63.1713a2.0417,2.0417,0,0,0-.4082-1.4366,1.642,1.642,0,0,0-1.2344-.4238,2.0871,2.0871,0,0,0-.9648.2188,2.01,2.01,0,0,0-.7149.6181v7.3h-2.709V59.41Z"/><line class="f0b6816e-7ea6-4f50-b9e1-b6291fe5e805" x1="483.25" y1="207.3656" x2="483.25" y2="233.4789"/><line class="f0b6816e-7ea6-4f50-b9e1-b6291fe5e805" x1="483.25" y1="108.6664" x2="483.25" y2="137.764"/></g></svg>