<svg xmlns="http://www.w3.org/2000/svg" viewBox="0 0 317.3147 92.2344"><defs><style>.af5e4b69-2fa5-4229-a348-d2db433cafb0{fill:#001cea;}.ecdd2be0-db43-4920-9507-527149ee9c4a{fill:#fff;}</style></defs><g id="b01afb16-1e0c-42ea-ae83-f2f473e3e889" data-name="Layer 3"><rect class="af5e4b69-2fa5-4229-a348-d2db433cafb0" width="317.3147" height="92.2344" rx="20"/><path class="ecdd2be0-db43-4920-9507-527149ee9c4a" d="M53.35,48.4746a5.8634,5.8634,0,0,1,1.1011-3.6787,3.6284,3.6284,0,0,1,3.05-1.4336,3.666,3.666,0,0,1,3.0659,1.4287,5.8322,5.8322,0,0,1,1.1089,3.6836v.1943a5.8449,5.8449,0,0,1-1.1045,3.6875,3.9943,3.9943,0,0,1-6.1162,0,5.842,5.842,0,0,1-1.105-3.6875Zm2.373.1895a4.8548,4.8548,0,0,0,.4239,2.2,1.5276,1.5276,0,0,0,2.72-.0049,4.8153,4.8153,0,0,0,.4282-2.1953V48.47a4.7658,4.7658,0,0,0-.4321-2.1767,1.4334,1.4334,0,0,0-1.3618-.8438,1.4176,1.4176,0,0,0-1.35.8487,4.8061,4.8061,0,0,0-.4283,2.1718Z"/><path class="ecdd2be0-db43-4920-9507-527149ee9c4a" d="M65.3213,43.5479l.1059,1.4384a3.4542,3.4542,0,0,1,1.0845-1.1972,2.558,2.558,0,0,1,1.4434-.4268,2.5028,2.5028,0,0,1,2.0874.9561,4.8417,4.8417,0,0,1,.7505,2.9961v6.2714H68.4038V47.31a2.2392,2.2392,0,0,0-.3589-1.4366,1.3436,1.3436,0,0,0-1.0849-.4238,1.6546,1.6546,0,0,0-.8477.2188,1.8422,1.8422,0,0,0-.6279.6181v7.3H63.103V43.5479Z"/><path class="ecdd2be0-db43-4920-9507-527149ee9c4a" d="M76.4766,53.7812a3.7449,3.7449,0,0,1-3.05-1.3925,5.3873,5.3873,0,0,1-1.1416-3.5342v-.3711a5.9868,5.9868,0,0,1,1.0805-3.6826,3.4115,3.4115,0,0,1,2.8989-1.4385,3.3589,3.3589,0,0,1,2.7725,1.2246,5.13,5.13,0,0,1,.9868,3.3115V49.374h-5.268L74.74,49.43a2.8,2.8,0,0,0,.5831,1.626,1.7165,1.7165,0,0,0,1.4067.6377,4.0768,4.0768,0,0,0,1.313-.1807,5.7239,5.7239,0,0,0,1.1416-.5713l.644,1.6748a4.2528,4.2528,0,0,1-1.4106.834A5.4348,5.4348,0,0,1,76.4766,53.7812Zm-.212-8.332a1.1936,1.1936,0,0,0-1.0439.5762,3.2543,3.2543,0,0,0-.4727,1.5117l.0245.0469h2.9194v-.2422a2.3887,2.3887,0,0,0-.355-1.377A1.2136,1.2136,0,0,0,76.2646,45.4492Z"/><path class="ecdd2be0-db43-4920-9507-527149ee9c4a" d="M87.9751,50.6729h-4.167l-.8076,2.913H80.5947l4.086-13.5078h2.438L91.188,53.5859H88.7822Zm-3.58-2.1241h2.9927L85.92,43.2422h-.0488Z"/><path class="ecdd2be0-db43-4920-9507-527149ee9c4a" d="M94.6782,48.6875v4.8984H92.2969V40.0781h4.73a4.3248,4.3248,0,0,1,3.2211,1.1875,4.7372,4.7372,0,0,1,0,6.2442,4.3467,4.3467,0,0,1-3.2211,1.1777Zm0-2.0879h2.3487a1.8506,1.8506,0,0,0,1.5083-.6162,2.374,2.374,0,0,0,.5141-1.5732,2.4955,2.4955,0,0,0-.51-1.6094,1.8256,1.8256,0,0,0-1.5127-.6348H94.6782Z"/><path class="ecdd2be0-db43-4920-9507-527149ee9c4a" d="M105.7036,53.5859h-2.3813V40.0781h2.3813Z"/><path class="ecdd2be0-db43-4920-9507-527149ee9c4a" d="M121.833,53.5859H119.46l-4.795-9.23-.0488.0088v9.2216h-2.3813V40.0781h2.3813L119.4111,49.3l.0489-.0088V40.0781h2.373Z"/><path class="ecdd2be0-db43-4920-9507-527149ee9c4a" d="M128.0879,49.9961l.1465.7324h.0488l.1387-.7148,2.5849-9.9356h2.5118l-4.0367,13.5078h-2.4463l-4.0283-13.5078h2.5117Z"/><path class="ecdd2be0-db43-4920-9507-527149ee9c4a" d="M137.2129,53.5859h-2.3814V40.0781h2.3814Z"/><path class="ecdd2be0-db43-4920-9507-527149ee9c4a" d="M139.5859,53.5859V40.0781h4.0777a4.596,4.596,0,0,1,3.5879,1.5821,5.8688,5.8688,0,0,1,1.4106,4.0585v2.2364a5.849,5.849,0,0,1-1.4106,4.0586,4.61,4.61,0,0,1-3.5879,1.5722Zm2.3814-11.42v9.332h1.5737a2.357,2.357,0,0,0,2.0064-.9814,4.2186,4.2186,0,0,0,.7255-2.5674V45.6963a4.1813,4.1813,0,0,0-.7255-2.5479,2.3556,2.3556,0,0,0-2.0064-.9824Z"/><path class="ecdd2be0-db43-4920-9507-527149ee9c4a" d="M153.0576,53.5859h-2.3813V40.0781h2.3813Z"/><path class="ecdd2be0-db43-4920-9507-527149ee9c4a" d="M161.7993,50.6729h-4.167l-.8076,2.913h-2.4058l4.086-13.5078h2.438l4.0693,13.5078h-2.4058Zm-3.58-2.1241h2.9927l-1.4678-5.3066h-.0488Z"/><path class="ecdd2be0-db43-4920-9507-527149ee9c4a" d="M167.2139,54.7461h-2.316l4.3545-14.668h2.316Z"/><path class="ecdd2be0-db43-4920-9507-527149ee9c4a" d="M179.2178,50.6729h-4.167l-.8076,2.913h-2.4058l4.0859-13.5078h2.438l4.0694,13.5078h-2.4058Zm-3.58-2.1241H178.63l-1.4678-5.3066h-.0488Z"/><path class="ecdd2be0-db43-4920-9507-527149ee9c4a" d="M186.6465,40.0781l3.0254,9.9551h.0493l3.05-9.9551h3.1147V53.5859h-2.3808V49.56l.228-5.9659-.0488-.0087-3.18,10.0009h-1.5986l-3.1636-9.9638-.0493.0088.2285,5.9287v4.0263H183.54V40.0781Z"/><path class="ecdd2be0-db43-4920-9507-527149ee9c4a" d="M198.1118,53.5859V40.0781H202.19a4.5957,4.5957,0,0,1,3.5878,1.5821,5.8684,5.8684,0,0,1,1.4107,4.0585v2.2364a5.8486,5.8486,0,0,1-1.4107,4.0586,4.61,4.61,0,0,1-3.5878,1.5722Zm2.3814-11.42v9.332h1.5737a2.3567,2.3567,0,0,0,2.0063-.9814,4.2187,4.2187,0,0,0,.7256-2.5674V45.6963a4.1813,4.1813,0,0,0-.7256-2.5479,2.3553,2.3553,0,0,0-2.0063-.9824Z"/><path class="ecdd2be0-db43-4920-9507-527149ee9c4a" d="M215.5957,48.6875v4.8984h-2.3813V40.0781h4.73a4.3249,4.3249,0,0,1,3.2212,1.1875,4.7375,4.7375,0,0,1,0,6.2442,4.3467,4.3467,0,0,1-3.2212,1.1777Zm0-2.0879h2.3486a1.85,1.85,0,0,0,1.5083-.6162,2.3735,2.3735,0,0,0,.5142-1.5732,2.4949,2.4949,0,0,0-.51-1.6094,1.8253,1.8253,0,0,0-1.5127-.6348h-2.3486Z"/><path class="ecdd2be0-db43-4920-9507-527149ee9c4a" d="M226.4009,53.5859H224.02V39.1133h2.3814Z"/><path class="ecdd2be0-db43-4920-9507-527149ee9c4a" d="M233.748,52.1387a3.2149,3.2149,0,0,1-1.0361,1.2148,2.5,2.5,0,0,1-1.4433.4277,2.6023,2.6023,0,0,1-2.1807-1.0166,5.1427,5.1427,0,0,1-.7871-3.1591V43.5479h2.373v6.0908A2.8866,2.8866,0,0,0,231,51.2148a1.0876,1.0876,0,0,0,.9619.4786,2.1169,2.1169,0,0,0,.9785-.209,1.7191,1.7191,0,0,0,.669-.6182V43.5479H235.99v10.038h-2.03Z"/><path class="ecdd2be0-db43-4920-9507-527149ee9c4a" d="M237.417,48.65a7.1572,7.1572,0,0,1,.91-3.832,2.85,2.85,0,0,1,2.5479-1.4561,2.2775,2.2775,0,0,1,1.3047.38,3.1537,3.1537,0,0,1,.9619,1.0859l.1885-1.28h2.0547v9.9912a3.9749,3.9749,0,0,1-1.13,3.0293,4.3827,4.3827,0,0,1-3.1436,1.0722,5.3212,5.3212,0,0,1-1.4189-.209,6.1529,6.1529,0,0,1-1.3858-.57l.44-2.0234a5.066,5.066,0,0,0,1.1123.45,4.7124,4.7124,0,0,0,1.2363.1533,1.9518,1.9518,0,0,0,1.4385-.4639,1.9824,1.9824,0,0,0,.4609-1.4472v-.9092a2.7831,2.7831,0,0,1-.9209.8633,2.4538,2.4538,0,0,1-1.2158.2968,2.88,2.88,0,0,1-2.5313-1.3593,6.3269,6.3269,0,0,1-.91-3.5762Zm2.3818.1963a4.5981,4.5981,0,0,0,.3916,2.0859,1.3277,1.3277,0,0,0,1.2715.7608,1.7629,1.7629,0,0,0,.9258-.2286,1.6411,1.6411,0,0,0,.6074-.6669V46.4111a1.7867,1.7867,0,0,0-.6074-.709,1.6059,1.6059,0,0,0-.9092-.2529,1.3365,1.3365,0,0,0-1.2764.8867,5.6479,5.6479,0,0,0-.4033,2.3145Z"/><path class="ecdd2be0-db43-4920-9507-527149ee9c4a" d="M249.7148,41.1445H247.334V39.1133h2.3808Zm0,12.4414H247.334V43.5479h2.3808Z"/><path class="ecdd2be0-db43-4920-9507-527149ee9c4a" d="M253.85,43.5479l.1055,1.4384a3.46,3.46,0,0,1,1.0849-1.1972,2.558,2.558,0,0,1,1.4434-.4268,2.5051,2.5051,0,0,1,2.0879.9561,4.8452,4.8452,0,0,1,.75,2.9961v6.2714h-2.39V47.31a2.2364,2.2364,0,0,0-.3584-1.4366,1.3428,1.3428,0,0,0-1.0849-.4238,1.6536,1.6536,0,0,0-.8477.2188,1.8431,1.8431,0,0,0-.6279.6181v7.3h-2.3818V43.5479Z"/><path class="ecdd2be0-db43-4920-9507-527149ee9c4a" d="M265.8691,50.8213a.9848.9848,0,0,0-.3789-.77,3.5855,3.5855,0,0,0-1.4072-.5742,5.3189,5.3189,0,0,1-2.36-1.0723,2.4583,2.4583,0,0,1-.795-1.9336,2.9181,2.9181,0,0,1,.958-2.2041,3.5845,3.5845,0,0,1,2.5645-.9043,3.8657,3.8657,0,0,1,2.6875.8994,2.8086,2.8086,0,0,1,.958,2.2735l-.0166.0556h-2.3a1.4239,1.4239,0,0,0-.3379-.9834,1.4662,1.4662,0,0,0-1.9-.06,1.0744,1.0744,0,0,0-.33.8027.9557.9557,0,0,0,.3467.7608,3.4871,3.4871,0,0,0,1.4063.5283,5.34,5.34,0,0,1,2.4218,1.0908,2.5419,2.5419,0,0,1,.7911,1.98,2.7618,2.7618,0,0,1-1.0186,2.2129,4.04,4.04,0,0,1-2.6914.8583,3.7794,3.7794,0,0,1-2.7852-1.0166,3.0088,3.0088,0,0,1-.9746-2.3144l.0166-.0557h2.1778a1.4876,1.4876,0,0,0,.4648,1.169,1.7517,1.7517,0,0,0,1.1494.3623,1.509,1.509,0,0,0,1.0069-.2969A1.0083,1.0083,0,0,0,265.8691,50.8213Z"/></g></svg>