<svg xmlns="http://www.w3.org/2000/svg" viewBox="0 0 317.3147 92.2344"><defs><style>.b778a2f9-030a-46c8-889c-90c34d672ad6{fill:#001cea;}.f924e38d-99af-4ba7-9efd-77fe564e2bb7{fill:#fff;}</style></defs><g id="e09b23d8-c312-4c75-b2a5-16ab7fbe268d" data-name="Layer 3"><rect class="b778a2f9-030a-46c8-889c-90c34d672ad6" width="317.3147" height="92.2344" rx="20"/><path class="f924e38d-99af-4ba7-9efd-77fe564e2bb7" d="M54.5832,46.4746a5.3866,5.3866,0,0,1,1.2529-3.6787,4.3638,4.3638,0,0,1,3.47-1.4336,4.4128,4.4128,0,0,1,3.4882,1.4287,5.3585,5.3585,0,0,1,1.2618,3.6836v.1943a5.3666,5.3666,0,0,1-1.2569,3.6875,4.96,4.96,0,0,1-6.958,0,5.3623,5.3623,0,0,1-1.2578-3.6875Zm2.7.1895a4.3591,4.3591,0,0,0,.4824,2.2,1.8545,1.8545,0,0,0,3.0938-.0049,4.3191,4.3191,0,0,0,.4873-2.1953V46.47a4.2761,4.2761,0,0,0-.4922-2.1767,1.6625,1.6625,0,0,0-1.5488-.8438,1.6426,1.6426,0,0,0-1.5352.8487,4.3127,4.3127,0,0,0-.4873,2.1718Z"/><path class="f924e38d-99af-4ba7-9efd-77fe564e2bb7" d="M68.2023,41.5479l.1211,1.4384a3.6628,3.6628,0,0,1,1.2344-1.1972,3.2027,3.2027,0,0,1,1.6416-.4268,3.0181,3.0181,0,0,1,2.375.9561,4.4084,4.4084,0,0,1,.8535,2.9961v6.2714H71.71V45.31a2.0421,2.0421,0,0,0-.4082-1.4366,1.642,1.642,0,0,0-1.2344-.4238,2.089,2.089,0,0,0-.9649.2188,2.0115,2.0115,0,0,0-.7148.6181v7.3h-2.709V41.5479Z"/><path class="f924e38d-99af-4ba7-9efd-77fe564e2bb7" d="M80.8938,51.7812a4.5172,4.5172,0,0,1-3.4688-1.3925,4.9735,4.9735,0,0,1-1.2988-3.5342v-.3711a5.4909,5.4909,0,0,1,1.2285-3.6826,4.5833,4.5833,0,0,1,6.4531-.2139A4.7137,4.7137,0,0,1,84.93,45.8984V47.374H78.9367l-.0185.0557a2.6049,2.6049,0,0,0,.6631,1.626,2.0736,2.0736,0,0,0,1.6.6377,5.2271,5.2271,0,0,0,1.4932-.1807,6.8733,6.8733,0,0,0,1.2988-.5713l.7334,1.6748a5.0136,5.0136,0,0,1-1.6045.834A6.9566,6.9566,0,0,1,80.8938,51.7812Zm-.24-8.332a1.4085,1.4085,0,0,0-1.1875.5762,2.9894,2.9894,0,0,0-.539,1.5117l.0283.0469h3.3213v-.2422a2.1746,2.1746,0,0,0-.4034-1.377A1.4541,1.4541,0,0,0,80.6535,43.4492Z"/><path class="f924e38d-99af-4ba7-9efd-77fe564e2bb7" d="M93.9758,48.6729H89.2346l-.919,2.913H85.5793l4.6484-13.5078h2.7735L97.63,51.5859H94.8938Zm-4.0733-2.1241h3.4053l-1.67-5.3066h-.0566Z"/><path class="f924e38d-99af-4ba7-9efd-77fe564e2bb7" d="M101.6008,46.6875v4.8984h-2.709V38.0781h5.3809a5.3166,5.3166,0,0,1,3.664,1.1875,4.316,4.316,0,0,1,0,6.2442,5.347,5.347,0,0,1-3.664,1.1777Zm0-2.0879h2.6719a2.2565,2.2565,0,0,0,1.7168-.6162,2.1988,2.1988,0,0,0,.5839-1.5732,2.2972,2.2972,0,0,0-.58-1.6094,2.2161,2.2161,0,0,0-1.7207-.6348h-2.6719Z"/><path class="f924e38d-99af-4ba7-9efd-77fe564e2bb7" d="M114.1447,51.5859h-2.709V38.0781h2.709Z"/><path class="f924e38d-99af-4ba7-9efd-77fe564e2bb7" d="M131.7707,46.9844l.0195.0556a4.4023,4.4023,0,0,1-1.332,3.46,5.3437,5.3437,0,0,1-3.7988,1.2812,5.2724,5.2724,0,0,1-3.961-1.5683,5.5513,5.5513,0,0,1-1.5214-4.0352V43.4961a5.6477,5.6477,0,0,1,1.4843-4.0352,5.0565,5.0565,0,0,1,3.8594-1.5781,5.5961,5.5961,0,0,1,3.9141,1.2852,4.3937,4.3937,0,0,1,1.373,3.5019l-.0176.0567h-2.6347a2.9541,2.9541,0,0,0-.6407-2.0459,2.5554,2.5554,0,0,0-1.9941-.71,2.2592,2.2592,0,0,0-1.93.9873,4.1846,4.1846,0,0,0-.7148,2.5166v2.6963a4.0633,4.0633,0,0,0,.7519,2.5352,2.4175,2.4175,0,0,0,2.0313.9873,2.3932,2.3932,0,0,0,1.8789-.6817,2.969,2.969,0,0,0,.6074-2.0273Z"/><path class="f924e38d-99af-4ba7-9efd-77fe564e2bb7" d="M133.0793,46.4746a5.3866,5.3866,0,0,1,1.2529-3.6787,4.3638,4.3638,0,0,1,3.47-1.4336A4.4128,4.4128,0,0,1,141.29,42.791a5.3585,5.3585,0,0,1,1.2618,3.6836v.1943a5.3666,5.3666,0,0,1-1.2569,3.6875,4.96,4.96,0,0,1-6.958,0,5.3623,5.3623,0,0,1-1.2578-3.6875Zm2.7.1895a4.3591,4.3591,0,0,0,.4824,2.2,1.8545,1.8545,0,0,0,3.0938-.0049,4.3191,4.3191,0,0,0,.4873-2.1953V46.47a4.2761,4.2761,0,0,0-.4922-2.1767,1.6625,1.6625,0,0,0-1.5488-.8438,1.6426,1.6426,0,0,0-1.5352.8487A4.3127,4.3127,0,0,0,135.78,46.47Z"/><path class="f924e38d-99af-4ba7-9efd-77fe564e2bb7" d="M146.6984,41.5479l.1211,1.4384a3.6619,3.6619,0,0,1,1.2344-1.1972,3.2027,3.2027,0,0,1,1.6416-.4268,3.0181,3.0181,0,0,1,2.375.9561,4.4089,4.4089,0,0,1,.8535,2.9961v6.2714h-2.7177V45.31a2.0416,2.0416,0,0,0-.4083-1.4366,1.6416,1.6416,0,0,0-1.2343-.4238,2.089,2.089,0,0,0-.9649.2188,2.0107,2.0107,0,0,0-.7148.6181v7.3h-2.709V41.5479Z"/><path class="f924e38d-99af-4ba7-9efd-77fe564e2bb7" d="M160.3742,48.8213a.9491.9491,0,0,0-.4316-.77,4.3989,4.3989,0,0,0-1.6006-.5742,6.4479,6.4479,0,0,1-2.6856-1.0723,2.3238,2.3238,0,0,1-.9052-1.9336,2.7655,2.7655,0,0,1,1.0908-2.2041,4.4269,4.4269,0,0,1,2.917-.9043,4.7921,4.7921,0,0,1,3.0576.8994,2.6608,2.6608,0,0,1,1.09,2.2735l-.0185.0556h-2.6162a1.325,1.325,0,0,0-.3848-.9834,1.846,1.846,0,0,0-2.1621-.06,1.0138,1.0138,0,0,0-.376.8027.9138.9138,0,0,0,.3946.7608,4.3039,4.3039,0,0,0,1.6.5283,6.4823,6.4823,0,0,1,2.7549,1.0908,2.3948,2.3948,0,0,1,.9,1.98,2.6376,2.6376,0,0,1-1.16,2.2129,5.0208,5.0208,0,0,1-3.0606.8583,4.6526,4.6526,0,0,1-3.1689-1.0166,2.8377,2.8377,0,0,1-1.1084-2.3144l.0185-.0557h2.4776a1.4047,1.4047,0,0,0,.5283,1.169,2.1838,2.1838,0,0,0,1.3076.3623,1.8883,1.8883,0,0,0,1.1465-.2969A.9589.9589,0,0,0,160.3742,48.8213Z"/><path class="f924e38d-99af-4ba7-9efd-77fe564e2bb7" d="M167.9621,39.09v2.4581h1.69v1.9013h-1.69v5.1123a1.18,1.18,0,0,0,.2422.835.8571.8571,0,0,0,.6484.25,2.4906,2.4906,0,0,0,.3672-.0225,3.3127,3.3127,0,0,0,.3574-.0791l.2315,1.9571a5.276,5.276,0,0,1-.7979.2089,4.753,4.753,0,0,1-.8437.07,2.8853,2.8853,0,0,1-2.1572-.77,3.3743,3.3743,0,0,1-.7569-2.44V43.4492h-1.4648V41.5479h1.4648V39.09Z"/><path class="f924e38d-99af-4ba7-9efd-77fe564e2bb7" d="M176.6555,43.877l-.9932-.0284a1.7971,1.7971,0,0,0-.9932.251,1.5831,1.5831,0,0,0-.5937.7051v6.7812h-2.6992V41.5479H173.89l.1211,1.4843a3.1678,3.1678,0,0,1,.9141-1.23,2.1391,2.1391,0,0,1,1.67-.4082c.1143.0225.2305.0479.3477.0791Z"/><path class="f924e38d-99af-4ba7-9efd-77fe564e2bb7" d="M184.1613,50.1387a3.3693,3.3693,0,0,1-1.1787,1.2148,3.4713,3.4713,0,0,1-4.124-.5889,4.686,4.686,0,0,1-.8945-3.1591V41.5479h2.6992v6.0908a2.6086,2.6086,0,0,0,.3711,1.5761,1.2989,1.2989,0,0,0,1.0947.4786,2.6945,2.6945,0,0,0,1.1133-.209,1.88,1.88,0,0,0,.7607-.6182V41.5479h2.709v10.038h-2.31Z"/><path class="f924e38d-99af-4ba7-9efd-77fe564e2bb7" d="M192.965,49.6934a1.5975,1.5975,0,0,0,1.1592-.42,1.48,1.48,0,0,0,.4365-1.12h2.4581l.0283.0557a3.13,3.13,0,0,1-1.1455,2.5469,4.83,4.83,0,0,1-6.3965-.3946,5.408,5.408,0,0,1-1.2158-3.6465v-.2773A5.4419,5.4419,0,0,1,189.5,42.791a4.28,4.28,0,0,1,3.4561-1.4287,4.2154,4.2154,0,0,1,2.9912,1.0576,3.5139,3.5139,0,0,1,1.1,2.7832l-.0186.0557h-2.4678a1.96,1.96,0,0,0-.4267-1.294,1.4463,1.4463,0,0,0-1.1777-.5156,1.5733,1.5733,0,0,0-1.5176.834,4.5845,4.5845,0,0,0-.4405,2.1494v.2783a4.5681,4.5681,0,0,0,.4405,2.1631A1.587,1.587,0,0,0,192.965,49.6934Z"/><path class="f924e38d-99af-4ba7-9efd-77fe564e2bb7" d="M201.8059,39.09v2.4581h1.6894v1.9013h-1.6894v5.1123a1.18,1.18,0,0,0,.2421.835.8572.8572,0,0,0,.6485.25,2.4916,2.4916,0,0,0,.3672-.0225,3.3179,3.3179,0,0,0,.3574-.0791l.2314,1.9571a5.2717,5.2717,0,0,1-.7978.2089,4.7541,4.7541,0,0,1-.8438.07,2.8855,2.8855,0,0,1-2.1572-.77,3.3743,3.3743,0,0,1-.7568-2.44V43.4492H197.632V41.5479h1.4649V39.09Z"/><path class="f924e38d-99af-4ba7-9efd-77fe564e2bb7" d="M208.0676,39.1445h-2.709V37.1133h2.709Zm0,12.4414h-2.709V41.5479h2.709Z"/><path class="f924e38d-99af-4ba7-9efd-77fe564e2bb7" d="M209.8762,46.4746a5.3861,5.3861,0,0,1,1.2529-3.6787,4.3637,4.3637,0,0,1,3.47-1.4336,4.4128,4.4128,0,0,1,3.4883,1.4287,5.3589,5.3589,0,0,1,1.2617,3.6836v.1943a5.3666,5.3666,0,0,1-1.2568,3.6875,4.96,4.96,0,0,1-6.958,0,5.3623,5.3623,0,0,1-1.2578-3.6875Zm2.7.1895a4.3591,4.3591,0,0,0,.4824,2.2,1.8544,1.8544,0,0,0,3.0937-.0049,4.3191,4.3191,0,0,0,.4873-2.1953V46.47a4.2761,4.2761,0,0,0-.4921-2.1767,1.6625,1.6625,0,0,0-1.5489-.8438,1.6425,1.6425,0,0,0-1.5351.8487,4.3127,4.3127,0,0,0-.4873,2.1718Z"/><path class="f924e38d-99af-4ba7-9efd-77fe564e2bb7" d="M223.4953,41.5479l.1211,1.4384a3.6619,3.6619,0,0,1,1.2344-1.1972,3.2024,3.2024,0,0,1,1.6416-.4268,3.0184,3.0184,0,0,1,2.375.9561,4.4089,4.4089,0,0,1,.8535,2.9961v6.2714h-2.7178V45.31a2.0417,2.0417,0,0,0-.4082-1.4366,1.6418,1.6418,0,0,0-1.2344-.4238,2.0886,2.0886,0,0,0-.9648.2188,2.01,2.01,0,0,0-.7148.6181v7.3h-2.709V41.5479Z"/><path class="f924e38d-99af-4ba7-9efd-77fe564e2bb7" d="M240.91,45.9453h-1.503v5.6406h-2.709V38.0781h2.709v5.52h1.1778l3.582-5.52h3.3115l-4.5459,6.29,4.9082,7.2177h-3.3027Z"/><path class="f924e38d-99af-4ba7-9efd-77fe564e2bb7" d="M251.5969,39.1445h-2.709V37.1133h2.709Zm0,12.4414h-2.709V41.5479h2.709Z"/><path class="f924e38d-99af-4ba7-9efd-77fe564e2bb7" d="M257.0422,39.09v2.4581h1.6894v1.9013h-1.6894v5.1123a1.18,1.18,0,0,0,.2422.835.8568.8568,0,0,0,.6484.25,2.4906,2.4906,0,0,0,.3672-.0225,3.3127,3.3127,0,0,0,.3574-.0791l.2315,1.9571a5.276,5.276,0,0,1-.7979.2089,4.753,4.753,0,0,1-.8437.07,2.8856,2.8856,0,0,1-2.1573-.77,3.3748,3.3748,0,0,1-.7568-2.44V43.4492h-1.4648V41.5479h1.4648V39.09Z"/></g></svg>