<svg xmlns="http://www.w3.org/2000/svg" viewBox="0 0 317.3147 92.2344"><defs><style>.a66eb639-2f5f-4e8b-8547-0e6002a00f04{fill:#848484;}.eb64492c-b59d-4947-9a6f-394917ab03a7{fill:#fff;}</style></defs><g id="bb12e6ca-c8ef-41d2-8f5f-1a7c726b9d84" data-name="Layer 3"><rect class="a66eb639-2f5f-4e8b-8547-0e6002a00f04" width="317.3147" height="92.2344" rx="20"/><path class="eb64492c-b59d-4947-9a6f-394917ab03a7" d="M77.3509,46.0469a5.6641,5.6641,0,0,1-1.5723,4.11,5.4348,5.4348,0,0,1-4.0859,1.624,5.3687,5.3687,0,0,1-4.0547-1.624,5.694,5.694,0,0,1-1.5586-4.11v-2.43a5.7054,5.7054,0,0,1,1.5537-4.1055,5.3431,5.3431,0,0,1,4.05-1.6289,5.4434,5.4434,0,0,1,4.0918,1.6289,5.6617,5.6617,0,0,1,1.5762,4.1055Zm-2.709-2.4414a4.1012,4.1012,0,0,0-.7881-2.5938,2.598,2.598,0,0,0-2.1709-1.0137A2.5281,2.5281,0,0,0,69.54,41.0068a4.1973,4.1973,0,0,0-.7617,2.5987v2.4531a4.2147,4.2147,0,0,0,.77,2.6221,2.5412,2.5412,0,0,0,2.1436,1.0127,2.5832,2.5832,0,0,0,2.17-1.0127,4.1816,4.1816,0,0,0,.7793-2.6221Z"/><path class="eb64492c-b59d-4947-9a6f-394917ab03a7" d="M82.4622,39.09v2.4581h1.6894v1.9013H82.4622v5.1123a1.18,1.18,0,0,0,.2422.835.8568.8568,0,0,0,.6484.25,2.4906,2.4906,0,0,0,.3672-.0225,3.3127,3.3127,0,0,0,.3574-.0791l.2315,1.9571a5.276,5.276,0,0,1-.7979.2089,4.7538,4.7538,0,0,1-.8437.07,2.8856,2.8856,0,0,1-2.1573-.77,3.3748,3.3748,0,0,1-.7568-2.44V43.4492H78.2884V41.5479h1.4648V39.09Z"/><path class="eb64492c-b59d-4947-9a6f-394917ab03a7" d="M88.5218,42.8184a3.4406,3.4406,0,0,1,1.1591-1.0713,3.3427,3.3427,0,0,1,3.9844.6591,4.87,4.87,0,0,1,.8955,3.2237v5.956h-2.709V45.5977a2.5915,2.5915,0,0,0-.4131-1.66,1.52,1.52,0,0,0-1.2294-.4883,2.2958,2.2958,0,0,0-.9825.2,1.8835,1.8835,0,0,0-.705.5625v7.374h-2.709V37.1133h2.709Z"/><path class="eb64492c-b59d-4947-9a6f-394917ab03a7" d="M101.0452,51.7812a4.5174,4.5174,0,0,1-3.4688-1.3925,4.9735,4.9735,0,0,1-1.2988-3.5342v-.3711a5.4909,5.4909,0,0,1,1.2285-3.6826,4.5834,4.5834,0,0,1,6.4532-.2139,4.7141,4.7141,0,0,1,1.122,3.3115V47.374H99.0882L99.07,47.43a2.6049,2.6049,0,0,0,.6631,1.626,2.0738,2.0738,0,0,0,1.6006.6377,5.2264,5.2264,0,0,0,1.4931-.1807,6.8767,6.8767,0,0,0,1.2989-.5713l.7334,1.6748a5.0146,5.0146,0,0,1-1.6045.834A6.9572,6.9572,0,0,1,101.0452,51.7812Zm-.24-8.332a1.4082,1.4082,0,0,0-1.1875.5762,2.9894,2.9894,0,0,0-.5391,1.5117l.0283.0469h3.3213v-.2422a2.1752,2.1752,0,0,0-.4033-1.377A1.4543,1.4543,0,0,0,100.805,43.4492Z"/><path class="eb64492c-b59d-4947-9a6f-394917ab03a7" d="M111.9378,43.877l-.9932-.0284a1.7971,1.7971,0,0,0-.9932.251,1.5831,1.5831,0,0,0-.5937.7051v6.7812h-2.6992V41.5479h2.5136l.1211,1.4843a3.1678,3.1678,0,0,1,.9141-1.23,2.1391,2.1391,0,0,1,1.67-.4082c.1143.0225.23.0479.3477.0791Z"/><path class="eb64492c-b59d-4947-9a6f-394917ab03a7" d="M121.1409,51.5859h-2.709V38.0781h2.709Z"/><path class="eb64492c-b59d-4947-9a6f-394917ab03a7" d="M126.1311,41.5479l.1114,1.3271a3.3781,3.3781,0,0,1,1.2109-1.1182,3.4829,3.4829,0,0,1,1.6836-.3945,3.0726,3.0726,0,0,1,1.6523.4268,2.6391,2.6391,0,0,1,1.0391,1.289,3.4892,3.4892,0,0,1,1.2051-1.2617,3.2762,3.2762,0,0,1,1.7441-.4541,2.8927,2.8927,0,0,1,2.3428,1.0254,4.7843,4.7843,0,0,1,.8584,3.1221v6.0761H135.27v-6.1a2.5477,2.5477,0,0,0-.3711-1.59,1.3518,1.3518,0,0,0-1.1035-.4473,1.8948,1.8948,0,0,0-.9981.2559,1.8582,1.8582,0,0,0-.6718.7119c0,.1172.0029.2187.0088.3017s.0087.169.0087.2559v6.6113h-2.6992v-6.1a2.5571,2.5571,0,0,0-.3711-1.5761,1.3446,1.3446,0,0,0-1.1132-.461,2.09,2.09,0,0,0-.96.21,1.8479,1.8479,0,0,0-.6826.59v7.3369h-2.6992V41.5479Z"/><path class="eb64492c-b59d-4947-9a6f-394917ab03a7" d="M149.1116,46.8457a5.7675,5.7675,0,0,1-1.0293,3.58,3.4088,3.4088,0,0,1-2.877,1.3554,3.2066,3.2066,0,0,1-1.4-.2929,2.8791,2.8791,0,0,1-1.0489-.8574v4.8144h-2.6992V41.5479h2.4395l.1582,1.1875a3.2171,3.2171,0,0,1,1.0713-1.0157,2.9,2.9,0,0,1,1.4619-.3574,3.3433,3.3433,0,0,1,2.8945,1.4561,6.5117,6.5117,0,0,1,1.0293,3.832Zm-2.709-.209a4.8845,4.8845,0,0,0-.4726-2.3047,1.5461,1.5461,0,0,0-1.4473-.8828,2.0456,2.0456,0,0,0-1.044.251,1.8011,1.8011,0,0,0-.6826.7158V48.82a1.6766,1.6766,0,0,0,.6826.65,2.2954,2.2954,0,0,0,1.0616.2227,1.558,1.558,0,0,0,1.4433-.7715,4.0789,4.0789,0,0,0,.459-2.09Z"/><path class="eb64492c-b59d-4947-9a6f-394917ab03a7" d="M153.6292,51.5859H150.92V37.1133h2.709Z"/><path class="eb64492c-b59d-4947-9a6f-394917ab03a7" d="M160.3,51.7812a4.5174,4.5174,0,0,1-3.4688-1.3925,4.9735,4.9735,0,0,1-1.2988-3.5342v-.3711a5.4909,5.4909,0,0,1,1.2285-3.6826,4.5833,4.5833,0,0,1,6.4531-.2139,4.7137,4.7137,0,0,1,1.1221,3.3115V47.374H158.343l-.0185.0557a2.6049,2.6049,0,0,0,.6631,1.626,2.0738,2.0738,0,0,0,1.6006.6377,5.2264,5.2264,0,0,0,1.4931-.1807,6.8767,6.8767,0,0,0,1.2989-.5713l.7334,1.6748a5.0157,5.0157,0,0,1-1.6045.834A6.9576,6.9576,0,0,1,160.3,51.7812Zm-.24-8.332a1.4085,1.4085,0,0,0-1.1875.5762,2.9894,2.9894,0,0,0-.539,1.5117l.0283.0469h3.3213v-.2422a2.1752,2.1752,0,0,0-.4033-1.377A1.4545,1.4545,0,0,0,160.06,43.4492Z"/><path class="eb64492c-b59d-4947-9a6f-394917ab03a7" d="M168.427,41.5479l.1114,1.3271a3.3781,3.3781,0,0,1,1.2109-1.1182,3.4829,3.4829,0,0,1,1.6836-.3945,3.0726,3.0726,0,0,1,1.6523.4268,2.6391,2.6391,0,0,1,1.0391,1.289,3.4892,3.4892,0,0,1,1.2051-1.2617,3.2762,3.2762,0,0,1,1.7441-.4541,2.8927,2.8927,0,0,1,2.3428,1.0254,4.7843,4.7843,0,0,1,.8584,3.1221v6.0761h-2.709v-6.1a2.5477,2.5477,0,0,0-.3711-1.59,1.3518,1.3518,0,0,0-1.1035-.4473,1.8948,1.8948,0,0,0-.9981.2559,1.8582,1.8582,0,0,0-.6718.7119c0,.1172.0029.2187.0088.3017s.0087.169.0087.2559v6.6113H171.74v-6.1a2.5571,2.5571,0,0,0-.3711-1.5761,1.3446,1.3446,0,0,0-1.1132-.461,2.09,2.09,0,0,0-.96.21,1.8479,1.8479,0,0,0-.6826.59v7.3369h-2.6992V41.5479Z"/><path class="eb64492c-b59d-4947-9a6f-394917ab03a7" d="M186.7962,51.7812a4.5174,4.5174,0,0,1-3.4688-1.3925,4.9735,4.9735,0,0,1-1.2988-3.5342v-.3711a5.4909,5.4909,0,0,1,1.2285-3.6826,4.5833,4.5833,0,0,1,6.4531-.2139,4.7137,4.7137,0,0,1,1.1221,3.3115V47.374h-5.9932l-.0185.0557a2.6049,2.6049,0,0,0,.6631,1.626,2.0737,2.0737,0,0,0,1.6006.6377,5.2264,5.2264,0,0,0,1.4931-.1807,6.8733,6.8733,0,0,0,1.2988-.5713l.7334,1.6748a5.014,5.014,0,0,1-1.6044.834A6.9576,6.9576,0,0,1,186.7962,51.7812Zm-.24-8.332a1.4085,1.4085,0,0,0-1.1875.5762,2.9894,2.9894,0,0,0-.539,1.5117l.0283.0469h3.3213v-.2422a2.1752,2.1752,0,0,0-.4033-1.377A1.4545,1.4545,0,0,0,186.5559,43.4492Z"/><path class="eb64492c-b59d-4947-9a6f-394917ab03a7" d="M194.886,41.5479l.1211,1.4384a3.6619,3.6619,0,0,1,1.2344-1.1972,3.2024,3.2024,0,0,1,1.6416-.4268,3.0184,3.0184,0,0,1,2.375.9561,4.4089,4.4089,0,0,1,.8535,2.9961v6.2714h-2.7178V45.31a2.0417,2.0417,0,0,0-.4082-1.4366,1.6418,1.6418,0,0,0-1.2344-.4238,2.0886,2.0886,0,0,0-.9648.2188,2.01,2.01,0,0,0-.7148.6181v7.3h-2.709V41.5479Z"/><path class="eb64492c-b59d-4947-9a6f-394917ab03a7" d="M206.3528,39.09v2.4581h1.69v1.9013h-1.69v5.1123a1.18,1.18,0,0,0,.2422.835.8569.8569,0,0,0,.6484.25,2.4906,2.4906,0,0,0,.3672-.0225,3.3127,3.3127,0,0,0,.3574-.0791L208.2,51.502a5.276,5.276,0,0,1-.7979.2089,4.753,4.753,0,0,1-.8437.07,2.8853,2.8853,0,0,1-2.1572-.77,3.3743,3.3743,0,0,1-.7569-2.44V43.4492H202.179V41.5479h1.4648V39.09Z"/><path class="eb64492c-b59d-4947-9a6f-394917ab03a7" d="M215.6575,51.5859a5.7437,5.7437,0,0,1-.2549-.7236,5.0618,5.0618,0,0,1-.1533-.7793,3.7368,3.7368,0,0,1-1.0986,1.2158,2.7486,2.7486,0,0,1-1.628.4824,3.3888,3.3888,0,0,1-2.4316-.8125,2.91,2.91,0,0,1-.8535-2.2128,2.6465,2.6465,0,0,1,1.1367-2.2862,5.6773,5.6773,0,0,1,3.3164-.8115h1.5127v-.7988a1.5629,1.5629,0,0,0-.38-1.1221,1.7748,1.7748,0,0,0-2.1387-.0791,1.13,1.13,0,0,0-.3574.8867l-2.6162-.01-.0088-.0557a2.5477,2.5477,0,0,1,1.1035-2.1943,4.8111,4.8111,0,0,1,3.07-.9229,4.4818,4.4818,0,0,1,2.9229.9141,3.1646,3.1646,0,0,1,1.1221,2.6025v4.1465a7.8184,7.8184,0,0,0,.1074,1.3262,6.6067,6.6067,0,0,0,.3379,1.2343Zm-2.4766-1.8086a2.323,2.323,0,0,0,1.2715-.3535,1.8288,1.8288,0,0,0,.751-.8164V47.1885h-1.5127a1.8064,1.8064,0,0,0-1.3076.4316,1.4,1.4,0,0,0-.4453,1.044,1.0417,1.0417,0,0,0,.334.8066A1.2933,1.2933,0,0,0,213.1809,49.7773Z"/><path class="eb64492c-b59d-4947-9a6f-394917ab03a7" d="M223.1907,39.09v2.4581h1.69v1.9013h-1.69v5.1123a1.18,1.18,0,0,0,.2422.835.8568.8568,0,0,0,.6484.25,2.4906,2.4906,0,0,0,.3672-.0225,3.3127,3.3127,0,0,0,.3574-.0791l.2315,1.9571a5.276,5.276,0,0,1-.7979.2089,4.753,4.753,0,0,1-.8437.07,2.8853,2.8853,0,0,1-2.1572-.77,3.3743,3.3743,0,0,1-.7569-2.44V43.4492h-1.4648V41.5479h1.4648V39.09Z"/><path class="eb64492c-b59d-4947-9a6f-394917ab03a7" d="M229.4524,39.1445h-2.709V37.1133h2.709Zm0,12.4414h-2.709V41.5479h2.709Z"/><path class="eb64492c-b59d-4947-9a6f-394917ab03a7" d="M231.262,46.4746a5.3866,5.3866,0,0,1,1.2529-3.6787,4.3637,4.3637,0,0,1,3.47-1.4336,4.4128,4.4128,0,0,1,3.4883,1.4287,5.3589,5.3589,0,0,1,1.2617,3.6836v.1943a5.3666,5.3666,0,0,1-1.2568,3.6875,4.96,4.96,0,0,1-6.958,0,5.3623,5.3623,0,0,1-1.2578-3.6875Zm2.7.1895a4.3591,4.3591,0,0,0,.4824,2.2,1.8545,1.8545,0,0,0,3.0938-.0049,4.3191,4.3191,0,0,0,.4873-2.1953V46.47a4.2761,4.2761,0,0,0-.4922-2.1767,1.6625,1.6625,0,0,0-1.5489-.8438,1.6425,1.6425,0,0,0-1.5351.8487,4.3127,4.3127,0,0,0-.4873,2.1718Z"/><path class="eb64492c-b59d-4947-9a6f-394917ab03a7" d="M244.8811,41.5479l.1211,1.4384a3.6619,3.6619,0,0,1,1.2344-1.1972,3.2027,3.2027,0,0,1,1.6416-.4268,3.0183,3.0183,0,0,1,2.375.9561,4.4089,4.4089,0,0,1,.8535,2.9961v6.2714h-2.7178V45.31a2.0417,2.0417,0,0,0-.4082-1.4366,1.6417,1.6417,0,0,0-1.2343-.4238,2.089,2.089,0,0,0-.9649.2188,2.0107,2.0107,0,0,0-.7148.6181v7.3h-2.709V41.5479Z"/></g></svg>