<svg xmlns="http://www.w3.org/2000/svg" viewBox="0 0 964.25 201"><defs><style>.ba0a03ba-4239-4dcd-98de-bd38de000a1b{fill:#4f075a;}.be786c1e-e621-41bc-8fd3-65001b8745aa{fill:#fff;}.a7cf090b-1c03-4444-a62a-3099baa9bb62{fill:none;stroke:#fff;stroke-miterlimit:10;stroke-width:3px;}</style></defs><g id="fadb46c9-0ff4-46c7-99ba-3d7f720f40d2" data-name="Layer 2"><rect class="ba0a03ba-4239-4dcd-98de-bd38de000a1b" width="964.25" height="201" rx="20"/></g><g id="f0d18c58-79af-469d-9234-44af8ccc936c" data-name="Layer 3"><path class="be786c1e-e621-41bc-8fd3-65001b8745aa" d="M205.75,77.9688v-3.5h-7.5V69.4063h-4.375v-8.25h-3.5v8.25h-5.3125v-8.25h-3.5v8.25h-5.875v-8.25h-3.5v8.25H166.375v-8.25h-3.5v8.25H157v-8.25h-3.5v8.25h-5.75v5.0625h-7.5v3.5h7.5v5.875h-7.5v3.5h7.5v5.8125h-7.5v3.5h7.5v5.875h-7.5v3.5h7.5v5.3125h-7.5v3.5h7.5v5.0625h5.75v6.75H157v-6.75h5.875v6.75h3.5v-6.75h5.8125v6.75h3.5v-6.75h5.875v6.75h3.5v-6.75h5.3125v6.75h3.5v-6.75h4.375v-5.0625h7.5v-3.5h-7.5v-5.3125h7.5v-3.5h-7.5v-5.875h7.5v-3.5h-7.5V87.3438h7.5v-3.5h-7.5v-5.875Zm-12.375,37.4375h-40.75V73.5313h40.75Z"/><rect class="a7cf090b-1c03-4444-a62a-3099baa9bb62" x="162.5625" y="84.0938" width="20.875" height="20.875"/><path class="be786c1e-e621-41bc-8fd3-65001b8745aa" d="M408.75,77.9688v-3.5h-7.5V69.4063h-4.375v-8.25h-3.5v8.25h-5.3125v-8.25h-3.5v8.25h-5.875v-8.25h-3.5v8.25H369.375v-8.25h-3.5v8.25H360v-8.25h-3.5v8.25h-5.75v5.0625h-7.5v3.5h7.5v5.875h-7.5v3.5h7.5v5.8125h-7.5v3.5h7.5v5.875h-7.5v3.5h7.5v5.3125h-7.5v3.5h7.5v5.0625h5.75v6.75H360v-6.75h5.875v6.75h3.5v-6.75h5.8125v6.75h3.5v-6.75h5.875v6.75h3.5v-6.75h5.3125v6.75h3.5v-6.75h4.375v-5.0625h7.5v-3.5h-7.5v-5.3125h7.5v-3.5h-7.5v-5.875h7.5v-3.5h-7.5V87.3438h7.5v-3.5h-7.5v-5.875Zm-12.375,37.4375h-40.75V73.5313h40.75Z"/><rect class="a7cf090b-1c03-4444-a62a-3099baa9bb62" x="365.5625" y="84.0938" width="20.875" height="20.875"/><path class="be786c1e-e621-41bc-8fd3-65001b8745aa" d="M613.75,77.9688v-3.5h-7.5V69.4063h-4.375v-8.25h-3.5v8.25h-5.3125v-8.25h-3.5v8.25h-5.875v-8.25h-3.5v8.25H574.375v-8.25h-3.5v8.25H565v-8.25h-3.5v8.25h-5.75v5.0625h-7.5v3.5h7.5v5.875h-7.5v3.5h7.5v5.8125h-7.5v3.5h7.5v5.875h-7.5v3.5h7.5v5.3125h-7.5v3.5h7.5v5.0625h5.75v6.75H565v-6.75h5.875v6.75h3.5v-6.75h5.8125v6.75h3.5v-6.75h5.875v6.75h3.5v-6.75h5.3125v6.75h3.5v-6.75h4.375v-5.0625h7.5v-3.5h-7.5v-5.3125h7.5v-3.5h-7.5v-5.875h7.5v-3.5h-7.5V87.3438h7.5v-3.5h-7.5v-5.875Zm-12.375,37.4375h-40.75V73.5313h40.75Z"/><rect class="a7cf090b-1c03-4444-a62a-3099baa9bb62" x="570.5625" y="84.0938" width="20.875" height="20.875"/><path class="be786c1e-e621-41bc-8fd3-65001b8745aa" d="M816.75,77.9688v-3.5h-7.5V69.4063h-4.375v-8.25h-3.5v8.25h-5.3125v-8.25h-3.5v8.25h-5.875v-8.25h-3.5v8.25H777.375v-8.25h-3.5v8.25H768v-8.25h-3.5v8.25h-5.75v5.0625h-7.5v3.5h7.5v5.875h-7.5v3.5h7.5v5.8125h-7.5v3.5h7.5v5.875h-7.5v3.5h7.5v5.3125h-7.5v3.5h7.5v5.0625h5.75v6.75H768v-6.75h5.875v6.75h3.5v-6.75h5.8125v6.75h3.5v-6.75h5.875v6.75h3.5v-6.75h5.3125v6.75h3.5v-6.75h4.375v-5.0625h7.5v-3.5h-7.5v-5.3125h7.5v-3.5h-7.5v-5.875h7.5v-3.5h-7.5V87.3438h7.5v-3.5h-7.5v-5.875Zm-12.375,37.4375h-40.75V73.5313h40.75Z"/><rect class="a7cf090b-1c03-4444-a62a-3099baa9bb62" x="773.5625" y="84.0938" width="20.875" height="20.875"/><path class="be786c1e-e621-41bc-8fd3-65001b8745aa" d="M166.4468,152.084l.0166.0508a3.8065,3.8065,0,0,1-1.1909,2.9834,4.6494,4.6494,0,0,1-3.3164,1.1494,4.4841,4.4841,0,0,1-3.44-1.4229,5.134,5.134,0,0,1-1.3242-3.64v-2.3a5.1878,5.1878,0,0,1,1.3076-3.64,4.3862,4.3862,0,0,1,3.3989-1.4316,4.8225,4.8225,0,0,1,3.3746,1.124,3.8019,3.8019,0,0,1,1.1992,3.0264l-.0166.0488h-1.9507a2.3409,2.3409,0,0,0-2.6065-2.5811,2.3181,2.3181,0,0,0-1.9633.9786,4.0082,4.0082,0,0,0-.7261,2.455v2.3135a3.9709,3.9709,0,0,0,.7427,2.4717,2.3866,2.3866,0,0,0,2.0049.9785,2.5262,2.5262,0,0,0,1.9008-.67,2.6182,2.6182,0,0,0,.6475-1.8955Z"/><path class="be786c1e-e621-41bc-8fd3-65001b8745aa" d="M170.4561,151.5117v4.582H168.439V144.0078h4.7231a4.4813,4.4813,0,0,1,3.1338,1.0332,3.8383,3.8383,0,0,1,0,5.4453,4.5016,4.5016,0,0,1-3.1338,1.0254Zm0-1.6191h2.706a2.2111,2.2111,0,0,0,1.6851-.5977,2.1221,2.1221,0,0,0,.5644-1.5185,2.0358,2.0358,0,0,0-2.2495-2.1494h-2.706Z"/><path class="be786c1e-e621-41bc-8fd3-65001b8745aa" d="M188.6016,144.0078v8.1016a3.7581,3.7581,0,0,1-1.3116,3.084,5.2344,5.2344,0,0,1-3.4282,1.0742A5.06,5.06,0,0,1,180.5,155.19a3.7954,3.7954,0,0,1-1.2866-3.08v-8.1016h2.0171v8.0957a2.4274,2.4274,0,0,0,.7138,1.9072,2.77,2.77,0,0,0,1.9175.6387,2.9291,2.9291,0,0,0,1.9839-.6387,2.3836,2.3836,0,0,0,.7388-1.9072v-8.0957Z"/><path class="be786c1e-e621-41bc-8fd3-65001b8745aa" d="M369.3008,154.459a4.2155,4.2155,0,0,1-1.58,1.249,6.2319,6.2319,0,0,1-2.8271.56,4.9226,4.9226,0,0,1-3.5948-1.3819,4.7814,4.7814,0,0,1-1.41-3.5732v-2.5234a4.9311,4.9311,0,0,1,1.332-3.5733,4.5656,4.5656,0,0,1,3.44-1.3818,4.82,4.82,0,0,1,3.3155,1.05,3.5626,3.5626,0,0,1,1.2089,2.7353l-.0175.0489H367.26a2.336,2.336,0,0,0-.711-1.6055,2.601,2.601,0,0,0-1.8633-.61,2.489,2.489,0,0,0-2.0214.9366,3.6351,3.6351,0,0,0-.7676,2.3808v2.5371a3.493,3.493,0,0,0,.834,2.4014,2.7554,2.7554,0,0,0,2.1631.9414,4.48,4.48,0,0,0,1.5361-.22,2.1213,2.1213,0,0,0,.8545-.5176v-2.45h-2.3994v-1.5107h4.416Z"/><path class="be786c1e-e621-41bc-8fd3-65001b8745aa" d="M373.792,151.5117v4.582h-2.0166V144.0078h4.7226a4.48,4.48,0,0,1,3.1338,1.0332,3.8383,3.8383,0,0,1,0,5.4453,4.5005,4.5005,0,0,1-3.1338,1.0254Zm0-1.6191h2.706a2.2131,2.2131,0,0,0,1.6856-.5977,2.1238,2.1238,0,0,0,.5644-1.5185,2.0359,2.0359,0,0,0-2.25-2.1494h-2.706Z"/><path class="be786c1e-e621-41bc-8fd3-65001b8745aa" d="M391.9375,144.0078v8.1016a3.76,3.76,0,0,1-1.3115,3.084,5.2331,5.2331,0,0,1-3.4287,1.0742,5.0589,5.0589,0,0,1-3.3614-1.0781,3.7972,3.7972,0,0,1-1.2871-3.08v-8.1016h2.0176v8.0957a2.4288,2.4288,0,0,0,.7139,1.9072,2.7684,2.7684,0,0,0,1.917.6387,2.9293,2.9293,0,0,0,1.9843-.6387,2.3849,2.3849,0,0,0,.7383-1.9072v-8.0957Z"/><path class="be786c1e-e621-41bc-8fd3-65001b8745aa" d="M567.9922,150.94h-5.2949v5.1542H560.68V144.0078h8.16v1.6192h-6.1425V149.32h5.2949Z"/><path class="be786c1e-e621-41bc-8fd3-65001b8745aa" d="M572.5586,151.5117v4.582H570.541V144.0078h4.7227a4.4827,4.4827,0,0,1,3.1347,1.0332,3.8381,3.8381,0,0,1,0,5.4453,4.5029,4.5029,0,0,1-3.1347,1.0254Zm0-1.6191h2.7051a2.2113,2.2113,0,0,0,1.6855-.5977,2.12,2.12,0,0,0,.5645-1.5185,2.036,2.036,0,0,0-2.25-2.1494h-2.7051Z"/><path class="be786c1e-e621-41bc-8fd3-65001b8745aa" d="M590.5293,154.459a4.2117,4.2117,0,0,1-1.5811,1.249,6.2287,6.2287,0,0,1-2.8271.56,4.922,4.922,0,0,1-3.5938-1.3819,4.7784,4.7784,0,0,1-1.4111-3.5732v-2.5234a4.9353,4.9353,0,0,1,1.332-3.5733,4.5657,4.5657,0,0,1,3.44-1.3818,4.8246,4.8246,0,0,1,3.3164,1.05,3.5589,3.5589,0,0,1,1.208,2.7353l-.0166.0489h-1.9092a2.33,2.33,0,0,0-.71-1.6055,2.6041,2.6041,0,0,0-1.8632-.61,2.4864,2.4864,0,0,0-2.0215.9366,3.6356,3.6356,0,0,0-.7676,2.3808v2.5371a3.4882,3.4882,0,0,0,.834,2.4014,2.7548,2.7548,0,0,0,2.1621.9414,4.4791,4.4791,0,0,0,1.5361-.22,2.1135,2.1135,0,0,0,.8545-.5176v-2.45h-2.3984v-1.5107h4.416Z"/><path class="be786c1e-e621-41bc-8fd3-65001b8745aa" d="M599.5527,153.2715H594.82l-.9629,2.8222h-2.041l4.44-12.0859h1.9092l4.3906,12.0859h-2.05Zm-4.15-1.6856H598.98l-1.751-5.1621h-.0508Z"/><path class="be786c1e-e621-41bc-8fd3-65001b8745aa" d="M737.2422,151.1387a5.11,5.11,0,0,1-1.3906,3.6728,4.7641,4.7641,0,0,1-3.6075,1.4561,4.605,4.605,0,0,1-3.5312-1.4561,5.1822,5.1822,0,0,1-1.3574-3.6728v-2.1758a5.1818,5.1818,0,0,1,1.3574-3.668,4.5855,4.5855,0,0,1,3.5234-1.4609,4.7666,4.7666,0,0,1,3.6114,1.4609,5.1008,5.1008,0,0,1,1.3945,3.668Zm-2.01-2.1914a3.7487,3.7487,0,0,0-.8086-2.4825,2.6991,2.6991,0,0,0-2.1875-.9707,2.5378,2.5378,0,0,0-2.1.9707,3.8609,3.8609,0,0,0-.7724,2.4825v2.1914a3.904,3.904,0,0,0,.7724,2.5019,2.5408,2.5408,0,0,0,2.1074.9756,2.68,2.68,0,0,0,2.1875-.9717,3.8053,3.8053,0,0,0,.8008-2.5058Z"/><path class="be786c1e-e621-41bc-8fd3-65001b8745aa" d="M747.4434,145.627H743.791v10.4667h-2.0176V145.627h-3.6523v-1.6192h9.3223Z"/><path class="be786c1e-e621-41bc-8fd3-65001b8745aa" d="M758.459,156.0937h-2.01V150.94h-5.4121v5.1542h-2.0166V144.0078h2.0166V149.32h5.4121v-5.3125h2.01Z"/><path class="be786c1e-e621-41bc-8fd3-65001b8745aa" d="M768.4111,150.6562H763.123v3.8184h6.1348v1.6191h-8.1514V144.0078h8.0928v1.6192H763.123v3.4111h5.2881Z"/><path class="be786c1e-e621-41bc-8fd3-65001b8745aa" d="M772.9766,151.08v5.0136H770.959V144.0078h4.4668a4.786,4.786,0,0,1,3.1289.9131,3.1893,3.1893,0,0,1,1.1035,2.6064,2.69,2.69,0,0,1-.4853,1.6143,3.3255,3.3255,0,0,1-1.4151,1.083,2.5337,2.5337,0,0,1,1.4688,1.0586,3.4088,3.4088,0,0,1,.4492,1.8057v1.0048a4.0588,4.0588,0,0,0,.1328,1.0372,1.4507,1.4507,0,0,0,.4473.7714v.1914h-2.0743a1.3509,1.3509,0,0,1-.4277-.8632,7.122,7.122,0,0,1-.0957-1.1543v-.9707a2.0361,2.0361,0,0,0-.5312-1.4776,1.9406,1.9406,0,0,0-1.461-.5478Zm0-1.6192h2.3408a2.7365,2.7365,0,0,0,1.7685-.4648,1.7462,1.7462,0,0,0,.5557-1.419,1.8769,1.8769,0,0,0-.5478-1.4316,2.3466,2.3466,0,0,0-1.668-.5185h-2.4492Z"/><path class="be786c1e-e621-41bc-8fd3-65001b8745aa" d="M792.998,153.2715h-4.7314l-.9629,2.8222h-2.042l4.4414-12.0859h1.9082l4.3916,12.0859h-2.05Zm-4.15-1.6856h3.5781l-1.752-5.1621h-.05Z"/><path class="be786c1e-e621-41bc-8fd3-65001b8745aa" d="M806.2207,152.084l.0176.0508a3.8069,3.8069,0,0,1-1.1914,2.9834,4.6494,4.6494,0,0,1-3.3164,1.1494,4.4835,4.4835,0,0,1-3.4405-1.4229,5.134,5.134,0,0,1-1.3242-3.64v-2.3a5.1878,5.1878,0,0,1,1.3076-3.64,4.3852,4.3852,0,0,1,3.3985-1.4316,4.8238,4.8238,0,0,1,3.375,1.124,3.8035,3.8035,0,0,1,1.1992,3.0264l-.0166.0488h-1.95a2.3416,2.3416,0,0,0-2.6074-2.5811,2.3182,2.3182,0,0,0-1.9629.9786,4.0052,4.0052,0,0,0-.7266,2.455v2.3135a3.9711,3.9711,0,0,0,.7432,2.4717,2.3855,2.3855,0,0,0,2.0049.9785,2.5246,2.5246,0,0,0,1.9-.67,2.619,2.619,0,0,0,.6484-1.8955Z"/><path class="be786c1e-e621-41bc-8fd3-65001b8745aa" d="M817.0283,152.084l.0176.0508a3.81,3.81,0,0,1-1.1914,2.9834,4.6494,4.6494,0,0,1-3.3164,1.1494,4.4848,4.4848,0,0,1-3.44-1.4229,5.1337,5.1337,0,0,1-1.3243-3.64v-2.3a5.1874,5.1874,0,0,1,1.3077-3.64,4.387,4.387,0,0,1,3.3994-1.4316,4.8211,4.8211,0,0,1,3.374,1.124,3.8,3.8,0,0,1,1.1992,3.0264l-.0166.0488h-1.9512a2.34,2.34,0,0,0-2.6054-2.5811,2.3187,2.3187,0,0,0-1.9639.9786,4.0112,4.0112,0,0,0-.7256,2.455v2.3135a3.9707,3.9707,0,0,0,.7422,2.4717,2.388,2.388,0,0,0,2.0049.9785,2.5286,2.5286,0,0,0,1.9014-.67,2.6182,2.6182,0,0,0,.6464-1.8955Z"/><path class="be786c1e-e621-41bc-8fd3-65001b8745aa" d="M826.3262,150.6562h-5.2881v3.8184h6.1338v1.6191h-8.15V144.0078h8.0928v1.6192h-6.0762v3.4111h5.2881Z"/><path class="be786c1e-e621-41bc-8fd3-65001b8745aa" d="M830.8916,154.4746h5.5537v1.6191h-7.57V144.0078h2.0166Z"/><path class="be786c1e-e621-41bc-8fd3-65001b8745aa" d="M840.0313,156.0937h-2.01V154.16h2.01Z"/></g></svg>