<?xml version="1.0" encoding="utf-8"?>
<!-- Generator: Adobe Illustrator 22.0.1, SVG Export Plug-In . SVG Version: 6.00 Build 0)  -->
<svg version="1.1" xmlns="http://www.w3.org/2000/svg" xmlns:xlink="http://www.w3.org/1999/xlink" x="0px" y="0px"
	 viewBox="0 0 1550.5 514.4" style="enable-background:new 0 0 1550.5 514.4;" xml:space="preserve">
<style type="text/css">
	.st0{fill:#FFFFFF;}
	.st1{opacity:0.46;}
	.st2{fill:url(#SVGID_1_);}
</style>
<g id="Layer_2">
	<g>
		<path class="st0" d="M458.7,246.8L431,330.5h-35.5l90.4-266.1h41.5l90.8,266.1h-36.7L553,246.8H458.7z M545.9,219.9l-26.1-76.6
			c-5.9-17.4-9.9-33.2-13.8-48.6h-0.8c-3.9,15.8-8.3,32-13.4,48.2l-26.1,77H545.9z"/>
		<path class="st0" d="M787.6,323.4c-9.1,4.7-29.2,11.1-54.9,11.1c-57.7,0-95.2-39.1-95.2-97.5c0-58.8,40.3-101.5,102.7-101.5
			c20.5,0,38.7,5.1,48.2,9.9l-7.9,26.9c-8.3-4.7-21.3-9.1-40.3-9.1c-43.8,0-67.5,32.4-67.5,72.3c0,44.2,28.4,71.5,66.3,71.5
			c19.7,0,32.8-5.1,42.6-9.5L787.6,323.4z"/>
		<path class="st0" d="M998.9,233.4c0,70.7-49,101.5-95.2,101.5c-51.7,0-91.6-37.9-91.6-98.3c0-64,41.9-101.5,94.8-101.5
			C961.7,135,998.9,174.9,998.9,233.4z M847.2,235.3c0,41.9,24.1,73.4,58,73.4c33.2,0,58-31.2,58-74.2c0-32.4-16.2-73.4-57.3-73.4
			C865,161.1,847.2,199,847.2,235.3z"/>
		<path class="st0" d="M1042.7,199c0-22.5-0.4-41.9-1.6-59.6h30.4l1.2,37.5h1.6c8.7-25.7,29.6-41.9,52.9-41.9c3.9,0,6.7,0.4,9.9,1.2
			V169c-3.6-0.8-7.1-1.2-11.8-1.2c-24.5,0-41.9,18.6-46.6,44.6c-0.8,4.7-1.6,10.3-1.6,16.2v101.9h-34.4V199z"/>
		<path class="st0" d="M1275.7,330.5l-2.8-24.1h-1.2c-10.7,15-31.2,28.4-58.4,28.4c-38.7,0-58.4-27.2-58.4-54.9
			c0-46.2,41.1-71.5,114.9-71.1v-3.9c0-15.8-4.3-44.2-43.4-44.2c-17.8,0-36.3,5.5-49.8,14.2l-7.9-22.9c15.8-10.3,38.7-17,62.8-17
			c58.4,0,72.7,39.9,72.7,78.2v71.5c0,16.6,0.8,32.8,3.2,45.8H1275.7z M1270.5,233c-37.9-0.8-80.9,5.9-80.9,43
			c0,22.5,15,33.2,32.8,33.2c24.9,0,40.7-15.8,46.2-32c1.2-3.6,2-7.5,2-11.1V233z"/>
		<path class="st0" d="M1360.2,191.1c0-19.7-0.4-35.9-1.6-51.7h30.8l2,31.6h0.8c9.5-18.2,31.6-35.9,63.2-35.9
			c26.5,0,67.5,15.8,67.5,81.3v114.1h-34.7V220.3c0-30.8-11.5-56.5-44.2-56.5c-22.9,0-40.7,16.2-46.6,35.5
			c-1.6,4.3-2.4,10.3-2.4,16.2v114.9h-34.7V191.1z"/>
	</g>
	<g class="st1">
		<path class="st0" d="M24.2,415.9H0.4v-8.6h57.8v8.6H34.4v69.5H24.2V415.9z"/>
		<path class="st0" d="M65.8,403.2H76v35h0.2c1.6-2.9,4.2-5.4,7.3-7.2c3-1.7,6.6-2.9,10.4-2.9c7.5,0,19.6,4.6,19.6,24v33.4h-10.2
			v-32.2c0-9-3.4-16.7-13-16.7c-6.6,0-11.8,4.6-13.7,10.2c-0.6,1.4-0.7,2.9-0.7,4.9v33.8H65.8V403.2z"/>
		<path class="st0" d="M135.8,459.3c0.2,13.8,9,19.5,19.2,19.5c7.3,0,11.7-1.3,15.5-2.9l1.7,7.3c-3.6,1.6-9.7,3.5-18.7,3.5
			c-17.3,0-27.6-11.4-27.6-28.3c0-16.9,10-30.3,26.3-30.3c18.3,0,23.2,16.1,23.2,26.4c0,2.1-0.2,3.7-0.3,4.8H135.8z M165.7,452
			c0.1-6.5-2.7-16.6-14.1-16.6c-10.3,0-14.8,9.5-15.6,16.6H165.7z"/>
		<path class="st0" d="M279.9,445.6c0,26.9-16.3,41.1-36.3,41.1c-20.6,0-35.1-16-35.1-39.6c0-24.8,15.4-41,36.3-41
			C266.1,406.1,279.9,422.4,279.9,445.6z M219.3,446.9c0,16.7,9,31.6,24.9,31.6c16,0,25-14.7,25-32.5c0-15.5-8.1-31.8-24.9-31.8
			C227.6,414.3,219.3,429.7,219.3,446.9z"/>
		<path class="st0" d="M292.6,447.7c0-7.2-0.2-13-0.5-18.3h9.2l0.5,9.6h0.2c4.2-6.8,10.8-10.9,19.9-10.9c13.6,0,23.8,11.5,23.8,28.5
			c0,20.2-12.3,30.1-25.5,30.1c-7.4,0-13.9-3.2-17.3-8.8h-0.2v30.5h-10.1V447.7z M302.7,462.6c0,1.5,0.2,2.9,0.5,4.2
			c1.9,7.1,8,11.9,15.3,11.9c10.8,0,17-8.8,17-21.7c0-11.2-5.9-20.9-16.7-20.9c-7,0-13.4,5-15.4,12.6c-0.3,1.3-0.7,2.8-0.7,4.2
			V462.6z"/>
		<path class="st0" d="M364.3,459.3c0.2,13.8,9,19.5,19.2,19.5c7.3,0,11.7-1.3,15.5-2.9l1.7,7.3c-3.6,1.6-9.7,3.5-18.7,3.5
			c-17.3,0-27.6-11.4-27.6-28.3c0-16.9,10-30.3,26.3-30.3c18.3,0,23.2,16.1,23.2,26.4c0,2.1-0.2,3.7-0.3,4.8H364.3z M394.2,452
			c0.1-6.5-2.7-16.6-14.1-16.6c-10.3,0-14.8,9.5-15.6,16.6H394.2z"/>
		<path class="st0" d="M416.6,444.6c0-5.8-0.1-10.5-0.5-15.2h9l0.6,9.3h0.2c2.8-5.3,9.3-10.5,18.5-10.5c7.8,0,19.8,4.6,19.8,23.9
			v33.5h-10.2v-32.3c0-9-3.4-16.6-13-16.6c-6.7,0-11.9,4.8-13.7,10.4c-0.5,1.3-0.7,3-0.7,4.8v33.7h-10.2V444.6z"/>
		<path class="st0" d="M518.5,460.9l-8.1,24.6H500l26.5-78.1h12.2l26.7,78.1h-10.8l-8.3-24.6H518.5z M544.1,453l-7.6-22.5
			c-1.7-5.1-2.9-9.7-4.1-14.3h-0.2c-1.2,4.6-2.4,9.4-3.9,14.1l-7.6,22.6H544.1z"/>
		<path class="st0" d="M615.1,483.4c-2.7,1.4-8.6,3.2-16.1,3.2c-16.9,0-27.9-11.5-27.9-28.6c0-17.3,11.8-29.8,30.1-29.8
			c6,0,11.4,1.5,14.1,2.9L613,439c-2.4-1.4-6.3-2.7-11.8-2.7c-12.9,0-19.8,9.5-19.8,21.2c0,13,8.3,21,19.5,21
			c5.8,0,9.6-1.5,12.5-2.8L615.1,483.4z"/>
		<path class="st0" d="M666.3,483.4c-2.7,1.4-8.6,3.2-16.1,3.2c-16.9,0-27.9-11.5-27.9-28.6c0-17.3,11.8-29.8,30.1-29.8
			c6,0,11.4,1.5,14.1,2.9l-2.3,7.9c-2.4-1.4-6.3-2.7-11.8-2.7c-12.9,0-19.8,9.5-19.8,21.2c0,13,8.3,21,19.5,21
			c5.8,0,9.6-1.5,12.5-2.8L666.3,483.4z"/>
		<path class="st0" d="M683.2,459.3c0.2,13.8,9,19.5,19.2,19.5c7.3,0,11.7-1.3,15.5-2.9l1.7,7.3c-3.6,1.6-9.7,3.5-18.7,3.5
			c-17.3,0-27.6-11.4-27.6-28.3c0-16.9,10-30.3,26.3-30.3c18.3,0,23.2,16.1,23.2,26.4c0,2.1-0.2,3.7-0.3,4.8H683.2z M713.1,452
			c0.1-6.5-2.7-16.6-14.1-16.6c-10.3,0-14.8,9.5-15.6,16.6H713.1z"/>
		<path class="st0" d="M735.6,403.2h10.2v82.3h-10.2V403.2z"/>
		<path class="st0" d="M768.6,459.3c0.2,13.8,9,19.5,19.2,19.5c7.3,0,11.7-1.3,15.5-2.9l1.7,7.3c-3.6,1.6-9.7,3.5-18.7,3.5
			c-17.3,0-27.6-11.4-27.6-28.3c0-16.9,10-30.3,26.3-30.3c18.3,0,23.2,16.1,23.2,26.4c0,2.1-0.2,3.7-0.3,4.8H768.6z M798.5,452
			c0.1-6.5-2.7-16.6-14.1-16.6c-10.3,0-14.8,9.5-15.6,16.6H798.5z"/>
		<path class="st0" d="M821,446.9c0-6.6-0.1-12.3-0.5-17.5h8.9l0.3,11h0.5c2.5-7.5,8.7-12.3,15.5-12.3c1.2,0,2,0.1,2.9,0.3v9.6
			c-1-0.2-2.1-0.3-3.5-0.3c-7.2,0-12.3,5.4-13.7,13.1c-0.2,1.4-0.5,3-0.5,4.8v29.9H821V446.9z"/>
		<path class="st0" d="M889.4,485.5l-0.8-7.1h-0.3c-3.1,4.4-9.2,8.3-17.2,8.3c-11.4,0-17.2-8-17.2-16.1c0-13.6,12.1-21,33.7-20.9
			v-1.2c0-4.6-1.3-13-12.7-13c-5.2,0-10.7,1.6-14.6,4.2l-2.3-6.7c4.6-3,11.4-5,18.4-5c17.2,0,21.3,11.7,21.3,22.9v21
			c0,4.9,0.2,9.6,0.9,13.4H889.4z M887.9,456.8c-11.1-0.2-23.8,1.7-23.8,12.6c0,6.6,4.4,9.7,9.6,9.7c7.3,0,11.9-4.6,13.6-9.4
			c0.3-1,0.6-2.2,0.6-3.2V456.8z"/>
		<path class="st0" d="M926,413.3v16.1h14.6v7.8H926v30.3c0,7,2,10.9,7.6,10.9c2.7,0,4.6-0.3,5.9-0.7l0.5,7.7c-2,0.8-5.1,1.4-9,1.4
			c-4.8,0-8.6-1.5-11-4.3c-2.9-3-3.9-8-3.9-14.6v-30.6h-8.7v-7.8h8.7v-13.4L926,413.3z"/>
		<path class="st0" d="M963.5,413.6c0.1,3.5-2.4,6.3-6.5,6.3c-3.6,0-6.1-2.8-6.1-6.3c0-3.6,2.7-6.4,6.4-6.4
			C961,407.2,963.5,410,963.5,413.6z M952.1,485.5v-56.1h10.2v56.1H952.1z"/>
		<path class="st0" d="M1030,457c0,20.7-14.4,29.8-27.9,29.8c-15.2,0-26.9-11.1-26.9-28.9c0-18.8,12.3-29.8,27.8-29.8
			C1019.1,428.1,1030,439.8,1030,457z M985.5,457.5c0,12.3,7.1,21.6,17,21.6c9.7,0,17-9.2,17-21.8c0-9.5-4.8-21.6-16.8-21.6
			C990.7,435.8,985.5,446.9,985.5,457.5z"/>
		<path class="st0" d="M1042.8,444.6c0-5.8-0.1-10.5-0.5-15.2h9l0.6,9.3h0.2c2.8-5.3,9.3-10.5,18.5-10.5c7.8,0,19.8,4.6,19.8,23.9
			v33.5h-10.2v-32.3c0-9-3.4-16.6-13-16.6c-6.7,0-11.9,4.8-13.7,10.4c-0.5,1.3-0.7,3-0.7,4.8v33.7h-10.2V444.6z"/>
		<path class="st0" d="M1132.1,408.3c4.9-0.8,11.2-1.5,19.4-1.5c10,0,17.3,2.3,21.9,6.5c4.3,3.7,6.8,9.4,6.8,16.3
			c0,7.1-2.1,12.6-6,16.7c-5.3,5.7-14,8.6-23.9,8.6c-3,0-5.8-0.1-8.1-0.7v31.3h-10.1V408.3z M1142.2,446c2.2,0.6,5,0.8,8.3,0.8
			c12.2,0,19.6-5.9,19.6-16.7c0-10.3-7.3-15.3-18.4-15.3c-4.4,0-7.8,0.3-9.5,0.8V446z"/>
		<path class="st0" d="M1192.8,403.2h10.2v82.3h-10.2V403.2z"/>
		<path class="st0" d="M1251.2,485.5l-0.8-7.1h-0.3c-3.1,4.4-9.2,8.3-17.2,8.3c-11.4,0-17.2-8-17.2-16.1c0-13.6,12.1-21,33.7-20.9
			v-1.2c0-4.6-1.3-13-12.7-13c-5.2,0-10.7,1.6-14.6,4.2l-2.3-6.7c4.6-3,11.4-5,18.4-5c17.2,0,21.3,11.7,21.3,22.9v21
			c0,4.9,0.2,9.6,0.9,13.4H1251.2z M1249.7,456.8c-11.1-0.2-23.8,1.7-23.8,12.6c0,6.6,4.4,9.7,9.6,9.7c7.3,0,11.9-4.6,13.6-9.4
			c0.3-1,0.6-2.2,0.6-3.2V456.8z"/>
		<path class="st0" d="M1287.8,413.3v16.1h14.6v7.8h-14.6v30.3c0,7,2,10.9,7.6,10.9c2.7,0,4.6-0.3,5.9-0.7l0.5,7.7
			c-2,0.8-5.1,1.4-9,1.4c-4.8,0-8.6-1.5-11-4.3c-2.9-3-3.9-8-3.9-14.6v-30.6h-8.7v-7.8h8.7v-13.4L1287.8,413.3z"/>
		<path class="st0" d="M1315,485.5v-48.3h-7.9v-7.8h7.9v-2.7c0-7.9,1.7-15.1,6.5-19.6c3.8-3.7,8.9-5.2,13.7-5.2
			c3.6,0,6.7,0.8,8.7,1.6l-1.4,7.9c-1.5-0.7-3.6-1.3-6.5-1.3c-8.7,0-10.9,7.6-10.9,16.2v3h13.6v7.8h-13.6v48.3H1315z"/>
		<path class="st0" d="M1397,457c0,20.7-14.4,29.8-27.9,29.8c-15.2,0-26.9-11.1-26.9-28.9c0-18.8,12.3-29.8,27.8-29.8
			C1386.1,428.1,1397,439.8,1397,457z M1352.5,457.5c0,12.3,7.1,21.6,17,21.6c9.7,0,17-9.2,17-21.8c0-9.5-4.8-21.6-16.8-21.6
			C1357.7,435.8,1352.5,446.9,1352.5,457.5z"/>
		<path class="st0" d="M1409.9,446.9c0-6.6-0.1-12.3-0.5-17.5h8.9l0.3,11h0.5c2.5-7.5,8.7-12.3,15.5-12.3c1.2,0,2,0.1,2.9,0.3v9.6
			c-1-0.2-2.1-0.3-3.5-0.3c-7.2,0-12.3,5.4-13.7,13.1c-0.2,1.4-0.5,3-0.5,4.8v29.9h-10.1V446.9z"/>
		<path class="st0" d="M1448.3,444.6c0-5.8-0.1-10.5-0.5-15.2h8.9l0.5,9h0.3c3.1-5.3,8.3-10.3,17.6-10.3c7.6,0,13.4,4.6,15.9,11.2
			h0.2c1.7-3.1,3.9-5.6,6.3-7.3c3.4-2.5,7.1-3.9,12.4-3.9c7.4,0,18.4,4.9,18.4,24.3v33h-10v-31.8c0-10.8-3.9-17.3-12.2-17.3
			c-5.8,0-10.3,4.3-12.1,9.3c-0.5,1.4-0.8,3.2-0.8,5.1v34.7h-10v-33.6c0-8.9-3.9-15.4-11.7-15.4c-6.4,0-11,5.1-12.6,10.2
			c-0.6,1.5-0.8,3.2-0.8,5v33.8h-10V444.6z"/>
	</g>
</g>
<g id="Layer_3">
	<g>
		<linearGradient id="SVGID_1_" gradientUnits="userSpaceOnUse" x1="158.578" y1="49.942" x2="158.578" y2="363.7698">
			<stop  offset="0.2049" style="stop-color:#2E3192"/>
			<stop  offset="1" style="stop-color:#FF0000"/>
		</linearGradient>
		<path class="st2" d="M158.6,49.9C71.8,49.9,1.4,119.8,0.5,206.3c5.7-3,12.1-4.7,18.9-4.7c7.6,0,14.7,2.1,20.8,5.8
			c7.5-9.6,19.1-15.8,32.2-15.8c18.7,0,34.5,12.7,39.4,30.1c4.8-2,10.1-3.1,15.6-3.1c22.6,0,40.9,18.5,41,41.3
			c1.5-0.9,3.1-1.7,4.7-2.4c20.8-9,45,0.8,54.1,21.8c9.1,21-0.4,45.4-21.2,54.4c-3.5,1.5-7.2,2.5-10.8,3c0.2,9.9-3.2,19.6-9.5,27.1
			c74.4-12.9,130.9-77.7,130.9-155.7C316.6,120.7,245.9,49.9,158.6,49.9z M258.7,210.9c-1.8,0-3.5-0.3-5.1-0.7
			c-2.8,6.9-9.5,11.7-17.3,11.7c-4.6,0-8.9-1.7-12.1-4.5c-3.3,2.8-7.5,4.5-12.1,4.5c-10.4,0-18.8-8.5-18.8-19c0-2.5,0.5-4.8,1.3-7
			c-2.5-3.2-4.1-7.3-4.1-11.8c0-10.5,8.4-19,18.8-19c3.5,0,6.7,1,9.5,2.6c3.4-4.4,8.8-7.2,14.7-7.2c8.6,0,15.8,5.8,18.1,13.8
			c2.2-0.9,4.6-1.4,7.1-1.4c10.4,0,18.8,8.5,18.8,19C277.5,202.4,269,210.9,258.7,210.9z"/>
	</g>
	<g>
	</g>
	<g>
	</g>
	<g>
	</g>
	<g>
	</g>
	<g>
	</g>
	<g>
	</g>
	<g>
	</g>
	<g>
	</g>
	<g>
	</g>
	<g>
	</g>
	<g>
	</g>
	<g>
	</g>
	<g>
	</g>
	<g>
	</g>
	<g>
	</g>
</g>
</svg>
