<?xml version="1.0" encoding="utf-8"?>
<!-- Generator: Adobe Illustrator 22.1.0, SVG Export Plug-In . SVG Version: 6.00 Build 0)  -->
<svg version="1.1" id="Logo" xmlns="http://www.w3.org/2000/svg" xmlns:xlink="http://www.w3.org/1999/xlink" x="0px" y="0px"
	 viewBox="0 0 379.5 110.6" style="enable-background:new 0 0 379.5 110.6;" xml:space="preserve">
<style type="text/css">
	.st0{fill:#ABD3F1;}
	.st1{fill:#963594;}
	.st2{fill:#5B1D57;}
	.st3{fill:url(#SVGID_1_);}
	.st4{fill:url(#SVGID_2_);}
	.st5{fill:url(#SVGID_3_);}
	.st6{fill:#FFFFFF;}
	.st7{fill:none;stroke:#FFFFFF;stroke-miterlimit:10;}
	.st8{fill-rule:evenodd;clip-rule:evenodd;fill:#FFFFFF;}
	.st9{opacity:0.73;}
</style>
<path class="st0" d="M56.5,40c0,15.6-12.7,28.3-28.5,28.3V11.7C43.8,11.7,56.5,24.4,56.5,40z"/>
<path class="st1" d="M0,40c0-15.6,12.6-28.3,28-28.3v56.6C12.6,68.3,0,55.6,0,40z"/>
<path class="st2" d="M28.1,62c-12.1,0-22-9.8-22-22s9.8-22,22-22V62z"/>
<linearGradient id="SVGID_1_" gradientUnits="userSpaceOnUse" x1="39.0289" y1="61.9821" x2="39.0289" y2="18.0654">
	<stop  offset="0" style="stop-color:#9FCEEF"/>
	<stop  offset="1" style="stop-color:#53B2E5"/>
</linearGradient>
<path class="st3" d="M50,40c0,12.1-9.8,22-22,22V18.1C40.2,18.1,50,27.9,50,40z"/>
<linearGradient id="SVGID_2_" gradientUnits="userSpaceOnUse" x1="21.2323" y1="18.0917" x2="21.2323" y2="61.9821">
	<stop  offset="0" style="stop-color:#C2E8F8"/>
	<stop  offset="1" style="stop-color:#24ABE2"/>
</linearGradient>
<path class="st4" d="M28,62c-7.5,0-13.6-9.8-13.6-22S20.5,18.1,28,18.1V62z"/>
<radialGradient id="SVGID_3_" cx="30.7477" cy="34.8571" r="13.1784" gradientUnits="userSpaceOnUse">
	<stop  offset="0.1399" style="stop-color:#FFFFFF"/>
	<stop  offset="1" style="stop-color:#FFF200"/>
</radialGradient>
<path class="st5" d="M28.3,24.7c-0.4,0-0.7,0.1-1,0.2c-5,0.6-9,7.2-9,15.2c0,8.4,4.4,15.3,9.8,15.3v0c0.1,0-0.1,0,0,0
	c8.5,0,15.5-6.9,15.5-15.3S36.7,24.7,28.3,24.7z"/>
<g>
	<path class="st6" d="M100.1,26.3l-3.7,6.4c-2-1.9-4.7-2.8-8.1-2.8c-3.2,0-5.8,1.1-7.7,3.2s-2.8,5.1-2.8,8.9c0,7.7,3.7,11.5,11,11.5
		c3.2,0,5.9-1,8.4-3.1l3.1,6.7c-2.5,1.5-4.6,2.5-6.5,2.9s-4,0.6-6.6,0.6c-5.6,0-10.1-1.6-13.4-4.9s-4.9-7.9-4.9-13.7
		c0-5.8,1.8-10.4,5.4-14c3.6-3.5,8.4-5.3,14.6-5.3C93.3,22.7,97,23.9,100.1,26.3z"/>
	<path class="st6" d="M104.8,41.6c0-5.6,1.6-10.1,4.8-13.6c3.2-3.5,7.5-5.3,12.7-5.3c5.6,0,9.9,1.7,12.9,5.1s4.6,8,4.6,13.8
		c0,5.8-1.6,10.5-4.7,13.9s-7.4,5.2-12.8,5.2c-5.6,0-9.9-1.7-13-5.2C106.4,52,104.8,47.3,104.8,41.6z M113.7,41.6
		c0,8.1,2.9,12.1,8.7,12.1c2.7,0,4.8-1,6.3-3.1c1.6-2.1,2.3-5.1,2.3-8.9c0-7.9-2.9-11.9-8.7-11.9c-2.7,0-4.8,1-6.3,3.1
		C114.5,34.9,113.7,37.8,113.7,41.6z"/>
	<path class="st6" d="M170.3,59.9v-2.2c-0.7,0.8-1.9,1.5-3.6,2c-1.7,0.6-3.4,0.9-5.2,0.9c-5.1,0-9.1-1.6-12-4.8
		c-2.9-3.2-4.4-7.7-4.4-13.5s1.7-10.5,5-14.1c3.4-3.6,7.6-5.4,12.6-5.4c2.8,0,5.3,0.6,7.6,1.7V9.8l8.5-2v52.2H170.3z M170.3,32.1
		c-1.8-1.5-3.7-2.2-5.7-2.2c-3.4,0-6,1-7.9,3.1s-2.8,5.1-2.8,9c0,7.6,3.7,11.4,11,11.4c0.8,0,1.8-0.2,3-0.7c1.2-0.5,2-1,2.3-1.5
		V32.1z"/>
	<path class="st6" d="M220,44.3h-26.1c0.2,2.9,1.2,5.2,3,6.8c1.8,1.6,4.3,2.4,7.4,2.4c3.9,0,6.8-1,8.9-3l3.3,6.5
		c-3,2.4-7.5,3.7-13.4,3.7c-5.6,0-10-1.6-13.2-4.9c-3.2-3.3-4.9-7.8-4.9-13.7c0-5.8,1.8-10.4,5.3-14c3.6-3.6,7.8-5.4,12.8-5.4
		c5.3,0,9.6,1.6,12.8,4.7c3.2,3.2,4.8,7.2,4.8,12.1C220.7,40.6,220.5,42.2,220,44.3z M194.2,37.9h18c-0.6-5.3-3.5-8-8.9-8
		C198.4,29.8,195.4,32.5,194.2,37.9z"/>
	<path class="st6" d="M235.4,59v15.3h-8.5V23.4h8.5v2.5c2.1-2.1,4.8-3.1,7.9-3.1c11.6,0,17.5,6.4,17.5,19.2c0,6-1.6,10.6-4.8,13.8
		c-3.2,3.2-7.6,4.8-13.2,4.8C240,60.6,237.6,60.1,235.4,59z M235.4,32.3v19.2c1.5,1.3,3.4,1.9,5.4,1.9c3.9,0,6.8-0.9,8.5-2.8
		c1.7-1.9,2.6-4.8,2.6-8.9c0-4.3-0.9-7.4-2.6-9.1c-1.7-1.8-4.5-2.6-8.5-2.6C238.8,29.9,237,30.7,235.4,32.3z"/>
	<path class="st6" d="M269.7,9.8l8.5-2v41.1c0,4.5,1.3,7.2,4,8.1c-1.3,2.5-3.6,3.8-6.8,3.8c-3.9,0-5.8-2.7-5.8-8.1V9.8z"/>
	<path class="st6" d="M309.2,56.3c-0.8,1.3-2.1,2.3-4,3.1c-1.9,0.8-3.9,1.2-6,1.2c-3.9,0-7-1-9.3-3c-2.3-2-3.4-4.8-3.4-8.4
		c0-4.2,1.6-7.5,4.8-9.9s7.7-3.6,13.5-3.6c1,0,2.2,0.2,3.5,0.5c0-4.3-2.7-6.5-8.2-6.5c-3.2,0-5.9,0.5-8.1,1.6l-1.8-6.6
		c2.9-1.4,6.4-2.1,10.5-2.1c5.6,0,9.7,1.3,12.3,3.8c2.6,2.5,3.9,7.3,3.9,14.4v7.8c0,4.9,1,7.9,2.9,9.2c-0.7,1.2-1.5,2-2.4,2.3
		c-0.9,0.3-1.9,0.4-3,0.4c-1.2,0-2.3-0.5-3.3-1.4S309.5,57.4,309.2,56.3z M308.4,42.7c-1.5-0.3-2.5-0.4-3.3-0.4
		c-6.7,0-10.1,2.2-10.1,6.6c0,3.3,1.9,4.9,5.7,4.9c5.1,0,7.7-2.6,7.7-7.7V42.7z"/>
	<path class="st6" d="M342.3,65.8c-0.9,2.4-2.9,4.5-5.9,6.1c-3,1.6-6.5,2.4-10.5,2.4v-7.5c6.6,0,9.9-1.7,9.9-4.9
		c0-2.2-0.9-5.5-2.7-10l-11.4-28.4h8.8l10,25.3l9-25.3h8.8L342.3,65.8z"/>
</g>
<g id="Hand">
	<circle class="st7" cx="372.4" cy="16.3" r="6.6"/>
	<path class="st8" d="M374.2,19.2c0,0,0.9-0.7,1.1-0.8c0,0,0.9-0.5,0.9-0.6c0,0,0.5-0.2,0.2-0.6c0,0-0.5-0.5-1.4,0.3
		c0,0-0.2,0.2-0.3,0.2c0,0-0.8,0.6-0.9,0.5c0,0-0.3-0.5,0-0.9c0,0,0.4-0.6,0.4-0.7c0,0,0.1-0.2,0.3-0.3c0,0,0.4-0.5,0.5-0.6
		c0,0,0.6-0.8,0.6-0.9c0,0,0.1-0.2,0.2-0.3c0,0,0.6-0.9,0.3-1.1c0,0-0.3-0.5-0.8,0.3l-0.2,0.3c0,0-0.2,0.3-0.3,0.4
		c0,0-0.4,0.4-0.5,0.6c0,0-0.5,0.5-0.6,0.7c0,0-0.2,0.2-0.3,0.2c0,0-0.2,0.1,0.1-0.3c0,0,0.5-0.8,0.5-0.9c0,0,0.6-1,0.5-1.1
		c0,0,0.4-0.8,0.4-0.8c0,0,0.3-0.5-0.2-0.7c0,0-0.4,0-0.6,0.6c0,0-0.4,0.7-0.4,0.7c0,0-0.5,0.7-0.5,0.8c0,0-0.7,1-0.8,1.2
		c0,0-0.3,0.2-0.1-0.3c0,0,0.2-0.6,0.2-0.9c0,0,0.3-0.7,0.2-0.8c0,0,0.2-0.2,0.2-0.4c0,0,0.6-0.8,0.2-1c0,0-0.3-0.3-0.7,0.3
		c0,0-0.3,0.5-0.3,0.7c0,0-0.6,1-0.6,1.2c0,0-0.4,1.2-0.5,1.2c0,0-0.4,0.1-0.3-0.3c0,0,0-0.3,0-0.5c0,0,0-0.6,0-0.8
		c0,0,0-0.4,0.1-0.6c0,0,0.2-0.8-0.1-0.9c0,0-0.5-0.2-0.6,1.1c0,0-0.1,0.8-0.1,1c0,0-0.1,1.1-0.1,1.3c0,0-0.5,1.7-0.6,1.7
		c0,0-0.1,0.8-0.1,1.4c0,0,0.1,0.8,1,1.1l0.5,0.4c0,0,0.9,0.4,1.4,0.1C371.8,20.5,373.4,20,374.2,19.2z"/>
</g>
<g class="st9">
	<path class="st6" d="M9.3,98.8H3.2v5.4h7.1v0.9H2.1V92h8.1v0.9h-7v5h6.1V98.8z"/>
	<path class="st6" d="M13.4,95.3l0,1.7c0.4-0.6,0.8-1.1,1.4-1.4c0.5-0.3,1.2-0.5,1.8-0.5c1,0,1.8,0.3,2.3,0.9s0.8,1.5,0.8,2.7v6.4
		h-1.1v-6.4c0-0.9-0.2-1.5-0.6-2c-0.4-0.4-0.9-0.6-1.7-0.6c-0.7,0-1.3,0.2-1.8,0.6c-0.5,0.4-0.9,1-1.1,1.7v6.7h-1.1v-9.8H13.4z"/>
	<path class="st6" d="M28.7,105.1c-0.1-0.3-0.2-0.8-0.2-1.4c-0.4,0.5-0.9,0.9-1.4,1.1c-0.6,0.3-1.2,0.4-1.9,0.4
		c-0.9,0-1.7-0.3-2.3-0.8c-0.6-0.5-0.9-1.2-0.9-2c0-1,0.4-1.7,1.2-2.3c0.8-0.6,1.9-0.8,3.3-0.8h2v-1.1c0-0.7-0.2-1.2-0.6-1.6
		c-0.4-0.4-1.1-0.6-1.9-0.6c-0.8,0-1.4,0.2-1.9,0.6c-0.5,0.4-0.7,0.8-0.7,1.4l-1.1,0c0-0.8,0.4-1.4,1.1-2c0.7-0.6,1.6-0.9,2.7-0.9
		c1.1,0,1.9,0.3,2.6,0.8c0.6,0.5,1,1.3,1,2.3v4.6c0,0.9,0.1,1.7,0.3,2.1v0.1H28.7z M25.3,104.3c0.7,0,1.4-0.2,1.9-0.5
		c0.6-0.3,1-0.8,1.2-1.4v-2.1h-1.9c-1.1,0-1.9,0.2-2.5,0.6c-0.6,0.4-0.9,0.9-0.9,1.6c0,0.5,0.2,1,0.6,1.4S24.6,104.3,25.3,104.3z"/>
	<path class="st6" d="M40.3,100.3c0,1.5-0.3,2.7-1,3.6s-1.6,1.3-2.7,1.3c-1.4,0-2.4-0.5-3.1-1.5l0,1.3h-1V91.2h1.1v5.5
		c0.7-1.1,1.7-1.6,3.1-1.6c1.2,0,2.1,0.4,2.7,1.3c0.7,0.9,1,2.1,1,3.7V100.3z M39.2,100.1c0-1.3-0.2-2.3-0.7-3
		c-0.5-0.7-1.2-1.1-2.1-1.1c-0.7,0-1.3,0.2-1.8,0.5c-0.5,0.3-0.8,0.8-1.1,1.5v4.4c0.5,1.2,1.5,1.8,2.9,1.8c0.9,0,1.6-0.4,2.1-1.1
		S39.2,101.5,39.2,100.1z"/>
	<path class="st6" d="M43.9,105.1h-1.1V91.2h1.1V105.1z"/>
	<path class="st6" d="M46.7,92.5c0-0.2,0.1-0.4,0.2-0.5s0.3-0.2,0.5-0.2c0.2,0,0.4,0.1,0.5,0.2s0.2,0.3,0.2,0.5
		c0,0.2-0.1,0.4-0.2,0.5s-0.3,0.2-0.5,0.2c-0.2,0-0.4-0.1-0.5-0.2S46.7,92.7,46.7,92.5z M48,105.1h-1.1v-9.8H48V105.1z"/>
	<path class="st6" d="M52,95.3l0,1.7c0.4-0.6,0.8-1.1,1.4-1.4c0.5-0.3,1.2-0.5,1.8-0.5c1,0,1.8,0.3,2.3,0.9s0.8,1.5,0.8,2.7v6.4
		h-1.1v-6.4c0-0.9-0.2-1.5-0.6-2c-0.4-0.4-0.9-0.6-1.7-0.6c-0.7,0-1.3,0.2-1.8,0.6c-0.5,0.4-0.9,1-1.1,1.7v6.7h-1.1v-9.8H52z"/>
	<path class="st6" d="M60.7,100.1c0-1.5,0.3-2.7,1-3.6c0.7-0.9,1.6-1.3,2.8-1.3c1.3,0,2.3,0.5,3,1.6l0.1-1.4h1v9.6
		c0,1.3-0.4,2.3-1.1,3c-0.7,0.7-1.7,1.1-2.9,1.1c-0.7,0-1.3-0.2-1.9-0.5c-0.6-0.3-1.1-0.7-1.5-1.2l0.6-0.6c0.8,0.9,1.7,1.4,2.7,1.4
		c0.9,0,1.6-0.3,2.1-0.8c0.5-0.5,0.8-1.3,0.8-2.2v-1.2c-0.7,1-1.7,1.4-3,1.4c-1.1,0-2-0.5-2.7-1.4c-0.7-0.9-1-2.1-1-3.7V100.1z
		 M61.8,100.3c0,1.2,0.3,2.2,0.7,2.9c0.5,0.7,1.2,1.1,2.1,1.1c1.3,0,2.3-0.6,2.8-1.8V98c-0.3-0.6-0.6-1.1-1.1-1.4s-1-0.5-1.7-0.5
		c-0.9,0-1.6,0.4-2.1,1.1C62,97.9,61.8,98.9,61.8,100.3z"/>
	<path class="st6" d="M83.2,101.4h-6l-1.4,3.7h-1.2l5-13.1h1.1l5,13.1h-1.2L83.2,101.4z M77.6,100.5h5.3l-2.6-7.2L77.6,100.5z"/>
	<path class="st6" d="M89,105.1h-1.1V92H89V105.1z"/>
	<path class="st6" d="M98.5,92.8v2.5h2v0.9h-2v6.5c0,0.5,0.1,0.9,0.3,1.2c0.2,0.3,0.5,0.4,1,0.4c0.2,0,0.5,0,0.9-0.1l0,0.9
		c-0.3,0.1-0.7,0.2-1.2,0.2c-0.7,0-1.3-0.2-1.6-0.6c-0.3-0.4-0.5-1.1-0.5-1.9v-6.5h-1.8v-0.9h1.8v-2.5H98.5z"/>
	<path class="st6" d="M102,100.1c0-0.9,0.2-1.8,0.5-2.5c0.4-0.8,0.9-1.3,1.5-1.8c0.7-0.4,1.4-0.6,2.3-0.6c1.3,0,2.4,0.5,3.2,1.4
		c0.8,0.9,1.2,2.1,1.2,3.6v0.2c0,0.9-0.2,1.8-0.5,2.6c-0.4,0.8-0.9,1.3-1.5,1.7s-1.4,0.6-2.3,0.6c-1.3,0-2.3-0.5-3.2-1.4
		s-1.2-2.1-1.2-3.6V100.1z M103.1,100.4c0,1.2,0.3,2.1,0.9,2.9c0.6,0.7,1.4,1.1,2.4,1.1c1,0,1.8-0.4,2.4-1.1s0.9-1.7,0.9-3v-0.2
		c0-0.7-0.1-1.4-0.4-2c-0.3-0.6-0.7-1.1-1.2-1.4s-1.1-0.5-1.7-0.5c-1,0-1.7,0.4-2.4,1.1c-0.6,0.8-0.9,1.7-0.9,3V100.4z"/>
	<path class="st6" d="M125.3,100.3c0,1.5-0.3,2.7-1,3.6s-1.6,1.3-2.7,1.3c-1.4,0-2.4-0.5-3.1-1.5l0,1.3h-1V91.2h1.1v5.5
		c0.7-1.1,1.7-1.6,3.1-1.6c1.2,0,2.1,0.4,2.7,1.3c0.7,0.9,1,2.1,1,3.7V100.3z M124.2,100.1c0-1.3-0.2-2.3-0.7-3
		c-0.5-0.7-1.2-1.1-2.1-1.1c-0.7,0-1.3,0.2-1.8,0.5c-0.5,0.3-0.8,0.8-1.1,1.5v4.4c0.5,1.2,1.5,1.8,2.9,1.8c0.9,0,1.6-0.4,2.1-1.1
		S124.2,101.5,124.2,100.1z"/>
	<path class="st6" d="M131.5,105.3c-0.8,0-1.6-0.2-2.3-0.6c-0.7-0.4-1.2-1-1.6-1.7c-0.4-0.7-0.6-1.6-0.6-2.5v-0.4
		c0-0.9,0.2-1.8,0.5-2.5c0.4-0.8,0.9-1.3,1.5-1.8c0.6-0.4,1.4-0.6,2.1-0.6c1.2,0,2.1,0.4,2.8,1.2s1,1.9,1,3.3v0.6h-7v0.2
		c0,1.1,0.3,2,1,2.8c0.6,0.7,1.4,1.1,2.4,1.1c0.6,0,1.1-0.1,1.5-0.3c0.4-0.2,0.8-0.5,1.2-1l0.7,0.5
		C134.1,104.7,133,105.3,131.5,105.3z M131.3,96.1c-0.8,0-1.5,0.3-2.1,0.9c-0.6,0.6-0.9,1.4-1,2.4h5.9v-0.1c0-0.9-0.3-1.7-0.8-2.3
		C132.7,96.4,132.1,96.1,131.3,96.1z"/>
	<path class="st6" d="M151.7,99.2c0,1.2-0.2,2.3-0.6,3.2c-0.4,0.9-1,1.6-1.8,2.1c-0.8,0.5-1.7,0.7-2.7,0.7c-1.5,0-2.8-0.5-3.7-1.6
		c-0.9-1.1-1.4-2.6-1.4-4.4v-1.4c0-1.2,0.2-2.3,0.6-3.2c0.4-0.9,1-1.6,1.8-2.1c0.8-0.5,1.7-0.7,2.7-0.7s1.9,0.2,2.7,0.7
		c0.8,0.5,1.4,1.2,1.8,2.1c0.4,0.9,0.6,1.9,0.7,3.1V99.2z M150.6,97.8c0-1.6-0.4-2.8-1.1-3.7c-0.7-0.9-1.7-1.3-2.9-1.3
		c-1.2,0-2.2,0.5-2.9,1.3c-0.7,0.9-1.1,2.2-1.1,3.8v1.4c0,1.6,0.4,2.8,1.1,3.7c0.7,0.9,1.7,1.4,2.9,1.4c1.3,0,2.2-0.5,2.9-1.4
		c0.7-0.9,1.1-2.2,1.1-3.8V97.8z"/>
	<path class="st6" d="M162.1,100.3c0,1.5-0.3,2.7-1,3.6c-0.7,0.9-1.6,1.3-2.7,1.3c-1.3,0-2.4-0.5-3.1-1.4v5h-1.1V95.3h1l0.1,1.4
		c0.7-1,1.7-1.6,3.1-1.6c1.2,0,2.1,0.4,2.7,1.3s1,2.1,1,3.7V100.3z M161,100.1c0-1.2-0.3-2.2-0.8-3c-0.5-0.7-1.2-1.1-2.1-1.1
		c-0.7,0-1.2,0.2-1.7,0.5s-0.8,0.8-1.1,1.4v4.7c0.3,0.6,0.6,1,1.1,1.3s1.1,0.4,1.7,0.4c0.9,0,1.6-0.4,2.1-1.1S161,101.5,161,100.1z"
		/>
	<path class="st6" d="M168.3,105.3c-0.8,0-1.6-0.2-2.3-0.6c-0.7-0.4-1.2-1-1.6-1.7c-0.4-0.7-0.6-1.6-0.6-2.5v-0.4
		c0-0.9,0.2-1.8,0.5-2.5c0.4-0.8,0.9-1.3,1.5-1.8c0.6-0.4,1.4-0.6,2.1-0.6c1.2,0,2.1,0.4,2.8,1.2s1,1.9,1,3.3v0.6h-7v0.2
		c0,1.1,0.3,2,1,2.8c0.6,0.7,1.4,1.1,2.4,1.1c0.6,0,1.1-0.1,1.5-0.3c0.4-0.2,0.8-0.5,1.2-1l0.7,0.5
		C170.9,104.7,169.8,105.3,168.3,105.3z M168.1,96.1c-0.8,0-1.5,0.3-2.1,0.9c-0.6,0.6-0.9,1.4-1,2.4h5.9v-0.1c0-0.9-0.3-1.7-0.8-2.3
		C169.6,96.4,168.9,96.1,168.1,96.1z"/>
	<path class="st6" d="M175.1,95.3l0,1.7c0.4-0.6,0.8-1.1,1.4-1.4c0.5-0.3,1.2-0.5,1.8-0.5c1,0,1.8,0.3,2.3,0.9s0.8,1.5,0.8,2.7v6.4
		h-1.1v-6.4c0-0.9-0.2-1.5-0.6-2c-0.4-0.4-0.9-0.6-1.7-0.6c-0.7,0-1.3,0.2-1.8,0.6c-0.5,0.4-0.9,1-1.1,1.7v6.7H174v-9.8H175.1z"/>
	<path class="st6" d="M184,107.6l-0.6-0.5c0.5-0.7,0.8-1.5,0.8-2.3v-1.4h1.1v1.1C185.2,105.8,184.8,106.8,184,107.6z"/>
	<path class="st6" d="M199.9,101.9c0-0.7-0.3-1.3-0.8-1.7c-0.5-0.4-1.4-0.8-2.8-1.2c-1.4-0.4-2.4-0.8-3-1.3
		c-0.9-0.6-1.3-1.5-1.3-2.5c0-1,0.4-1.8,1.2-2.5c0.8-0.6,1.9-0.9,3.2-0.9c0.9,0,1.7,0.2,2.3,0.5c0.7,0.3,1.2,0.8,1.6,1.4
		c0.4,0.6,0.6,1.3,0.6,2h-1.1c0-0.9-0.3-1.6-0.9-2.2c-0.6-0.5-1.4-0.8-2.5-0.8c-1,0-1.8,0.2-2.4,0.7c-0.6,0.4-0.9,1-0.9,1.8
		c0,0.7,0.3,1.2,0.8,1.6c0.5,0.4,1.4,0.8,2.6,1.1s2.1,0.7,2.7,1c0.6,0.3,1.1,0.8,1.4,1.2c0.3,0.5,0.5,1.1,0.5,1.7
		c0,1-0.4,1.9-1.2,2.5c-0.8,0.6-1.9,0.9-3.3,0.9c-0.9,0-1.8-0.2-2.6-0.5c-0.8-0.3-1.4-0.8-1.8-1.4c-0.4-0.6-0.6-1.3-0.6-2h1.1
		c0,0.9,0.3,1.7,1,2.2c0.7,0.5,1.6,0.8,2.8,0.8c1,0,1.8-0.2,2.5-0.7S199.9,102.6,199.9,101.9z"/>
	<path class="st6" d="M209.4,105.1c-0.1-0.3-0.2-0.8-0.2-1.4c-0.4,0.5-0.9,0.9-1.4,1.1c-0.6,0.3-1.2,0.4-1.9,0.4
		c-0.9,0-1.7-0.3-2.3-0.8c-0.6-0.5-0.9-1.2-0.9-2c0-1,0.4-1.7,1.2-2.3c0.8-0.6,1.9-0.8,3.3-0.8h2v-1.1c0-0.7-0.2-1.2-0.6-1.6
		s-1.1-0.6-1.9-0.6c-0.8,0-1.4,0.2-1.9,0.6c-0.5,0.4-0.7,0.8-0.7,1.4l-1.1,0c0-0.8,0.4-1.4,1.1-2c0.7-0.6,1.6-0.9,2.7-0.9
		c1.1,0,1.9,0.3,2.6,0.8s1,1.3,1,2.3v4.6c0,0.9,0.1,1.7,0.3,2.1v0.1H209.4z M206,104.3c0.7,0,1.4-0.2,1.9-0.5c0.6-0.3,1-0.8,1.2-1.4
		v-2.1h-1.9c-1.1,0-1.9,0.2-2.5,0.6c-0.6,0.4-0.9,0.9-0.9,1.6c0,0.5,0.2,1,0.6,1.4S205.3,104.3,206,104.3z"/>
	<path class="st6" d="M213.9,105.1v-8.9h-1.6v-0.9h1.6v-1.2c0-1,0.3-1.8,0.8-2.3c0.5-0.5,1.2-0.8,2.1-0.8c0.4,0,0.8,0.1,1.1,0.2
		l-0.1,0.9c-0.3-0.1-0.6-0.1-1-0.1c-0.6,0-1.1,0.2-1.4,0.6c-0.3,0.4-0.5,0.9-0.5,1.6v1.2h2.3v0.9H215v8.9H213.9z"/>
	<path class="st6" d="M222.8,105.3c-0.8,0-1.6-0.2-2.3-0.6c-0.7-0.4-1.2-1-1.6-1.7s-0.6-1.6-0.6-2.5v-0.4c0-0.9,0.2-1.8,0.5-2.5
		c0.4-0.8,0.9-1.3,1.5-1.8c0.7-0.4,1.4-0.6,2.1-0.6c1.2,0,2.1,0.4,2.8,1.2s1,1.9,1,3.3v0.6h-7v0.2c0,1.1,0.3,2,1,2.8
		c0.6,0.7,1.4,1.1,2.4,1.1c0.6,0,1.1-0.1,1.5-0.3c0.4-0.2,0.8-0.5,1.2-1l0.7,0.5C225.4,104.7,224.3,105.3,222.8,105.3z M222.6,96.1
		c-0.8,0-1.5,0.3-2.1,0.9s-0.9,1.4-1,2.4h5.9v-0.1c0-0.9-0.3-1.7-0.8-2.3C224.1,96.4,223.4,96.1,222.6,96.1z"/>
	<path class="st6" d="M235.3,97.9c-0.5-0.6-0.9-1.2-1.1-1.7c-0.2-0.5-0.4-1-0.4-1.5c0-0.9,0.3-1.6,0.8-2.2c0.5-0.5,1.3-0.8,2.2-0.8
		c0.8,0,1.5,0.2,2,0.7s0.8,1.1,0.8,1.8c0,0.9-0.5,1.7-1.5,2.6l-1.4,1.1l3.6,4.2c0.5-0.9,0.8-1.9,0.8-3h1c0,1.5-0.4,2.8-1.2,3.8
		l1.8,2.1h-1.3l-1.1-1.3c-0.5,0.5-1,0.8-1.6,1.1s-1.3,0.4-2,0.4c-1.3,0-2.2-0.3-3-1c-0.7-0.6-1.1-1.5-1.1-2.6c0-0.6,0.2-1.2,0.6-1.8
		c0.4-0.6,1-1.2,2-1.9L235.3,97.9z M236.7,104.4c0.5,0,1.1-0.1,1.6-0.3c0.5-0.2,1-0.6,1.4-1l-3.7-4.3l-0.1-0.1l-0.4,0.3
		c-1.2,1-1.8,1.9-1.8,2.8c0,0.8,0.3,1.4,0.8,1.9S235.8,104.4,236.7,104.4z M234.9,94.7c0,0.7,0.4,1.6,1.2,2.6l1.2-0.9
		c0.4-0.3,0.7-0.6,0.9-0.9s0.4-0.7,0.4-1.2c0-0.5-0.2-0.9-0.5-1.2c-0.3-0.3-0.8-0.5-1.3-0.5c-0.6,0-1.1,0.2-1.4,0.6
		C235,93.6,234.9,94.1,234.9,94.7z"/>
	<path class="st6" d="M256.3,101.4h-6l-1.4,3.7h-1.2l5-13.1h1.1l5,13.1h-1.2L256.3,101.4z M250.6,100.5h5.3l-2.6-7.2L250.6,100.5z"
		/>
	<path class="st6" d="M264.1,104.4c0.8,0,1.4-0.2,1.9-0.6c0.5-0.4,0.8-1,0.8-1.6h1c0,0.6-0.2,1.1-0.6,1.6c-0.3,0.5-0.8,0.9-1.4,1.2
		c-0.6,0.3-1.2,0.4-1.8,0.4c-1.3,0-2.3-0.4-3-1.3c-0.7-0.9-1.1-2.1-1.1-3.6V100c0-1,0.2-1.8,0.5-2.6c0.3-0.7,0.8-1.3,1.4-1.7
		s1.4-0.6,2.2-0.6c1.1,0,2,0.3,2.7,1c0.7,0.6,1.1,1.5,1.1,2.5h-1c0-0.8-0.3-1.4-0.8-1.9c-0.5-0.5-1.1-0.7-1.9-0.7
		c-1,0-1.7,0.4-2.3,1.1s-0.8,1.7-0.8,3v0.3c0,1.2,0.3,2.2,0.8,2.9S263.1,104.4,264.1,104.4z"/>
	<path class="st6" d="M273.6,104.4c0.8,0,1.4-0.2,1.9-0.6c0.5-0.4,0.8-1,0.8-1.6h1c0,0.6-0.2,1.1-0.6,1.6c-0.3,0.5-0.8,0.9-1.4,1.2
		c-0.6,0.3-1.2,0.4-1.8,0.4c-1.3,0-2.3-0.4-3-1.3c-0.7-0.9-1.1-2.1-1.1-3.6V100c0-1,0.2-1.8,0.5-2.6c0.3-0.7,0.8-1.3,1.4-1.7
		s1.4-0.6,2.2-0.6c1.1,0,2,0.3,2.7,1c0.7,0.6,1.1,1.5,1.1,2.5h-1c0-0.8-0.3-1.4-0.8-1.9c-0.5-0.5-1.1-0.7-1.9-0.7
		c-1,0-1.7,0.4-2.3,1.1s-0.8,1.7-0.8,3v0.3c0,1.2,0.3,2.2,0.8,2.9S272.6,104.4,273.6,104.4z"/>
	<path class="st6" d="M283.3,105.3c-0.8,0-1.6-0.2-2.3-0.6c-0.7-0.4-1.2-1-1.6-1.7s-0.6-1.6-0.6-2.5v-0.4c0-0.9,0.2-1.8,0.5-2.5
		c0.4-0.8,0.9-1.3,1.5-1.8c0.7-0.4,1.4-0.6,2.1-0.6c1.2,0,2.1,0.4,2.8,1.2s1,1.9,1,3.3v0.6h-7v0.2c0,1.1,0.3,2,1,2.8
		c0.6,0.7,1.4,1.1,2.4,1.1c0.6,0,1.1-0.1,1.5-0.3c0.4-0.2,0.8-0.5,1.2-1l0.7,0.5C286,104.7,284.8,105.3,283.3,105.3z M283.1,96.1
		c-0.8,0-1.5,0.3-2.1,0.9s-0.9,1.4-1,2.4h5.9v-0.1c0-0.9-0.3-1.7-0.8-2.3C284.6,96.4,283.9,96.1,283.1,96.1z"/>
	<path class="st6" d="M294.9,102.6c0-0.5-0.2-1-0.6-1.3c-0.4-0.3-1.1-0.6-1.9-0.8c-0.9-0.2-1.5-0.4-2-0.6c-0.5-0.2-0.8-0.5-1.1-0.9
		c-0.2-0.3-0.3-0.8-0.3-1.2c0-0.8,0.3-1.4,1-1.9c0.6-0.5,1.5-0.8,2.5-0.8c1.1,0,2,0.3,2.6,0.8s1,1.2,1,2.1h-1.1c0-0.6-0.2-1-0.7-1.4
		s-1.1-0.6-1.8-0.6c-0.7,0-1.3,0.2-1.7,0.5s-0.6,0.7-0.6,1.2c0,0.5,0.2,0.9,0.5,1.1c0.4,0.3,1,0.5,2,0.7c0.9,0.2,1.7,0.5,2.1,0.7
		s0.8,0.6,1.1,0.9c0.2,0.4,0.3,0.8,0.3,1.3c0,0.8-0.3,1.5-1,2c-0.7,0.5-1.5,0.7-2.6,0.7c-1.1,0-2.1-0.3-2.8-0.8s-1.1-1.2-1.1-2.1
		h1.1c0,0.6,0.3,1.1,0.8,1.5c0.5,0.4,1.1,0.5,1.9,0.5c0.8,0,1.4-0.2,1.8-0.5C294.7,103.5,294.9,103.1,294.9,102.6z"/>
	<path class="st6" d="M304.3,102.6c0-0.5-0.2-1-0.6-1.3c-0.4-0.3-1.1-0.6-1.9-0.8c-0.9-0.2-1.5-0.4-2-0.6c-0.5-0.2-0.8-0.5-1.1-0.9
		c-0.2-0.3-0.3-0.8-0.3-1.2c0-0.8,0.3-1.4,1-1.9c0.6-0.5,1.5-0.8,2.5-0.8c1.1,0,2,0.3,2.6,0.8s1,1.2,1,2.1h-1.1c0-0.6-0.2-1-0.7-1.4
		s-1.1-0.6-1.8-0.6c-0.7,0-1.3,0.2-1.7,0.5s-0.6,0.7-0.6,1.2c0,0.5,0.2,0.9,0.5,1.1c0.4,0.3,1,0.5,2,0.7c0.9,0.2,1.7,0.5,2.1,0.7
		s0.8,0.6,1.1,0.9c0.2,0.4,0.3,0.8,0.3,1.3c0,0.8-0.3,1.5-1,2c-0.7,0.5-1.5,0.7-2.6,0.7c-1.1,0-2.1-0.3-2.8-0.8s-1.1-1.2-1.1-2.1
		h1.1c0,0.6,0.3,1.1,0.8,1.5c0.5,0.4,1.1,0.5,1.9,0.5c0.8,0,1.4-0.2,1.8-0.5C304.1,103.5,304.3,103.1,304.3,102.6z"/>
	<path class="st6" d="M307.7,92.5c0-0.2,0.1-0.4,0.2-0.5c0.1-0.1,0.3-0.2,0.5-0.2c0.2,0,0.4,0.1,0.5,0.2s0.2,0.3,0.2,0.5
		c0,0.2-0.1,0.4-0.2,0.5s-0.3,0.2-0.5,0.2c-0.2,0-0.4-0.1-0.5-0.2C307.8,92.9,307.7,92.7,307.7,92.5z M309,105.1h-1.1v-9.8h1.1
		V105.1z"/>
	<path class="st6" d="M319.8,100.3c0,1.5-0.3,2.7-1,3.6c-0.7,0.9-1.6,1.3-2.7,1.3c-1.4,0-2.4-0.5-3.1-1.5l0,1.3h-1V91.2h1.1v5.5
		c0.7-1.1,1.7-1.6,3.1-1.6c1.2,0,2.1,0.4,2.7,1.3s1,2.1,1,3.7V100.3z M318.7,100.1c0-1.3-0.3-2.3-0.8-3c-0.5-0.7-1.2-1.1-2.1-1.1
		c-0.7,0-1.3,0.2-1.8,0.5c-0.5,0.3-0.8,0.8-1.1,1.5v4.4c0.5,1.2,1.5,1.8,2.9,1.8c0.9,0,1.6-0.4,2.1-1.1
		C318.5,102.6,318.7,101.5,318.7,100.1z"/>
	<path class="st6" d="M323.4,105.1h-1.1V91.2h1.1V105.1z"/>
	<path class="st6" d="M330.1,105.3c-0.8,0-1.6-0.2-2.3-0.6c-0.7-0.4-1.2-1-1.6-1.7s-0.6-1.6-0.6-2.5v-0.4c0-0.9,0.2-1.8,0.5-2.5
		c0.4-0.8,0.9-1.3,1.5-1.8c0.7-0.4,1.4-0.6,2.1-0.6c1.2,0,2.1,0.4,2.8,1.2s1,1.9,1,3.3v0.6h-7v0.2c0,1.1,0.3,2,1,2.8
		c0.6,0.7,1.4,1.1,2.4,1.1c0.6,0,1.1-0.1,1.5-0.3c0.4-0.2,0.8-0.5,1.2-1l0.7,0.5C332.8,104.7,331.6,105.3,330.1,105.3z M329.9,96.1
		c-0.8,0-1.5,0.3-2.1,0.9s-0.9,1.4-1,2.4h5.9v-0.1c0-0.9-0.3-1.7-0.8-2.3C331.4,96.4,330.7,96.1,329.9,96.1z"/>
	<path class="st6" d="M342.1,92.8v2.5h2v0.9h-2v6.5c0,0.5,0.1,0.9,0.3,1.2c0.2,0.3,0.5,0.4,1,0.4c0.2,0,0.5,0,0.9-0.1l0,0.9
		c-0.3,0.1-0.7,0.2-1.2,0.2c-0.7,0-1.3-0.2-1.6-0.6s-0.5-1.1-0.5-1.9v-6.5h-1.8v-0.9h1.8v-2.5H342.1z"/>
	<path class="st6" d="M345.5,100.1c0-0.9,0.2-1.8,0.5-2.5c0.4-0.8,0.9-1.3,1.5-1.8c0.7-0.4,1.4-0.6,2.3-0.6c1.3,0,2.4,0.5,3.2,1.4
		s1.2,2.1,1.2,3.6v0.2c0,0.9-0.2,1.8-0.5,2.6c-0.4,0.8-0.9,1.3-1.5,1.7s-1.4,0.6-2.3,0.6c-1.3,0-2.3-0.5-3.2-1.4s-1.2-2.1-1.2-3.6
		V100.1z M346.6,100.4c0,1.2,0.3,2.1,0.9,2.9c0.6,0.7,1.4,1.1,2.4,1.1c1,0,1.8-0.4,2.4-1.1c0.6-0.7,0.9-1.7,0.9-3v-0.2
		c0-0.7-0.1-1.4-0.4-2c-0.3-0.6-0.7-1.1-1.2-1.4s-1.1-0.5-1.7-0.5c-1,0-1.7,0.4-2.4,1.1c-0.6,0.8-0.9,1.7-0.9,3V100.4z"/>
	<path class="st6" d="M368.3,101.4h-6l-1.4,3.7h-1.2l5-13.1h1.1l5,13.1h-1.2L368.3,101.4z M362.7,100.5h5.3l-2.6-7.2L362.7,100.5z"
		/>
	<path class="st6" d="M373.8,105.1h-1.1V91.2h1.1V105.1z"/>
	<path class="st6" d="M377.9,105.1h-1.1V91.2h1.1V105.1z"/>
</g>
<g>
</g>
<g>
</g>
<g>
</g>
<g>
</g>
<g>
</g>
<g>
</g>
</svg>
