<?xml version="1.0" encoding="utf-8"?>
<!-- Generator: Adobe Illustrator 22.0.1, SVG Export Plug-In . SVG Version: 6.00 Build 0)  -->
<svg version="1.1" xmlns="http://www.w3.org/2000/svg" xmlns:xlink="http://www.w3.org/1999/xlink" x="0px" y="0px"
	 viewBox="0 0 2956 820" style="enable-background:new 0 0 2956 820;" xml:space="preserve">
<style type="text/css">
	.st0{display:none;}
	.st1{display:inline;}
	.st2{fill:#F389B8;}
	.st3{fill:#C53794;}
	.st4{fill:#DC519D;}
	.st5{fill:none;}
	.st6{fill:#FFFFFF;}
</style>
<g id="Layer_2" class="st0">
	<rect class="st1" width="2956" height="820"/>
</g>
<g id="Layer_1">
	<polygon class="st2" points="289.2,316.5 442.5,580.4 410.2,618.4 289.2,415.6 244.3,492.8 190.1,492.8 	"/>
	<polygon class="st3" points="289.2,415.6 410.2,618.4 361.8,618.4 337.6,578.1 195.9,576.9 167.1,535.4 312.2,535.4 265,457.1 	"/>
	<polygon class="st4" points="312.2,535.4 286.9,492.8 190.1,492.8 289.2,316.5 231.6,316.5 91,571.2 147.5,571.2 167.1,535.4 
		167.1,535.4 	"/>
	<polygon class="st3" points="147.5,571.2 91,571.2 119.8,614.9 175.1,614.9 	"/>
	<polygon class="st2" points="147.5,571.2 167.1,535.4 195.9,576.9 175.1,614.9 	"/>
	<g>
		<rect x="477" y="310.7" class="st5" width="2410.6" height="356.1"/>
		<path class="st6" d="M689,574.6c-19.6,10.4-43.8,15-71.4,15c-36.9,0-66.8-11.5-88.7-35.7c-24.2-23-34.6-54.2-34.6-93.3
			c0-41.5,12.7-74.9,38-101.4c25.4-25.4,56.5-38,95.6-38c24.2,0,44.9,3.5,61.1,10.4v32.3c-18.4-10.4-39.2-16.1-62.2-16.1
			c-30,0-54.2,10.4-72.6,30c-18.4,19.6-27.7,47.2-27.7,80.7c0,32.3,9.2,57.6,26.5,76.1c17.3,18.5,40.3,28.8,68,28.8
			c26.5,0,48.4-5.8,68-17.3L689,574.6L689,574.6z"/>
		<path class="st6" d="M815.8,590.7c-27.7,0-49.5-9.2-65.7-26.5c-16.1-17.3-24.2-40.3-24.2-69.1c0-31.1,8.1-55.3,25.4-73.7
			c17.3-18.4,40.3-26.5,69.1-26.5c27.7,0,49.5,8.1,64.5,25.4s23,40.3,23,71.4c0,30-8.1,53-25.4,71.4
			C866.5,581.5,843.4,590.7,815.8,590.7z M818.1,420.2c-19.6,0-34.6,6.9-44.9,19.6c-11.5,12.7-17.3,31.1-17.3,54.2
			c0,21.9,5.8,39.2,17.3,51.9c11.5,12.7,26.5,19.6,44.9,19.6c19.6,0,34.6-5.8,44.9-18.4s15-30,15-53s-5.8-41.5-15-54.2
			C853.8,427.1,836.5,420.2,818.1,420.2z"/>
		<path class="st6" d="M1220.3,586.1h-30V479c0-20.7-3.5-35.7-9.2-44.9c-6.9-9.2-17.3-13.8-32.3-13.8c-12.7,0-23,5.8-32.3,17.3
			c-9.2,11.5-13.8,25.4-13.8,41.5v106h-30V474.5c0-36.9-13.8-55.3-42.6-55.3c-12.7,0-24.2,5.8-32.3,16.1
			c-8.1,10.4-12.7,25.4-12.7,42.6v106h-30V399.5h30v30h1.2c12.7-23,32.3-33.4,57.6-33.4c12.7,0,24.2,3.5,33.4,10.4
			s16.1,16.1,19.6,27.7c13.8-25.4,34.6-38,62.2-38c41.5,0,61.1,25.4,61.1,76.1v113.8H1220.3z"/>
		<path class="st6" d="M1306.7,558.5L1306.7,558.5l-1.2,112.9h-30V399.5h30v32.3h1.2c15-24.2,35.7-36.9,64.5-36.9
			c24.2,0,42.6,8.1,56.5,25.4c13.8,16.1,20.7,39.2,20.7,66.8c0,31.1-8.1,56.5-23,74.9c-15,18.4-35.7,27.7-62.2,27.7
			C1338.9,590.7,1320.5,579.2,1306.7,558.5z M1306.7,483.6v26.5c0,15,4.6,28.8,15,39.2c10.4,10.4,23,16.1,38,16.1
			c18.4,0,32.3-6.9,42.6-20.7c10.4-13.8,15-33.4,15-57.6c0-20.7-4.6-36.9-13.8-48.4s-23-17.3-39.2-17.3c-17.3,0-31.1,5.8-41.5,18.4
			C1311.3,450.2,1306.7,465.1,1306.7,483.6z"/>
		<path class="st6" d="M1646.6,586.1h-30v-30h-1.2c-12.7,23-31.1,33.4-57.6,33.4c-44.9,0-66.8-26.5-66.8-79.5V398.2h30v106
			c0,39.2,15,58.8,44.9,58.8c15,0,26.5-5.8,35.7-16.1c9.2-10.4,13.8-24.2,13.8-42.6V397.1h30v189L1646.6,586.1L1646.6,586.1z"/>
		<path class="st6" d="M1792.9,583.8c-6.9,3.5-16.1,5.8-27.7,5.8c-32.3,0-48.4-18.4-48.4-54.2V424.8h-32.3v-25.4h32.3v-44.9l30-9.2
			v55.3h47.2V426h-47.2v104.9c0,12.7,2.3,21.9,6.9,26.5s11.5,8.1,20.7,8.1c8.1,0,13.8-2.3,19.6-5.8v24.2h-1.1V583.8z"/>
		<path class="st6" d="M1981.9,499.7h-131.4c0,20.7,5.8,36.9,17.3,48.4s25.4,17.3,43.8,17.3c20.7,0,40.3-6.9,57.6-20.7v27.7
			c-16.1,11.5-38,17.3-64.5,17.3s-47.2-8.1-62.2-25.4s-23-40.3-23-71.4c0-28.8,8.1-53,24.2-70.3s36.9-27.7,61.1-27.7
			s43.8,8.1,56.5,24.2c13.8,16.1,19.6,38,19.6,65.7v15L1981.9,499.7L1981.9,499.7z M1952,474.4c0-17.3-4.6-31.1-12.7-40.3
			c-8.1-9.2-19.6-13.8-34.6-13.8c-13.8,0-26.5,4.6-35.7,15c-10.4,10.4-16.1,23-18.4,39.2L1952,474.4L1952,474.4z"/>
		<path class="st6" d="M2200.9,586.1l-30-80.7H2058l-30,80.7h-19.6l97.9-260.4h17.3l96.8,260.4H2200.9z M2120.2,367.2
			c-1.2-3.5-2.3-6.9-3.5-10.4s-2.3-5.8-2.3-9.2h-1.2c-2.3,8.1-4.6,15-5.8,19.6l-43.8,121H2164L2120.2,367.2z"/>
		<path class="st6" d="M2335.7,590.7c-27.7,0-48.4-9.2-64.5-26.5s-24.2-41.5-24.2-70.3c0-31.1,8.1-55.3,25.4-72.6
			c16.1-17.3,38-26.5,65.7-26.5c26.5,0,47.2,9.2,63.4,26.5c15,17.3,23,41.5,23,71.4c0,28.8-8.1,53-23,70.3
			C2384.1,581.5,2363.3,590.7,2335.7,590.7z M2336.8,409.8c-21.9,0-39.2,6.9-53,21.9c-12.7,15-19.6,35.7-19.6,62.2
			c0,24.2,6.9,43.8,19.6,58.8s30,21.9,51.9,21.9s39.2-6.9,51.9-21.9s18.4-34.6,18.4-61.1s-5.8-47.2-18.4-61.1
			C2374.9,416.8,2358.7,409.8,2336.8,409.8z"/>
		<path class="st6" d="M2558.1,416.8c-5.8-3.5-12.7-5.8-19.6-5.8c-15,0-26.5,8.1-36.9,23s-15,36.9-15,64.5v87.6h-16.1V399.4h16.1
			v41.5h1.2c4.6-13.8,11.5-25.4,20.7-33.4c9.2-8.1,19.6-11.5,32.3-11.5c6.9,0,12.7,1.2,18.4,3.5v17.3H2558.1z"/>
		<path class="st6" d="M2682.5,583.8c-9.2,4.6-17.3,5.8-24.2,5.8c-27.7,0-41.5-16.1-41.5-49.5V414.5h-33.4v-15h33.4v-48.4
			c2.3-1.2,5.8-2.3,8.1-3.5c3.5-1.2,5.8-2.3,8.1-2.3v54.2h49.5v15H2633v123.3c0,12.7,2.3,21.9,5.8,27.7s10.4,9.2,20.7,9.2
			c6.9,0,13.8-2.3,21.9-6.9v16.1L2682.5,583.8L2682.5,583.8z"/>
		<path class="st6" d="M2831.2,586.1v-36.9h-1.2c-5.8,12.7-15,23-25.4,30c-11.5,8.1-24.2,11.5-38,11.5c-17.3,0-32.3-4.6-41.5-15
			c-10.4-10.4-15-23-15-38c0-32.3,21.9-51.9,64.5-58.8l57.6-8.1c0-40.3-15-59.9-44.9-59.9c-20.7,0-40.3,8.1-59.9,24.2v-20.7
			c6.9-5.8,16.1-10.4,27.7-13.8s23-5.8,33.4-5.8c19.6,0,33.4,5.8,44.9,17.3s16.1,28.8,16.1,51.9v121h-18.4L2831.2,586.1
			L2831.2,586.1z M2780.5,492.8c-19.6,2.3-33.4,6.9-41.5,13.8c-8.1,5.8-11.5,16.1-11.5,30c0,11.5,3.5,19.6,11.5,27.7
			c6.9,6.9,17.3,10.4,31.1,10.4c18.4,0,33.4-6.9,44.9-19.6c11.5-13.8,17.3-30,17.3-51.9v-18.4L2780.5,492.8z"/>
	</g>
	<g>
		<path class="st6" d="M2868,349.9v27.7h-3.5v-27.7h-10.4v-3.5h25.4v3.5H2868z M2911.8,378.7v-25.4l0,0l-10.4,25.4h-3.5l-10.4-25.4
			l0,0v25.4h-3.5v-32.3h5.8l10.4,26.5l0,0l11.5-26.5h4.6v31.1h-4.6L2911.8,378.7L2911.8,378.7z"/>
	</g>
</g>
</svg>
