<?xml version="1.0" encoding="utf-8"?>
<!-- Generator: Adobe Illustrator 18.1.1, SVG Export Plug-In . SVG Version: 6.00 Build 0)  -->
<svg version="1.1" id="Layer_1" xmlns="http://www.w3.org/2000/svg" xmlns:xlink="http://www.w3.org/1999/xlink" x="0px" y="0px"
	 viewBox="0 0 230.2 40.8" enable-background="new 0 0 230.2 40.8" xml:space="preserve">
<g fill="#FFFFFF">
	<rect x="29.7" y="3.6" fill="none" width="200" height="31.1"/>
	<path d="M48.1,26.5c-1.7,0.9-3.8,1.3-6.2,1.3c-3.2,0-5.8-1-7.7-3.1c-1.9-2.1-2.9-4.8-2.9-8.2c0-3.6,1.1-6.5,3.3-8.8
		c2.2-2.2,4.9-3.3,8.3-3.3c2.1,0,3.9,0.3,5.3,0.9v2.8c-1.6-0.9-3.4-1.4-5.4-1.4c-2.6,0-4.7,0.9-6.3,2.6c-1.6,1.7-2.4,4.1-2.4,7
		c0,2.8,0.8,5,2.3,6.6c1.5,1.6,3.5,2.5,5.9,2.5c2.3,0,4.2-0.5,5.9-1.5V26.5z"/>
	<path d="M59.1,27.9c-2.4,0-4.3-0.8-5.7-2.3c-1.4-1.5-2.1-3.5-2.1-6c0-2.7,0.7-4.8,2.2-6.4s3.5-2.3,6-2.3c2.4,0,4.3,0.7,5.6,2.2
		s2,3.5,2,6.2c0,2.6-0.7,4.6-2.2,6.2C63.5,27.1,61.6,27.9,59.1,27.9z M59.3,13.1c-1.7,0-3,0.6-3.9,1.7c-1,1.1-1.5,2.7-1.5,4.7
		c0,1.9,0.5,3.4,1.5,4.5s2.3,1.7,3.9,1.7c1.7,0,3-0.5,3.9-1.6c0.9-1.1,1.3-2.6,1.3-4.6c0-2-0.5-3.6-1.3-4.7S61,13.1,59.3,13.1z"/>
	<path d="M94.2,27.5h-2.6v-9.3c0-1.8-0.3-3.1-0.8-3.9c-0.6-0.8-1.5-1.2-2.8-1.2c-1.1,0-2,0.5-2.8,1.5c-0.8,1-1.2,2.2-1.2,3.6v9.2
		h-2.6v-9.6c0-3.2-1.2-4.8-3.7-4.8c-1.1,0-2.1,0.5-2.8,1.4s-1.1,2.2-1.1,3.7v9.2h-2.6V11.3h2.6v2.6h0.1c1.1-2,2.8-2.9,5-2.9
		c1.1,0,2.1,0.3,2.9,0.9c0.8,0.6,1.4,1.4,1.7,2.4c1.2-2.2,3-3.3,5.4-3.3c3.6,0,5.3,2.2,5.3,6.6V27.5z"/>
	<path d="M101.8,25.1L101.8,25.1l-0.1,9.8h-2.6V11.3h2.6v2.8h0.1c1.3-2.1,3.1-3.2,5.6-3.2c2.1,0,3.7,0.7,4.9,2.2
		c1.2,1.4,1.8,3.4,1.8,5.8c0,2.7-0.7,4.9-2,6.5c-1.3,1.6-3.1,2.4-5.4,2.4C104.5,27.9,102.9,26.9,101.8,25.1z M101.7,18.6v2.3
		c0,1.3,0.4,2.5,1.3,3.4c0.9,0.9,2,1.4,3.3,1.4c1.6,0,2.8-0.6,3.7-1.8c0.9-1.2,1.3-2.9,1.3-5c0-1.8-0.4-3.2-1.2-4.2
		c-0.8-1-2-1.5-3.4-1.5c-1.5,0-2.7,0.5-3.6,1.6C102.2,15.7,101.7,17,101.7,18.6z"/>
	<path d="M131.2,27.5h-2.6v-2.6h-0.1c-1.1,2-2.7,2.9-5,2.9c-3.9,0-5.8-2.3-5.8-6.9v-9.7h2.6v9.2c0,3.4,1.3,5.1,3.9,5.1
		c1.3,0,2.3-0.5,3.1-1.4c0.8-0.9,1.2-2.1,1.2-3.7v-9.3h2.6V27.5z"/>
	<path d="M143.9,27.3c-0.6,0.3-1.4,0.5-2.4,0.5c-2.8,0-4.2-1.6-4.2-4.7v-9.6h-2.8v-2.2h2.8V7.4l2.6-0.8v4.8h4.1v2.2h-4.1v9.1
		c0,1.1,0.2,1.9,0.6,2.3s1,0.7,1.8,0.7c0.7,0,1.2-0.2,1.7-0.5V27.3z"/>
	<path d="M160.4,20h-11.4c0,1.8,0.5,3.2,1.5,4.2s2.2,1.5,3.8,1.5c1.8,0,3.5-0.6,5-1.8v2.4c-1.4,1-3.3,1.5-5.6,1.5
		c-2.3,0-4.1-0.7-5.4-2.2s-2-3.5-2-6.2c0-2.5,0.7-4.6,2.1-6.1s3.2-2.4,5.3-2.4c2.1,0,3.8,0.7,4.9,2.1c1.2,1.4,1.7,3.3,1.7,5.7V20z
		 M157.7,17.8c0-1.5-0.4-2.7-1.1-3.5c-0.7-0.8-1.7-1.2-3-1.2c-1.2,0-2.3,0.4-3.1,1.3c-0.9,0.9-1.4,2-1.6,3.4H157.7z"/>
	<path d="M163.8,26.7v-1.8c1.6,1,3.3,1.5,4.9,1.5c1.8,0,3.1-0.4,4-1.1s1.4-1.8,1.4-3.1c0-1.2-0.3-2.1-0.9-2.8
		c-0.6-0.7-1.9-1.6-4-2.8c-2.3-1.3-3.7-2.5-4.4-3.4c-0.6-0.9-0.9-1.9-0.9-3.1c0-1.6,0.6-3,1.9-4.1c1.2-1.1,2.9-1.7,5-1.7
		c1.3,0,2.7,0.2,4,0.7v1.6c-1.3-0.6-2.7-0.9-4.2-0.9c-1.5,0-2.8,0.4-3.7,1.2c-0.9,0.8-1.3,1.8-1.3,3c0,1.2,0.3,2.1,0.9,2.8
		c0.6,0.7,1.9,1.6,4,2.8c2.1,1.2,3.5,2.3,4.2,3.2c0.7,0.9,1,2,1,3.2c0,1.7-0.6,3.2-1.8,4.2c-1.2,1.1-2.9,1.6-5.1,1.6
		c-0.8,0-1.7-0.1-2.7-0.4C165.2,27.3,164.4,27,163.8,26.7z"/>
	<path d="M191,27.5v-2.9h-0.1c-1.1,2.2-2.9,3.3-5.2,3.3c-3.8,0-5.7-2.4-5.7-7.2v-9.3h1.5v9c0,2.2,0.4,3.8,1.1,4.8
		c0.7,1,1.9,1.5,3.4,1.5c1.5,0,2.7-0.6,3.7-1.7c0.9-1.1,1.4-2.6,1.4-4.4v-9.2h1.5v16.2H191z"/>
	<path d="M198.3,7.2c-0.3,0-0.6-0.1-0.8-0.3s-0.4-0.5-0.4-0.9c0-0.3,0.1-0.6,0.4-0.8s0.5-0.3,0.8-0.3c0.3,0,0.6,0.1,0.9,0.3
		c0.2,0.2,0.4,0.5,0.4,0.9c0,0.3-0.1,0.6-0.4,0.9C198.9,7.1,198.6,7.2,198.3,7.2z M197.6,27.5V11.3h1.5v16.2H197.6z"/>
	<path d="M210.6,27.3c-0.8,0.4-1.5,0.5-2.1,0.5c-2.4,0-3.6-1.4-3.6-4.3V12.6H202v-1.3h2.9V7.1c0.2-0.1,0.5-0.2,0.7-0.3
		c0.3-0.1,0.5-0.2,0.7-0.2v4.7h4.3v1.3h-4.3v10.7c0,1.1,0.2,1.9,0.5,2.4c0.4,0.5,0.9,0.8,1.8,0.8c0.6,0,1.2-0.2,1.9-0.6V27.3z"/>
	<path d="M214.2,19.5c0,2.2,0.5,4,1.5,5.2c1,1.3,2.4,1.9,4.2,1.9c1.8,0,3.6-0.7,5.3-2v1.5c-1.7,1.2-3.5,1.8-5.6,1.8
		c-2.1,0-3.8-0.7-5-2.2c-1.3-1.5-1.9-3.6-1.9-6.3c0-2.4,0.7-4.3,2-6c1.3-1.6,3.1-2.4,5.2-2.4c2,0,3.6,0.7,4.6,2.1
		c1.1,1.4,1.6,3.3,1.6,5.8v0.6H214.2z M224.6,18.1c-0.1-1.9-0.5-3.3-1.3-4.3c-0.8-1-2-1.5-3.4-1.5c-1.5,0-2.8,0.5-3.8,1.5
		c-1,1-1.6,2.5-1.8,4.4H224.6z"/>
</g>
<polygon fill="#71BB44" points="0,5.6 0,27.7 3.6,29.5 3.6,11.5 12.8,16.6 16.4,14.6 "/>
<polygon fill="#DC519D" points="0,5.6 3.8,3.6 23.5,14.5 7.2,23.6 7.2,19.6 16.4,14.6 "/>
<polygon fill="#0077C0" points="3.6,11.5 3.6,29.5 23.5,18.5 23.5,14.5 7.2,23.6 7.2,13.5 "/>
<g fill="#FFFFFF">
	<path d="M225.2,5.9v2.4h-0.3V5.9h-0.9V5.6h2.2v0.3H225.2z M229,8.3V6.1h0L228,8.3h-0.3l-0.9-2.2h0v2.2h-0.3V5.6h0.5l0.9,2.3h0
		l1-2.3h0.4v2.7H229z"/>
</g>
<g>
</g>
<g>
</g>
<g>
</g>
<g>
</g>
<g>
</g>
<g>
</g>
</svg>
