<svg id="b4e826fd-f55e-4c01-b0e7-911a85ea1624" data-name="Logo" xmlns="http://www.w3.org/2000/svg" viewBox="0 0 1060.623 855.674"><defs><style>.ac8a1926-747c-4a7a-8e6b-9e4098b41946{fill:#fff;}</style></defs><rect class="ac8a1926-747c-4a7a-8e6b-9e4098b41946" x="697.9127" y="156.6365" width="77.1885" height="22.5417"/><rect class="ac8a1926-747c-4a7a-8e6b-9e4098b41946" x="972.9942" y="260.1761" width="22.5417" height="77.1885"/><rect class="ac8a1926-747c-4a7a-8e6b-9e4098b41946" x="813.9346" y="156.6365" width="77.1885" height="22.5417"/><rect class="ac8a1926-747c-4a7a-8e6b-9e4098b41946" x="491.7679" y="156.6365" width="167.3115" height="22.5417"/><polygon class="ac8a1926-747c-4a7a-8e6b-9e4098b41946" points="995.536 156.636 995.536 0 972.994 0 972.994 156.636 929.956 156.636 929.956 179.178 972.994 179.178 972.994 221.343 995.536 221.343 995.536 179.178 1060.623 179.178 1060.623 156.636 995.536 156.636"/><rect class="ac8a1926-747c-4a7a-8e6b-9e4098b41946" x="972.9942" y="492.2198" width="22.5417" height="172.9686"/><rect class="ac8a1926-747c-4a7a-8e6b-9e4098b41946" x="972.9942" y="376.1981" width="22.5417" height="77.1885"/><path class="ac8a1926-747c-4a7a-8e6b-9e4098b41946" d="M795.3912,455.3843a202.4863,202.4863,0,0,0-20.4468,1.0318l-.0044-.0044c-1.8057.1345-3.6236.2258-5.4634.2258a72.6161,72.6161,0,0,1-72.6162-72.616h0c0-1.84.0913-3.6578.2256-5.4634l-.32-.32a202.3518,202.3518,0,0,0,1.1468-21.4566c0-110.5369-89.6079-200.1448-200.1448-200.1448S297.6231,246.2444,297.6231,356.7813c0,5.65.2465,11.2413.7056,16.7725l-.4667.4667a72.504,72.504,0,0,1-80.8858,80.8858l-.2882.2882c-5.4564-.4465-10.9716-.6852-16.5432-.6852C89.6079,454.5093,0,544.1172,0,654.6542S89.6079,854.799,200.1448,854.799,400.29,765.1911,400.29,654.6542a202.4467,202.4467,0,0,0-1.057-20.6706l.2311-.2311c-.1349-1.8057-.2262-3.6234-.2262-5.4634a72.6161,72.6161,0,0,1,72.6161-72.6161c1.84,0,3.6577.0913,5.4634.2257l.0044-.0044a202.4818,202.4818,0,0,0,20.4465,1.0318q7.9463,0,15.7395-.6138l.0036.0036c.1479-.0184.295-.0258.4428-.0432,1.3162-.1053,2.63-.2191,3.9389-.35,38.06-2.3528,72.84,26.2244,77.5924,64.4967a72.5049,72.5049,0,0,1,0,17.87l.4667.4667c-.459,5.5313-.7055,11.1227-.7055,16.7725,0,110.5367,89.6078,200.1448,200.1449,200.1448S995.536,766.0661,995.536,655.5292,905.928,455.3843,795.3912,455.3843ZM565.9637,545A200.7227,200.7227,0,0,0,685.2313,427.01a94.7351,94.7351,0,0,0,40.4533,40.8578A200.73,200.73,0,0,0,607.5661,586.2521,94.69,94.69,0,0,0,565.9637,545ZM795.392,832.674A177.1449,177.1449,0,1,1,972.5364,655.5287,177.1448,177.1448,0,0,1,795.392,832.674Z"/></svg>