<?xml version="1.0" encoding="utf-8"?>
<!-- Generator: Adobe Illustrator 18.1.1, SVG Export Plug-In . SVG Version: 6.00 Build 0)  -->
<svg version="1.1" id="Layer_1" xmlns="http://www.w3.org/2000/svg" xmlns:xlink="http://www.w3.org/1999/xlink" x="0px" y="0px"
	 viewBox="0 0 183.4 40.8" enable-background="new 0 0 183.4 40.8" xml:space="preserve">
<polygon fill="#8EC04C" points="6.4,4.7 2.4,4.7 0,7.7 4,7.7 "/>
<polygon fill="#71BB44" points="0,7.6 12,28.8 26.9,3.6 22.9,3.6 12,21.9 4,7.6 "/>
<polygon fill="#227C3D" points="4,7.6 12,21.9 14.1,18.5 6.4,4.7 "/>
<polygon fill="#9ACC5C" points="12,28.8 16.6,28.8 29.8,5.9 26.9,3.6 "/>
<g fill="#FFFFFF">
	<rect x="36" y="3.6" fill="none" width="143" height="31.1"/>
	<path d="M55.8,4.8l-8.4,22.6h-2.9L36.3,4.8h3l6.3,17.9c0.2,0.6,0.4,1.2,0.5,2H46c0.1-0.6,0.3-1.3,0.5-2L53,4.8H55.8z"/>
	<path d="M60,7.2c-0.5,0-0.9-0.2-1.2-0.5c-0.3-0.3-0.5-0.7-0.5-1.2s0.2-0.9,0.5-1.2s0.7-0.5,1.2-0.5c0.5,0,0.9,0.2,1.2,0.5
		c0.3,0.3,0.5,0.7,0.5,1.2c0,0.5-0.2,0.9-0.5,1.2C60.9,7,60.5,7.2,60,7.2z M61.3,27.5h-2.6V11.3h2.6V27.5z"/>
	<path d="M65.6,26.9v-2.8c1.4,1,3,1.6,4.7,1.6c2.3,0,3.4-0.8,3.4-2.3c0-0.4-0.1-0.8-0.3-1.1c-0.2-0.3-0.5-0.6-0.8-0.8
		s-0.7-0.4-1.2-0.6c-0.4-0.2-0.9-0.4-1.4-0.6c-0.7-0.3-1.3-0.6-1.9-0.9c-0.5-0.3-1-0.6-1.4-1c-0.4-0.4-0.6-0.8-0.8-1.2
		c-0.2-0.5-0.3-1-0.3-1.6c0-0.8,0.2-1.4,0.5-2c0.3-0.6,0.8-1.1,1.4-1.5c0.6-0.4,1.2-0.7,2-0.9s1.5-0.3,2.3-0.3
		c1.4,0,2.7,0.2,3.8,0.7v2.6c-1.2-0.8-2.6-1.2-4.1-1.2c-0.5,0-0.9,0.1-1.3,0.2c-0.4,0.1-0.7,0.3-1,0.5s-0.5,0.4-0.6,0.7
		s-0.2,0.6-0.2,0.9c0,0.4,0.1,0.8,0.2,1.1c0.2,0.3,0.4,0.5,0.7,0.8c0.3,0.2,0.7,0.4,1.1,0.6c0.4,0.2,0.9,0.4,1.4,0.6
		c0.7,0.3,1.4,0.6,1.9,0.8c0.6,0.3,1.1,0.6,1.5,1c0.4,0.4,0.7,0.8,0.9,1.3c0.2,0.5,0.3,1,0.3,1.7c0,0.8-0.2,1.5-0.5,2.1
		c-0.4,0.6-0.8,1.1-1.4,1.5s-1.3,0.7-2,0.9c-0.8,0.2-1.6,0.3-2.4,0.3C68.2,27.9,66.8,27.5,65.6,26.9z"/>
	<path d="M81.6,7.2c-0.5,0-0.9-0.2-1.2-0.5c-0.3-0.3-0.5-0.7-0.5-1.2s0.2-0.9,0.5-1.2s0.7-0.5,1.2-0.5c0.5,0,0.9,0.2,1.2,0.5
		c0.3,0.3,0.5,0.7,0.5,1.2c0,0.5-0.2,0.9-0.5,1.2C82.5,7,82.1,7.2,81.6,7.2z M82.8,27.5h-2.6V11.3h2.6V27.5z"/>
	<path d="M94.8,27.9c-2.4,0-4.3-0.8-5.7-2.3c-1.4-1.5-2.1-3.5-2.1-6c0-2.7,0.7-4.8,2.2-6.4s3.5-2.3,6-2.3c2.4,0,4.3,0.7,5.6,2.2
		s2,3.5,2,6.2c0,2.6-0.7,4.6-2.2,6.2C99.2,27.1,97.3,27.9,94.8,27.9z M95,13.1c-1.7,0-3,0.6-3.9,1.7c-1,1.1-1.5,2.7-1.5,4.7
		c0,1.9,0.5,3.4,1.5,4.5s2.3,1.7,3.9,1.7c1.7,0,3-0.5,3.9-1.6c0.9-1.1,1.3-2.6,1.3-4.6c0-2-0.5-3.6-1.3-4.7S96.7,13.1,95,13.1z"/>
	<path d="M120.4,27.5h-2.6v-9.2c0-3.4-1.3-5.1-3.8-5.1c-1.3,0-2.4,0.5-3.2,1.5c-0.8,1-1.3,2.2-1.3,3.7v9.2H107V11.3h2.6V14h0.1
		c1.2-2,3-3.1,5.3-3.1c1.8,0,3.1,0.6,4.1,1.7c0.9,1.1,1.4,2.8,1.4,4.9V27.5z"/>
	<path d="M140.6,26.7c-1.8,0.8-3.7,1.1-5.7,1.1c-3.1,0-5.6-1-7.6-3.1c-2-2.1-2.9-4.8-2.9-8.1c0-3.7,1.1-6.6,3.2-8.8
		c2.1-2.2,4.8-3.3,8.1-3.3c1.7,0,3.4,0.3,5,0.8V7c-1.6-0.7-3.3-1.1-5-1.1c-2.8,0-5.2,1-6.9,2.9c-1.8,1.9-2.7,4.5-2.7,7.7
		c0,3.1,0.8,5.5,2.5,7.3s3.9,2.7,6.5,2.7c2.1,0,3.9-0.4,5.6-1.2V26.7z"/>
	<path d="M146.9,24.6L146.9,24.6l-0.1,10.3h-1.5V11.3h1.5v3.3h0.1c0.6-1.2,1.4-2.1,2.5-2.8c1.1-0.6,2.3-1,3.6-1
		c2.1,0,3.7,0.7,4.8,2.1c1.2,1.4,1.7,3.3,1.7,5.8c0,2.7-0.7,4.9-2,6.6c-1.3,1.7-3.1,2.5-5.2,2.5C149.8,27.9,148,26.8,146.9,24.6z
		 M146.8,18.6v2c0,1.6,0.5,3,1.5,4.2c1,1.2,2.4,1.7,4,1.7c1.7,0,3-0.7,4-2.1s1.5-3.3,1.5-5.6c0-2-0.5-3.6-1.4-4.8
		c-0.9-1.2-2.2-1.8-3.8-1.8c-1.9,0-3.3,0.6-4.4,1.9C147.3,15.4,146.8,16.9,146.8,18.6z"/>
	<path d="M165,24.6L165,24.6l-0.1,10.3h-1.5V11.3h1.5v3.3h0.1c0.6-1.2,1.4-2.1,2.5-2.8c1.1-0.6,2.3-1,3.6-1c2.1,0,3.7,0.7,4.8,2.1
		c1.2,1.4,1.7,3.3,1.7,5.8c0,2.7-0.7,4.9-2,6.6c-1.3,1.7-3.1,2.5-5.2,2.5C167.9,27.9,166.1,26.8,165,24.6z M164.9,18.6v2
		c0,1.6,0.5,3,1.5,4.2c1,1.2,2.4,1.7,4,1.7c1.7,0,3-0.7,4-2.1s1.5-3.3,1.5-5.6c0-2-0.5-3.6-1.4-4.8c-0.9-1.2-2.2-1.8-3.8-1.8
		c-1.9,0-3.3,0.6-4.4,1.9C165.4,15.4,164.9,16.9,164.9,18.6z"/>
</g>
<g fill="#FFFFFF">
	<path d="M178.4,4.9v2.4h-0.3V4.9h-0.9V4.5h2.2v0.3H178.4z M182.2,7.3V5.1h0l-0.9,2.2H181l-0.9-2.2h0v2.2h-0.3V4.5h0.5l0.9,2.3h0
		l1-2.3h0.4v2.7H182.2z"/>
</g>
<g>
</g>
<g>
</g>
<g>
</g>
<g>
</g>
<g>
</g>
<g>
</g>
</svg>
