<svg id="Black" xmlns="http://www.w3.org/2000/svg" viewBox="0 0 582.61 582.61"><defs><style>.cls-1{fill:#fff;stroke:#1d1d1b;stroke-miterlimit:10;}</style></defs><circle class="cls-1" cx="291.3" cy="290.55" r="211.42"/><g id="Facebook"><path d="M291.3,0C130.42,0,0,130.42,0,291.3S130.42,582.61,291.3,582.61,582.61,452.19,582.61,291.3,452.19,0,291.3,0Zm69.55,204.86a5,5,0,0,1-5,5h-21.3c-14.68,0-17.37,5.72-17.37,17v23.45H354.4a5,5,0,0,1,5,5v40.09a5,5,0,0,1-5,5H317.21V401.5a5,5,0,0,1-5,5H270.75a5,5,0,0,1-5-5V300.33H234a5,5,0,0,1-5-5V255.27a5,5,0,0,1,5-5h31.8V222.62c0-36.46,23-60,58.49-60l31.62,0a5,5,0,0,1,5,5Z" transform="translate(0)"/></g></svg>