<svg id="Yellow" xmlns="http://www.w3.org/2000/svg" viewBox="0 0 582.61 582.61"><defs><style>.cls-1{fill:#fcc00e;}</style></defs><path class="cls-1" d="M291.3,0C130.42,0,0,130.42,0,291.3S130.42,582.61,291.3,582.61,582.61,452.19,582.61,291.3,452.19,0,291.3,0Zm-46,382.73a3.51,3.51,0,0,1-3.51,3.51H198.1a3.51,3.51,0,0,1-3.51-3.51V242.42a3.51,3.51,0,0,1,3.51-3.51h43.67a3.51,3.51,0,0,1,3.51,3.51ZM220,226.75a28.8,28.8,0,1,1,28.8-28.81A28.85,28.85,0,0,1,220,226.75Zm188.75,156a3.51,3.51,0,0,1-3.51,3.51h-43.6a3.51,3.51,0,0,1-3.51-3.51V314.51c0-19.1-1.41-33.71-19.17-33.71-16.31,0-22.66,9.12-22.66,32.51v69.42a3.51,3.51,0,0,1-3.51,3.51H269.16a3.51,3.51,0,0,1-3.51-3.51V242.42a3.51,3.51,0,0,1,3.51-3.51H311a3.51,3.51,0,0,1,3.51,3.51v9.11c7.87-8.57,20.84-16.11,38.38-16.11,49.19,0,55.83,35.56,55.83,70.35Z" transform="translate(0 0)"/></svg>