<?xml version="1.0" encoding="utf-8"?>
<!-- Generator: Adobe Illustrator 24.3.0, SVG Export Plug-In . SVG Version: 6.00 Build 0)  -->
<svg version="1.1" id="Black" xmlns="http://www.w3.org/2000/svg" xmlns:xlink="http://www.w3.org/1999/xlink" x="0px" y="0px"
	 viewBox="0 0 582.6 582.6" style="enable-background:new 0 0 582.6 582.6;" xml:space="preserve">
<style type="text/css">
	.st0{fill:#FFFFFF;stroke:#1D1D1B;stroke-miterlimit:10;}
	.st1{fill:#FFFFFF;}
</style>
<circle class="st0" cx="291.3" cy="290.5" r="211.4"/>
<path d="M291.3,0C130.4,0,0,130.4,0,291.3s130.4,291.3,291.3,291.3s291.3-130.4,291.3-291.3S452.2,0,291.3,0z"/>
<path class="st1" d="M241.9,200l-16-16c-26.8,20.4-44.5,51.9-46,87.7h22.3C203.9,242.2,219.1,216.2,241.9,200z M380.3,271.8h22.3
	c-1.7-35.7-19.3-67.2-46-87.7l-15.9,16C363.3,216.2,378.7,242.2,380.3,271.8z M358.3,277.3c0-34.3-18.3-63-50.3-70.6v-7.6
	c0-9.3-7.5-16.8-16.8-16.8c-9.3,0-16.8,7.5-16.8,16.8v7.6c-32.1,7.6-50.3,36.2-50.3,70.6v55.9l-22.3,22.3v11.2h178.7v-11.2
	l-22.3-22.3V277.3z M291.3,400.2c1.6,0,3-0.1,4.5-0.4c7.3-1.6,13.2-6.5,16.1-13.2c1.1-2.7,1.7-5.6,1.7-8.7h-44.7
	C269,390.2,278.9,400.2,291.3,400.2z"/>
</svg>
