<?xml version="1.0" encoding="utf-8"?>
<!-- Generator: Adobe Illustrator 24.3.0, SVG Export Plug-In . SVG Version: 6.00 Build 0)  -->
<svg version="1.1" id="Black" xmlns="http://www.w3.org/2000/svg" xmlns:xlink="http://www.w3.org/1999/xlink" x="0px" y="0px"
	 viewBox="0 0 582.6 582.6" style="enable-background:new 0 0 582.6 582.6;" xml:space="preserve">
<style type="text/css">
	.st0{fill:#FFFFFF;stroke:#1D1D1B;stroke-miterlimit:10;}
	.st1{fill:#FFFFFF;}
</style>
<circle class="st0" cx="291.3" cy="290.5" r="211.4"/>
<path class="st1" d="M291.3,0C130.4,0,0,130.4,0,291.3s130.4,291.3,291.3,291.3s291.3-130.4,291.3-291.3S452.2,0,291.3,0z"/>
<path d="M376.1,206.5H206.5c-11.7,0-21.1,9.5-21.1,21.2l-0.1,127.3c0,11.7,9.5,21.2,21.2,21.2h169.7c11.7,0,21.2-9.5,21.2-21.2
	V227.7C397.3,216,387.8,206.5,376.1,206.5z M376.1,248.9l-84.8,53l-84.8-53v-21.2l84.8,53l84.8-53V248.9z"/>
</svg>
