<svg id="Black" xmlns="http://www.w3.org/2000/svg" viewBox="0 0 582.61 582.61"><defs><style>.cls-1{fill:#fff;stroke:#1d1d1b;stroke-miterlimit:10;}</style></defs><circle class="cls-1" cx="291.3" cy="290.55" r="211.42"/><g id="Twitter"><path d="M291.3,0C130.42,0,0,130.42,0,291.3S130.42,582.61,291.3,582.61,582.61,452.19,582.61,291.3,452.19,0,291.3,0ZM441.44,219a111.84,111.84,0,0,1-25.7,27.22c.05,1.58.07,3.18.07,4.75,0,37.73-14.58,75.91-40,104.75-20.39,23.13-57,50.71-115.45,50.71a154.9,154.9,0,0,1-83.76-24.55,4.32,4.32,0,0,1,2.84-7.92,104.59,104.59,0,0,0,12.16.71,101.67,101.67,0,0,0,54.32-15.5,57.39,57.39,0,0,1-42.08-38.5,4.32,4.32,0,0,1,4.92-5.55c1.45.28,2.91.49,4.37.63A57.62,57.62,0,0,1,185,266.4c0-.26,0-.51,0-.77a4.32,4.32,0,0,1,6.41-3.67,49,49,0,0,0,7.69,3.43,57.52,57.52,0,0,1-5.89-66.11,4.31,4.31,0,0,1,7.07-.55,147.07,147.07,0,0,0,100.93,53.54,57.51,57.51,0,0,1,57-64.85,57.69,57.69,0,0,1,40.2,16.38,101.75,101.75,0,0,0,30.11-11.9,4.32,4.32,0,0,1,6.31,5,57.13,57.13,0,0,1-11.65,20.48,102,102,0,0,0,12.94-4.71,4.31,4.31,0,0,1,5.34,6.34Z" transform="translate(0)"/></g></svg>